<svg viewBox="0 0 1024 480" x="0px" y="0px" xmlns="http://www.w3.org/2000/svg">
	<path stroke="none" d="M227.468658,481.000000C217.843903,472.517456 209.028473,463.736603 200.851776,454.259552C196.558197,449.283203 195.065994,444.140594 195.559204,437.859589C195.795181,434.854675 196.619919,433.735138 199.782623,434.170135C208.358368,435.349731 216.989914,436.131958 225.554535,437.379364C228.604111,437.823517 230.382812,436.791290 232.491104,434.737610C238.246048,429.131805 239.988815,422.688934 240.038727,414.622742C240.240662,381.980103 241.212936,349.342316 241.886429,316.702454C242.045380,308.999054 241.300156,301.400604 238.738327,294.084290C236.482529,287.641998 234.780182,286.491852 227.996994,287.142181C213.932831,288.490509 200.005310,291.093384 185.851593,291.661743C177.537613,291.995636 169.231537,292.527222 160.922211,292.975250C158.713684,293.094330 157.030899,292.288727 156.007782,290.263306C155.782623,289.817566 155.575531,289.343292 155.260330,288.965363C146.663742,278.658569 146.620361,266.835785 147.949738,254.205673C149.847549,236.175278 150.514740,218.015198 151.698898,199.909927C152.035706,194.760315 152.038483,189.567825 152.724777,184.466339C154.280594,172.901093 149.612808,162.551849 146.780212,151.844330C144.521194,143.305038 142.469635,134.751465 142.517776,125.842239C142.523132,124.850410 142.251755,123.788361 142.518570,122.879143C143.433701,119.760628 157.352310,113.157951 160.487167,114.256859C160.800842,114.366821 161.095154,114.531525 161.407745,114.645264C180.153046,121.466309 173.976349,121.764793 188.227570,109.788498C200.066589,99.839348 211.216064,88.968712 220.624283,76.553795C226.070465,69.367119 231.019455,61.881977 232.968399,52.814701C233.603683,49.859119 233.114319,48.314014 229.764282,48.386124C201.294220,48.998917 172.815216,49.549286 145.130600,57.423248C142.107330,58.283115 139.190353,59.602238 136.331360,60.937981C127.952759,64.852516 124.121841,71.132744 124.179230,80.754417C124.491386,133.083221 117.893250,184.673599 105.845940,235.528046C94.792747,282.186066 78.507492,327.033325 57.661575,370.241699C51.068363,383.907776 43.843430,397.222046 36.737137,410.610107C35.679535,412.602600 34.273781,414.100006 32.427784,415.326691C27.987822,418.277069 23.486124,421.152130 19.214836,424.333496C15.521021,427.084747 11.508583,427.046051 7.298524,426.600342C5.074750,426.364929 4.068104,425.150696 3.984648,423.002106C3.828914,418.992737 4.056223,415.132050 5.536088,411.239532C25.303446,359.245483 43.841522,306.835907 59.230152,253.343643C66.921631,226.607376 71.941643,199.290009 77.760643,172.143265C82.850784,148.396790 87.153038,124.521278 88.819229,100.243042C89.422592,91.451363 86.101181,83.224976 85.199356,74.640358C84.016258,63.378345 82.868576,52.131142 82.782486,40.789783C82.760612,37.909580 84.050217,36.270126 86.220459,34.655907C95.589478,27.687265 106.403030,25.595657 117.694366,24.895922C142.804489,23.339817 167.573105,19.047167 192.433304,15.494843C214.667587,12.317742 236.987564,9.898259 259.323608,7.558021C287.010864,4.657115 314.769958,3.376009 342.583374,2.833062C353.785370,2.614387 362.718353,7.885533 371.088074,14.418962C373.641602,16.412252 374.914917,19.527180 374.999390,22.812498C375.149261,28.641602 375.035614,34.477032 375.083099,40.309399C375.107330,43.284435 373.673950,44.559006 370.755951,44.352772C369.760834,44.282440 368.756470,44.355553 367.756897,44.335262C340.084534,43.773575 312.465088,45.496044 284.821899,46.202721C281.172729,46.296013 279.663330,47.453835 279.215790,51.362263C278.081268,61.270874 271.801575,68.655495 265.782196,76.009285C256.882294,86.882256 246.402420,96.173714 235.824814,105.351768C234.706772,106.321899 233.391968,107.137756 232.792328,108.918961C234.947021,111.802620 238.188034,110.980247 240.923386,110.657890C255.297241,108.963997 269.667511,107.196190 283.987488,105.101730C296.324066,103.297371 308.606903,101.177040 320.426086,96.883667C324.280853,95.483406 328.381104,97.232124 332.248230,97.918991C341.951172,99.642372 351.332764,102.477318 359.967499,107.499352C373.985229,115.652145 380.912964,131.282684 378.923401,147.383301C374.960754,179.450745 359.454041,206.556122 343.158966,233.375427C336.065613,245.049973 328.342468,256.326385 320.375793,267.436707C318.289459,270.346313 316.006714,271.428741 312.498444,271.446381C303.507416,271.491516 294.555054,272.341461 285.760315,274.298065C283.353027,274.833588 280.971069,275.752350 278.769104,276.872070C276.153137,278.202271 275.146759,280.398041 275.686676,283.523621C278.204895,298.102844 280.638275,312.698090 282.911224,327.317291C283.444611,330.747833 283.330872,334.293091 283.354034,337.786652C283.557312,368.447479 284.007416,399.110474 283.794250,429.768707C283.669159,447.758087 277.769775,464.042969 266.447601,478.209656C265.936707,478.848907 265.594238,479.622742 265.086670,480.666931C252.645767,481.000000 240.291550,481.000000 227.468658,481.000000M290.766815,142.368561C287.276184,142.572510 283.787506,142.905914 280.294586,142.958878C260.950989,143.252258 241.754654,144.922775 222.884842,149.340317C213.316360,151.580368 203.769257,154.012054 195.731033,160.181870C190.792816,163.972260 188.036957,168.753159 188.214828,175.147675C188.363022,180.474777 188.238892,185.809372 188.238968,191.140656C188.239182,208.800583 188.243805,226.460526 188.239182,244.120453C188.238495,246.695206 188.188354,248.968948 191.692490,249.686539C201.894608,251.775726 212.363708,252.965225 222.466660,251.316391C245.329666,247.585022 267.797302,241.990891 288.528290,231.053833C321.113312,213.862946 339.633209,187.772736 339.691223,150.040878C339.701141,143.589706 338.321991,142.167099 331.703766,142.164703C318.375885,142.159882 305.047943,142.279602 290.766815,142.368561M1010.829468,431.197449C1004.774963,433.144379 999.657593,432.531891 994.233826,429.561188C980.440186,422.006134 965.244995,419.089874 949.758423,417.270844C925.033203,414.366638 900.582520,418.269348 876.035156,419.865326C866.454590,420.488220 857.195984,417.953339 847.813049,416.752350C843.895874,416.250977 840.745911,416.556000 837.591980,419.064240C833.032410,422.690521 828.024963,425.760834 823.529785,429.458740C820.288147,432.125458 816.971985,432.907349 812.931641,432.282074C801.915588,430.577240 790.841125,429.235107 779.849243,427.394470C773.767517,426.376068 768.320068,428.299103 762.768494,429.962494C737.732300,437.463959 712.702026,444.985992 687.705444,452.617950C684.318909,453.651917 681.392395,453.628448 678.132507,452.022552C670.215271,448.122253 662.184753,444.434448 654.077148,440.946320C650.787842,439.531189 649.593323,437.474457 649.764893,434.024872C649.971497,429.868622 650.010681,425.681854 649.752930,421.531281C649.524719,417.855103 651.207947,416.503387 654.582458,416.093750C666.134949,414.691193 677.715942,413.436920 689.205017,411.614990C721.398315,406.509705 753.733032,401.991028 784.741455,391.310028C788.038940,390.174194 791.281860,388.793701 794.392151,387.215546C807.964294,380.329285 807.916077,377.480072 806.373291,362.230591C805.775757,356.324158 803.758423,350.551392 802.269836,344.747986C800.821777,339.102631 799.522461,338.435059 793.718140,339.902130C781.944031,342.878082 770.168030,345.846863 758.386597,348.793823C756.774719,349.196991 755.107178,349.381470 753.501465,349.804291C751.394897,350.359009 749.769104,349.782257 749.031189,347.751984C746.784302,341.569061 743.023743,335.937012 743.495544,328.791840C743.743835,325.031830 744.797607,322.717987 747.995056,320.729919C762.145386,311.931885 776.214722,302.995392 789.419678,292.791077C791.526978,291.162628 793.666138,289.533569 795.543396,287.657471C800.280762,282.922943 799.617432,277.489532 793.914429,273.885773C788.931458,270.737061 783.406433,268.821838 777.725159,267.457825C770.282654,265.670929 762.848083,263.462524 755.282043,262.691010C748.039673,261.952454 744.230835,258.091156 739.930115,252.722275C730.641663,241.126740 726.904907,228.689819 728.656982,213.949707C729.891541,203.562592 729.750305,192.933105 732.562012,182.826645C735.482117,172.330276 734.116821,162.081558 732.709106,151.707855C729.714478,129.639572 727.885132,107.394798 722.709106,85.656807C722.323669,84.037918 722.249695,82.250343 721.490112,80.830513C716.871521,72.197441 719.910156,64.674820 723.383972,56.370850C727.701538,46.049999 732.253967,39.069107 745.359009,39.980671C756.694702,40.769161 768.220642,38.387177 779.683411,37.866032C814.783325,36.270229 849.887695,33.414696 885.027405,34.928539C902.507751,35.681606 919.685547,39.509678 934.976685,48.967751C942.032104,53.331715 944.948425,59.223469 943.592957,67.920547C938.668762,99.515831 932.745972,130.888062 923.097351,161.405243C915.236511,186.267899 905.666016,210.405975 888.443726,230.642532C876.862549,244.250656 862.767883,253.171097 844.461792,254.346176C838.460144,254.731415 836.296143,257.172089 836.226440,263.244659C836.184326,266.910797 836.308899,270.581329 836.174377,274.243134C836.061584,277.316071 837.075989,279.188629 840.427551,278.737579C859.775146,276.133667 877.067383,283.457672 894.604370,289.766846C906.084167,293.896912 906.131836,293.764618 906.141296,305.799957C906.152710,320.329895 906.152649,320.329102 891.796631,320.329590C879.130249,320.330017 866.462402,320.437592 853.798279,320.270691C849.937317,320.219788 847.568115,321.635956 845.952087,325.088409C843.664795,329.975067 842.045776,334.868256 842.240967,340.423126C842.533508,348.746063 842.305054,357.086792 842.327942,365.419922C842.345825,371.932861 844.642578,374.615845 851.263000,374.541565C862.583374,374.414581 873.908936,373.994324 885.213257,373.358856C903.158997,372.350067 921.078979,370.336334 939.028564,370.084717C959.572327,369.796692 979.467041,373.486084 997.200623,384.978607C1007.483582,391.642639 1015.497192,400.438080 1021.572876,410.957886C1025.420166,417.619232 1020.184326,427.445831 1010.829468,431.197449M832.059875,91.648422C833.320496,106.516953 841.629822,116.566986 856.248840,120.446228C863.319336,122.322418 870.517639,123.881607 877.898010,123.623230C881.984253,123.480179 883.157349,125.208565 882.796082,129.032349C882.452759,132.665802 882.539612,136.343674 882.512573,140.002579C882.421692,152.307266 882.434509,152.307373 870.177124,153.341385C852.007751,154.874130 840.602173,163.742462 836.899475,179.806656C835.399475,186.314270 835.835144,193.098526 836.533936,199.696640C837.024048,204.324463 839.903259,207.052551 845.123230,206.751129C849.772156,206.482697 854.453247,206.549210 859.111145,206.717316C864.526001,206.912750 868.370605,204.426437 871.199890,200.109955C874.495361,195.082214 877.176208,189.723404 879.323730,184.105530C886.829163,164.471161 891.927124,144.150879 896.690796,123.721680C900.308105,108.208992 903.553162,92.632423 906.347290,76.882111C902.679626,74.739571 898.962952,74.208694 895.090942,74.212250C878.433289,74.227547 861.775574,74.206184 845.117920,74.212875C832.476257,74.217949 830.241638,76.709465 831.526794,89.326614C831.576904,89.818977 831.752136,90.298599 832.059875,91.648422M778.344604,74.616920C774.053772,75.299171 769.942322,76.538986 765.977173,78.340935C760.068542,81.026009 757.115173,85.300598 757.241272,92.023811C757.344482,97.525993 757.663330,103.005836 758.389954,108.420479C759.849854,119.299789 764.285889,128.779007 772.832947,136.020416C774.092834,137.087875 775.325134,138.119446 777.155396,138.267807C785.662231,138.957291 794.066528,134.083969 796.867249,125.934792C800.411072,115.623283 798.379700,104.901543 798.229065,94.339134C798.218262,93.582932 797.683044,92.752052 797.199951,92.097427C792.143738,85.245949 786.370361,79.126831 778.344604,74.616920M769.982727,180.256516C764.472656,185.084412 760.998291,190.661148 761.920349,198.494568C762.460999,203.087784 761.932922,207.797455 762.071106,212.449219C762.401611,223.573715 772.213623,230.294525 782.892944,226.807907C786.209534,225.725067 789.491028,224.472427 792.878723,223.685364C797.081604,222.708923 798.929382,220.652863 798.743835,216.051880C798.389160,207.253448 798.641602,198.430679 798.635498,189.618011C798.627563,178.295425 798.620972,178.122131 787.269409,178.375931C781.711975,178.500168 775.946777,176.940079 769.982727,180.256516M592.655640,278.999817C592.652222,270.170044 592.562683,261.838989 592.685120,253.511032C592.741211,249.697403 591.215576,247.726471 587.360718,248.252136C571.824524,250.370743 558.516846,243.074890 544.595398,238.316803C542.248718,237.514755 541.655334,235.968338 541.672485,233.748474C541.720154,227.584854 541.781189,221.418304 541.638489,215.257507C541.567444,212.189896 542.603516,210.961777 545.820251,210.518890C559.977661,208.569733 574.251892,207.351395 588.182373,203.896896C603.021179,200.217178 603.035522,200.280258 603.024109,184.990646C603.019348,178.660019 602.413635,172.254395 603.166809,166.013901C604.898254,151.667953 590.397583,139.105453 577.767273,138.475082C572.512817,138.212830 571.313049,136.241577 571.552734,131.494217C571.888245,124.847466 571.763611,118.167061 571.571960,111.508652C571.480652,108.337883 572.493530,106.597916 575.682312,105.827011C599.765625,100.004639 623.833984,94.133087 648.319153,90.165306C653.546692,89.318184 658.597656,90.531548 663.724731,90.935913C668.035522,91.275887 672.348694,91.633392 676.667908,91.803902C679.472839,91.914635 680.844177,93.000984 681.122864,95.947227C681.821350,103.330864 680.715759,109.062355 673.168884,113.327209C663.059143,119.040398 653.875854,126.381508 644.207031,132.893326C641.448792,134.750961 640.248901,136.937866 640.266663,140.334229C640.316528,149.854446 640.650818,159.344894 643.399841,168.510956C645.695068,176.164001 650.179382,181.817551 658.798279,182.922424C660.798096,183.178787 662.578491,184.061127 664.281677,185.196472C669.933899,188.964371 676.215515,191.146210 682.962585,191.567673C686.188171,191.769165 687.542480,192.964890 687.263977,196.108200C687.249329,196.273224 687.264893,196.441223 687.270325,196.607697C687.682373,209.209473 687.640808,209.137360 676.757019,215.421722C663.593994,223.022156 650.830933,231.143616 641.253662,243.346771C635.520203,250.652237 632.002380,258.659393 632.218689,268.132416C632.367004,274.626404 632.509766,281.139038 632.179871,287.619141C631.946533,292.202942 633.541809,293.657928 638.120239,293.738983C655.625549,294.048767 673.059509,292.932098 690.509521,291.904602C692.868408,291.765686 696.371765,290.060028 697.483643,293.642212C698.643311,297.378540 698.120178,300.698059 694.431824,303.736176C667.111816,326.239746 638.511108,346.843536 607.206299,363.488068C586.982605,374.240906 565.804077,382.566956 543.380615,387.535736C542.893738,387.643646 542.426819,387.844940 541.938721,387.943481C533.386780,389.670074 531.432373,388.802582 527.310364,381.139282C525.828796,378.384888 523.723511,375.913239 523.089844,372.334229C530.380554,367.837677 537.785767,363.415344 545.042664,358.761780C556.726990,351.269135 567.458496,342.581146 576.728333,332.214600C587.071716,320.647491 593.471191,307.481415 592.682800,291.492920C592.486084,287.504486 592.655212,283.497955 592.655640,278.999817M384.353821,380.665649C370.932159,368.663727 357.616028,357.076843 344.978546,344.731812C341.262604,341.101868 339.012756,337.349396 339.687256,332.028595C339.978180,329.733551 339.732574,327.370514 339.730835,325.038361C339.724548,316.493683 343.019135,314.267853 351.024963,317.980255C360.238159,322.252502 369.338226,326.791687 378.327026,331.519867C394.547638,340.052032 410.475800,349.080017 425.052490,360.309753C428.928741,363.296021 432.118652,366.876617 435.162842,370.628632C439.252808,375.669556 439.250702,381.661255 439.143890,387.723816C438.878204,402.798676 441.065674,400.100830 425.910156,401.314697C412.850128,402.360748 402.634399,398.654205 393.998627,389.137299C391.220123,386.075317 387.768402,383.624176 384.353821,380.665649M101.750069,395.166443C101.368301,391.230804 102.473625,388.302521 104.305634,385.322540C115.568382,367.002472 126.178947,348.356293 130.981079,327.069397C131.476151,324.874847 132.523392,323.556732 135.032410,323.573395C143.854630,323.631927 152.677750,323.600800 161.500214,323.548798C163.656525,323.536041 164.979950,324.289154 165.273026,326.571655C165.441528,327.883820 165.665176,329.229340 166.134796,330.456207C172.090210,346.014435 165.787643,358.996887 157.341507,371.375916C147.831635,385.314087 136.365891,397.604553 124.378700,409.427399C122.826431,410.958405 121.202377,411.569550 119.045471,411.501862C114.721840,411.366241 110.381821,411.281250 106.066292,411.509857C102.703667,411.688049 101.619736,410.270660 101.732025,407.124817C101.868515,403.301117 101.756210,399.468506 101.750069,395.166443M198.616974,215.747192C193.620300,201.776932 194.871765,195.399216 206.231369,188.842087C217.890350,182.112137 230.781158,178.613785 243.819031,175.867340C260.068390,172.444382 276.410278,169.528931 292.876221,167.198593C300.417938,166.131241 306.548676,167.656387 312.460999,171.900665C315.582642,174.141617 318.627594,176.444351 321.099060,179.411865C324.999634,184.095245 324.866913,188.363052 320.558197,192.651993C317.187195,196.007492 312.972809,198.026871 308.562897,199.619232C289.967773,206.333694 270.579376,209.236221 251.052460,211.355240C235.867981,213.003006 220.658096,214.419357 205.453705,215.877960C203.319916,216.082657 201.152969,215.941650 198.616974,215.747192z"/>
</svg>