<svg viewBox="0 0 2342 582" x="0px" y="0px" xmlns="http://www.w3.org/2000/svg">
	<path stroke="none" d="M73.518333,268.477936C83.077339,263.125092 92.951103,259.950867 103.525276,259.354706C104.385345,252.765686 103.803696,247.307068 99.730453,241.759888C95.116089,235.475754 92.125557,227.999252 87.384674,219.075455C75.358047,219.962204 61.100044,220.501099 46.992031,222.249969C38.806370,223.264694 30.997551,224.461609 23.215641,220.756958C21.499500,219.939941 19.396748,219.935028 17.113211,219.485535C17.113211,214.555420 16.623968,209.528931 17.243750,204.643097C17.934456,199.198181 22.214420,195.727112 26.892536,194.047470C39.979538,189.348724 53.243202,185.107147 66.566879,181.118515C72.406410,179.370377 78.561317,178.675720 84.772919,177.463699C84.772919,170.872711 84.772919,164.423813 84.772919,157.596481C83.483429,157.020294 82.036865,156.373932 80.466042,155.672058C80.697121,139.350204 89.277885,127.781418 101.563309,118.463997C117.746353,106.190575 136.586319,99.689659 155.815842,94.128403C157.087433,93.760658 158.361786,93.402466 160.012192,92.932343C160.012192,86.423805 160.012177,79.969238 160.012192,73.514664C160.012207,59.182060 159.999329,44.849438 160.017731,30.516857C160.026962,23.330101 162.854553,18.781418 168.520355,16.704082C175.468063,14.156741 182.675308,15.321246 186.421799,21.051750C191.481583,28.791058 195.632095,37.141491 199.916580,45.363194C201.748795,48.879128 202.804260,52.790707 204.441513,56.419247C207.924591,64.138504 210.112488,71.513832 205.409653,79.930473C203.537598,83.280914 204.671158,88.310745 204.374573,93.699814C224.801300,95.101967 244.663803,96.915314 264.564789,97.585365C271.452179,97.817261 276.219635,100.012131 279.473389,105.458656C286.793091,117.711243 294.095093,129.997223 300.743652,142.617645C303.764008,148.350922 306.896362,153.010269 313.033295,155.979675C320.701904,159.690201 326.444580,165.705139 328.733246,174.866379C325.595154,176.541855 322.377655,178.186539 319.228668,179.953293C302.399872,189.395081 288.257965,201.533691 281.886078,220.405365C279.421539,227.704590 278.693420,235.603134 277.391907,243.265610C277.228241,244.229248 278.237915,245.545975 278.980865,246.478470C280.636017,248.555786 282.261963,250.732147 284.261993,252.445343C291.611908,258.741333 290.662262,265.335052 286.796906,273.428223C277.719574,292.434021 267.076233,310.035736 249.783218,322.773010C236.123795,332.833954 220.675629,337.950317 203.861542,338.904755C189.575424,339.715729 176.250031,354.533234 177.008850,370.433716C183.879944,368.734589 190.720993,367.587189 197.165634,365.315308C205.759598,362.285767 213.994202,358.249542 222.504654,354.960052C224.320099,354.258362 226.847534,354.365387 228.721329,355.024933C237.304520,358.046143 245.745087,361.470093 254.299210,364.577820C256.538605,365.391449 258.457794,365.145630 260.144348,362.569366C288.361908,319.466492 312.598755,274.360901 329.523590,225.551529C340.242828,194.638489 347.524933,162.936752 350.675171,130.352585C351.539703,121.410461 351.428986,112.376877 352.154663,103.416756C352.374359,100.704353 354.033997,98.135651 354.802216,95.435173C356.612610,89.071098 358.838806,82.756966 359.887726,76.259735C361.715698,64.936966 362.783295,53.491451 364.175110,42.098064C373.949799,39.162216 381.140839,43.883663 387.618927,50.231838C394.071259,56.554726 398.404724,64.231552 399.982880,73.135658C402.752228,88.760666 401.359161,104.113121 397.619843,119.579613C391.387024,145.359680 388.010315,171.614349 387.418549,198.178299C387.385559,199.658325 387.414307,201.139740 387.414307,203.198441C399.404236,199.924347 411.048126,196.764450 422.680786,193.563690C441.101776,188.495102 459.490204,183.305710 477.943237,178.356873C486.331757,176.107178 494.074463,176.757416 499.870422,184.497253C502.659973,188.222412 505.704803,191.794586 508.948547,195.130188C511.934662,198.200882 511.637604,201.254868 509.898254,204.620895C505.126312,213.855835 496.652771,219.037033 487.994904,223.605087C478.615143,228.553986 468.776825,232.649231 459.048889,236.912354C456.524811,238.018509 455.102936,239.050888 455.068726,242.200333C454.482880,296.142609 440.218872,346.916016 419.147064,396.090424C418.100891,398.531860 416.714294,400.905945 416.172272,403.457184C415.813660,405.145142 416.052185,407.635101 417.093262,408.846741C443.900452,440.045227 475.035339,465.142761 515.081421,477.441467C529.318665,481.813873 543.861572,484.232880 558.801758,484.467743C561.227173,484.505859 564.171448,485.997040 565.926514,487.761139C571.206299,493.067902 576.002930,498.854004 581.015259,504.428558C585.085022,508.954834 584.912720,512.629944 582.392822,518.345947C579.313416,525.331116 574.996155,526.965088 567.382996,526.450623C530.011841,523.925354 496.074219,511.309723 463.954407,492.924835C440.180267,479.316895 418.404633,462.906403 397.673706,445.065491C392.721008,440.803223 386.638824,440.820587 381.720551,445.186340C360.653870,463.886230 339.094269,481.940765 314.526886,495.998199C301.751862,503.308075 288.502075,509.363556 272.679596,510.352570C275.193604,516.764404 277.508728,523.020447 280.110168,529.154968C281.398895,532.193970 281.702850,534.801941 280.396515,538.082703C278.638641,542.497559 277.874329,547.308044 276.441986,552.890259C271.172729,551.051819 265.725952,549.654358 260.714874,547.321106C229.408768,532.744446 198.176636,518.007812 166.993729,503.169189C163.730576,501.616394 161.210358,501.452301 157.889496,503.141632C128.437057,518.124207 99.060852,533.296753 67.811516,544.358276C66.403725,544.856689 65.016502,545.533142 63.562668,545.757996C59.736679,546.349731 53.969131,548.522156 52.411819,546.854858C48.569843,542.741577 44.597965,537.867065 44.976593,531.137878C45.158417,527.906433 46.008003,526.204773 48.910202,524.594849C69.707947,513.057495 90.482742,501.431976 108.852615,486.127594C113.674820,482.110107 118.028496,477.530243 122.744736,473.069183C115.723503,462.361847 109.156616,452.183838 98.382347,445.693481C92.807388,442.335205 86.916679,441.414673 80.677528,443.413788C66.136543,448.073059 51.635410,452.860138 37.044308,457.355804C34.921097,458.010040 32.197826,457.906372 30.092421,457.174591C26.036690,455.764923 22.192808,453.719574 18.316708,451.824097C6.626173,446.107056 -0.211782,437.739868 3.732172,423.575470C20.212868,418.156677 37.422356,413.148132 54.138031,406.832581C73.677277,399.450226 92.797432,390.955566 112.064766,382.861023C114.189751,381.968231 116.025169,380.409576 118.101891,379.374420C125.985062,375.444855 129.187988,369.388824 126.885811,361.522095C119.186066,359.378143 111.473564,358.016998 104.403114,355.099762C89.229721,348.839325 79.645164,336.388458 73.430519,321.987762C67.808228,308.959717 64.269600,295.019623 60.118996,281.388306C59.685417,279.964325 60.834080,277.300293 62.106045,276.261139C65.563690,273.436371 69.481781,271.175232 73.518333,268.477936M327.311249,372.173889C325.509552,370.696289 323.801758,369.081970 321.887665,367.768097C317.128113,364.501068 313.492188,358.541962 306.506866,360.254395C302.289185,361.288330 297.819458,362.491791 294.292419,364.856262C289.361420,368.161987 284.739594,372.209442 280.791687,376.655396C255.820572,404.776703 231.043304,433.070496 206.283585,461.378693C202.894257,465.253754 203.777573,473.976501 208.105988,477.020966C219.916428,485.328094 231.969940,493.289642 243.805328,501.305573C267.296387,487.307159 289.524292,472.773041 309.546051,455.103241C325.095917,441.379974 338.926178,426.269806 349.325073,408.085602C352.551392,402.443817 352.284729,397.948547 348.370178,393.671082C341.760956,386.449036 334.707764,379.633301 327.311249,372.173889M402.861084,306.196930C405.029083,287.569763 406.466705,268.909851 405.893616,250.157074C382.280121,249.218231 379.637970,250.244492 368.141113,264.610168C367.725311,265.129669 367.298798,265.647369 366.944763,266.208466C355.245941,284.746643 343.570251,303.299438 331.857056,321.828522C326.600250,330.144226 327.223633,339.854767 336.472809,346.152039C347.328186,353.542877 358.068329,361.105835 369.032532,368.329865C370.222992,369.114288 372.878845,368.710724 374.320190,367.903412C381.507141,363.877838 386.366547,357.627930 390.197296,350.444122C397.440216,336.861359 400.192383,322.002045 402.861084,306.196930M138.855927,420.645691C132.512207,430.633270 137.492752,440.989655 149.086166,441.989197C156.377594,442.617798 161.564697,438.046844 167.017334,434.504517C176.248550,428.507477 178.140900,423.071594 175.681793,411.805878C173.425797,411.910767 171.098190,411.859589 168.814743,412.152527C158.656357,413.455750 148.209167,413.746887 138.855927,420.645691M209.766418,151.847946C212.260864,151.847946 214.755325,151.847977 217.249771,151.847946C223.901627,151.847824 230.555038,151.928101 237.204453,151.800797C239.327316,151.760147 241.604904,151.558121 243.520752,150.744705C246.997177,149.268692 247.452011,145.274887 244.439743,142.952744C240.967468,140.275986 237.170563,135.747559 233.636612,135.859924C223.959732,136.167587 214.346878,138.488541 204.810455,139.996292C204.810455,144.098450 204.810455,147.720657 204.810455,151.639832C206.284805,151.716064 207.559982,151.781998 209.766418,151.847946M127.907524,314.453796C136.090714,311.085144 145.220001,308.707581 146.331314,295.801117C135.990311,297.238922 126.332161,298.299652 116.785301,299.989166C107.381805,301.653320 107.057739,302.511597 108.888786,312.123260C109.767273,316.734680 112.565285,318.693512 117.135239,317.624817C120.523880,316.832367 123.842941,315.742371 127.907524,314.453796M227.832687,281.242126C226.820847,277.044952 223.817932,275.523773 219.964035,276.218903C213.326324,277.416077 206.767593,279.051117 199.925919,280.557373C199.925919,284.791199 199.925919,288.760284 199.925919,292.729401C199.925919,294.015076 199.925919,295.300781 199.925919,297.004272C204.736145,297.004272 209.179565,297.004272 213.623001,297.004272C228.044373,297.004272 228.288956,296.749359 227.832687,281.242126M209.207352,199.958878C208.651733,202.696701 209.820221,203.649597 212.442337,203.061539C219.170944,201.552505 225.897446,200.034103 232.510345,198.545197C232.510345,195.973053 232.510345,193.907333 232.510345,191.438766C228.092133,191.438766 223.970703,191.418549 219.849548,191.443558C213.793167,191.480286 211.499298,193.169800 209.207352,199.958878M132.162567,156.182968C132.162567,157.736832 132.162567,159.290680 132.162567,160.999725C137.530960,160.999725 142.490158,161.093216 147.444366,160.975937C153.569183,160.830978 155.325333,158.681396 154.855682,151.939056C149.281128,151.939056 143.658310,151.646011 138.096161,152.098663C136.160431,152.256195 134.374725,154.257370 132.162567,156.182968M145.280258,212.557281C154.314911,212.232239 156.240143,210.287964 154.575104,203.468964C148.648102,203.468964 142.783661,203.468964 136.850739,203.468964C136.850739,206.564041 136.850739,209.315842 136.850739,212.557266C139.511002,212.557266 141.950455,212.557266 145.280258,212.557281M988.490234,559.520142C986.055786,560.197083 983.706665,561.455261 981.796997,560.973145C966.848450,557.199402 951.977539,553.116333 937.103821,549.051270C935.525208,548.619812 934.069275,547.718140 932.579163,546.988098C921.575928,541.596680 914.387756,533.975830 917.446655,520.706970C920.654358,519.243958 924.044373,517.697815 928.984985,515.444458C934.920715,516.431519 942.782288,517.809204 950.667786,519.032349C960.774231,520.600037 969.532043,516.347168 973.613708,506.808289C975.916626,501.426422 977.492920,495.365326 977.732910,489.541656C978.329346,475.066376 978.030457,460.551422 977.931213,446.053467C977.916931,443.970520 977.603027,441.429626 976.401917,439.913269C974.096252,437.002533 971.391296,437.183624 968.323303,439.812561C949.481384,455.958038 930.962280,472.538391 911.376831,487.738586C896.982605,498.909912 881.316528,508.503784 865.812439,518.150024C860.475281,521.470703 853.914612,522.824890 847.638123,525.180481C845.885864,519.053284 847.019470,514.635376 850.291504,510.718170C863.100159,495.383759 875.774048,479.932465 888.817932,464.800323C898.714783,453.319000 909.111389,442.269012 919.241638,430.987579C920.368591,429.732605 921.207031,428.218597 922.179260,426.824677C921.845459,426.421906 921.511719,426.019135 921.177917,425.616364C919.430542,426.550140 917.574463,427.326050 915.952759,428.442383C901.145813,438.634918 886.246216,448.647247 868.896729,454.179840C866.844604,454.834259 864.763123,455.475555 862.645996,455.823975C860.694702,456.145142 858.677124,456.063782 856.537659,456.167053C855.241211,451.015778 856.125732,446.396210 859.241333,442.422882C868.581970,430.510651 877.943115,418.608887 887.589172,406.945190C890.328369,403.632904 892.116760,400.532776 890.558228,395.195221C886.773499,396.645233 882.760681,397.602081 879.350159,399.591431C865.793762,407.498962 855.102600,418.769409 844.720459,430.284607C814.773254,463.500183 788.964050,499.899689 763.389893,536.471619C758.241638,543.833740 753.047119,551.170227 748.155701,558.701538C746.409485,561.390198 744.453613,562.460632 741.583740,561.399963C733.378906,558.367371 724.627625,556.227173 717.158875,551.895264C690.783203,536.597107 669.723145,514.893066 649.110107,492.851410C647.211731,490.821472 647.689148,486.569824 646.793457,481.960815C651.746094,484.615845 655.181946,486.511993 658.665466,488.316040C676.950562,497.785553 695.246704,507.233459 713.543518,516.680298C714.428223,517.137085 715.388062,517.452881 716.256287,517.936096C720.537354,520.318604 723.237488,519.426758 725.541016,514.778809C729.302979,507.187805 731.904297,499.394623 731.916016,490.919189C731.971069,451.088470 731.932739,411.257568 731.918213,371.426758C731.918091,371.114288 731.785828,370.801910 731.631226,370.117310C725.659546,369.665833 720.145569,369.452454 714.438965,373.369019C696.493896,385.685303 678.392639,397.926025 658.036987,406.040314C652.775391,408.137787 646.822144,408.996063 641.117920,409.366699C633.225769,409.879486 622.349731,398.889984 621.772156,390.965668C621.512817,387.408478 622.669067,385.441406 625.794250,383.434967C652.373291,366.370728 678.887878,349.200439 705.171448,331.686096C711.354919,327.565674 716.687134,322.128784 722.226074,317.094116C725.816162,313.830902 727.576477,309.773346 727.226318,304.640503C726.830139,298.834534 726.854431,292.962891 727.224182,287.153442C727.516846,282.555847 726.239746,280.079681 720.295837,280.814514C721.797485,277.584991 722.811707,274.885620 724.239136,272.426025C729.498901,263.362915 726.841370,253.599228 726.633118,244.134735C726.548035,240.266373 722.637817,238.783798 719.158813,239.008087C709.546814,239.627701 699.851868,240.042038 690.396118,241.708679C680.200134,243.505783 670.953552,242.141937 662.175110,236.930069C660.185791,235.748962 658.127258,234.500717 656.541138,232.857925C651.448425,227.583038 649.708069,222.759399 657.790527,219.412079C673.726013,212.812531 689.728882,206.363785 705.830322,200.181976C714.191162,196.971985 722.821655,194.464615 731.946045,191.435455C731.946045,189.852829 731.946045,188.079025 731.946045,186.305222C731.946106,149.974060 731.854065,113.642326 732.077271,77.312531C732.101746,73.330063 733.306458,69.047752 735.078064,65.453873C737.857910,59.814846 744.280334,58.431801 748.858276,62.708992C752.516724,66.127182 755.995117,70.450203 757.750183,75.058403C762.762146,88.217758 767.047791,101.668541 771.150146,115.147446C771.995728,117.925774 771.030640,121.359222 770.523499,124.428513C767.142395,144.891678 766.560791,165.492844 767.205383,186.892120C787.482483,186.430283 807.736633,186.305710 827.746094,191.926971C827.746094,200.081253 827.746094,208.503052 827.746094,216.810242C815.158997,220.235382 802.543091,223.216995 790.244324,227.182327C782.727539,229.605865 775.584778,233.315567 768.490662,236.878891C763.978516,239.145340 762.134277,243.202713 762.232910,248.456161C762.461060,260.617828 762.275330,272.786774 762.318054,284.952606C762.340637,291.375763 763.906067,293.607666 770.218628,295.232239C774.373840,296.301636 778.695862,296.722656 783.513733,297.529572C763.400330,351.859894 767.310852,408.615265 767.131714,464.969269C767.124146,467.347839 768.434631,469.730591 769.302429,472.696777C779.303162,465.865662 787.681702,457.896729 794.973450,448.786530C812.943848,426.334686 822.772217,400.203766 828.919067,372.501007C834.933594,345.394501 837.072815,317.874176 837.322021,290.157074C837.341064,288.043182 839.127686,285.998383 839.775574,283.826874C841.607117,277.687714 844.150574,271.597931 844.857422,265.313660C848.412292,233.710358 846.444092,202.078522 844.451172,170.470840C843.769836,159.663925 842.847900,148.871140 842.288513,138.058838C842.213684,136.613037 843.625366,135.087494 844.365540,133.607330C844.432007,133.474396 844.636780,133.417603 844.755798,133.302994C853.147766,125.225174 862.954468,122.372025 874.677979,123.284515C886.604980,124.212860 898.688538,123.997353 910.651550,123.338470C921.353088,122.749069 931.983887,120.873413 942.839905,119.541466C937.142090,80.606102 930.538879,42.901306 931.044617,4.016922C935.876282,4.016922 940.399963,3.540334 944.751770,4.199207C947.281738,4.582253 950.218506,6.256589 951.785156,8.272425C956.359924,14.159101 960.460205,20.431292 964.483093,26.720858C965.855957,28.867252 967.140625,29.895456 969.850464,30.119385C986.268433,31.476118 1002.700684,32.959301 1018.256104,39.010159C1021.183167,40.148746 1024.041992,41.544876 1026.762573,43.115990C1033.519287,47.018044 1037.090332,52.775246 1036.693848,60.793476C1036.521729,64.276489 1036.664917,67.775093 1036.664917,71.947845C1028.356323,69.909279 1020.481812,67.391106 1012.411011,66.170128C1005.074951,65.060280 997.508850,64.964218 990.079895,65.274696C987.768433,65.371307 985.045044,67.846161 983.433044,69.942062C979.887024,74.552551 977.061401,79.538437 977.905518,85.922791C978.425293,89.853836 978.179871,93.919586 977.955688,97.906738C977.690491,102.622452 979.745117,106.068466 983.568481,108.302582C990.723450,112.483498 998.312683,115.271004 1006.830566,113.501999C1017.573425,111.270905 1028.453735,109.512787 1038.995728,106.555801C1049.580078,103.586967 1059.973999,102.219009 1070.932495,103.884491C1083.945068,105.862152 1096.949707,107.657623 1109.055908,113.180359C1119.831055,118.095879 1123.790649,124.122353 1123.131958,134.768860C1123.039307,136.267975 1121.987305,138.240707 1120.757324,139.057999C1095.127075,156.088181 1069.484131,173.102982 1043.600342,189.742493C1040.598633,191.672180 1036.163818,191.372513 1032.001953,192.182648C1032.014526,177.602051 1037.337769,166.255814 1044.980469,155.618256C1047.001831,152.804764 1047.854614,149.151718 1049.818481,144.533112C1020.817749,146.183487 993.411316,141.506104 966.420410,149.555161C966.420410,156.223236 966.420410,163.008667 966.420410,170.182724C983.436707,166.455551 999.642639,158.616806 1017.579041,161.400818C1018.826416,165.762299 1017.071594,168.603256 1013.947449,171.763260C1004.017578,181.807129 993.240906,191.409317 985.269165,202.900970C973.286987,220.173660 975.568665,220.159088 993.632202,227.328369C998.670532,229.328033 1003.730896,228.924454 1009.169189,227.328049C1026.207520,222.326477 1043.381592,217.728271 1060.652832,213.600876C1071.124268,211.098465 1071.250122,211.618698 1076.585938,220.790878C1079.343750,225.531662 1081.733032,230.541031 1084.952148,234.944122C1088.199951,239.386398 1087.857910,243.695831 1086.582275,248.527679C1079.429688,275.623199 1060.528931,290.424988 1034.550781,296.660248C1022.028320,299.665863 1008.889038,300.077759 996.047791,301.803558C994.047852,302.072327 991.997925,302.818604 990.228943,303.806030C983.168152,307.747284 976.209290,311.871002 969.095337,315.995148C982.804932,336.060852 999.356018,354.439453 1006.806458,378.996674C1010.301208,378.996674 1014.569092,379.627686 1018.520569,378.781311C1021.291016,378.187897 1024.169067,376.035919 1026.069702,373.792542C1035.107544,363.125275 1044.004517,352.326874 1052.607666,341.306580C1060.696289,330.945312 1068.525513,320.368835 1076.111084,309.634308C1078.788696,305.845245 1081.382690,305.937195 1084.204712,308.518219C1087.250000,311.303253 1090.201416,314.344940 1092.518311,317.736176C1096.065552,322.928070 1099.033936,328.515411 1102.310181,334.039581C1093.559082,341.988403 1084.675659,349.288269 1076.715454,357.484863C1066.995850,367.493134 1057.857056,378.091187 1048.886475,388.786041C1046.080322,392.131775 1044.508301,396.557983 1042.596313,400.596161C1040.679565,404.644073 1041.518311,407.616669 1045.282715,410.807190C1074.961670,435.961273 1107.684326,456.133392 1143.658325,470.818146C1159.313354,477.208588 1175.546997,482.172882 1191.441772,487.992676C1194.276611,489.030579 1197.043823,490.742737 1199.306641,492.747986C1203.664795,496.609985 1207.391235,501.200714 1211.845703,504.933350C1216.081543,508.483002 1217.880615,512.511719 1217.081177,517.926514C1216.795044,519.864807 1217.035278,521.880737 1217.035278,522.860718C1204.706177,525.603271 1192.956543,528.457947 1181.089722,530.691528C1178.031982,531.267029 1174.527344,530.191101 1171.362305,529.361267C1144.700073,522.370728 1121.514404,508.514923 1099.481323,492.502289C1076.916870,476.103333 1056.155884,457.572632 1036.807861,437.538666C1031.432617,431.972931 1026.141968,428.929810 1017.912048,431.097473C1017.912048,432.439758 1017.926270,434.213196 1017.909790,435.986328C1017.688904,459.811127 1018.116516,483.665649 1017.032288,507.451202C1016.171143,526.342896 1009.070251,543.040833 994.036133,555.529785C992.382324,556.903564 990.536133,558.045715 988.490234,559.520142M914.248169,217.748077C921.415833,210.547455 928.620972,203.383377 935.710938,196.107010C936.779480,195.010376 937.890198,193.433762 937.998840,192.004471C938.970337,179.223114 936.197510,167.216522 929.779114,156.123840C929.227539,155.170486 927.400330,154.153046 926.427307,154.365173C910.059448,157.933807 893.733154,161.693253 878.152954,165.238464C879.795532,200.199982 881.400330,234.358444 883.043518,269.333313C904.861511,268.792328 927.151306,268.586761 949.398193,267.500824C957.248291,267.117676 965.164917,265.147400 972.731506,262.849243C978.689880,261.039520 979.664856,256.854401 975.663025,252.043121C972.182434,247.858505 967.859558,244.367386 963.855042,240.627411C958.428223,235.559174 952.361267,232.603592 944.550903,233.725403C940.307800,234.334854 935.866455,234.204895 931.582886,233.755829C923.041931,232.860443 915.761169,235.063370 908.952454,240.389191C906.328918,242.441422 902.289124,242.683167 898.800110,243.779526C897.327637,236.936859 898.501953,232.507996 903.114014,228.796799C906.983459,225.683212 910.235840,221.802734 914.248169,217.748077M893.799377,297.733978C892.090942,296.414886 890.160461,295.300232 888.719177,293.735107C885.497864,290.236969 881.812805,289.094727 877.248901,290.424194C876.479797,300.911896 875.737976,311.169647 874.972534,321.425629C874.196411,331.824310 873.396912,342.221252 872.613281,352.544769C881.117371,354.921448 887.584961,351.900238 893.740784,346.680756C906.255371,336.069733 913.048706,323.101349 912.180176,308.075500C905.512146,304.335785 899.961304,301.222656 893.799377,297.733978M956.967773,362.415070C956.967773,357.945984 956.967773,353.476929 956.967773,348.834808C951.278625,348.834808 945.905884,348.834808 940.422241,348.834808C939.883850,352.790680 939.369995,356.398804 938.906433,360.013367C938.254028,365.099854 941.651550,369.430878 946.831726,369.807648C950.085571,370.044312 953.370789,369.851746 956.967773,369.851746C956.967773,367.317230 956.967773,365.351288 956.967773,362.415070M1947.077881,353.087830C1947.479614,345.966400 1947.863892,339.323792 1948.239136,332.835052C1943.851440,329.485016 1940.408569,330.117737 1936.178589,333.265656C1914.150146,349.659668 1891.795288,365.614777 1869.724487,381.952911C1865.755371,384.891022 1861.901367,386.532959 1856.949341,386.071228C1853.190430,385.720734 1849.372437,386.001709 1845.692871,386.001709C1844.078491,378.620483 1845.740479,373.445312 1851.318848,368.153290C1876.347046,344.410858 1900.616821,319.876404 1921.557129,292.334656C1930.123047,281.068268 1938.259888,269.449249 1942.239624,255.564468C1944.407227,248.002670 1945.167969,240.488144 1940.075562,233.686371C1939.312012,232.666443 1937.472778,231.605957 1936.368652,231.815536C1922.827271,234.385895 1909.293457,237.026367 1895.848633,240.052780C1892.658936,240.770782 1889.805908,242.985077 1885.823486,245.005554C1872.949097,238.424408 1856.339966,234.892181 1849.333618,217.682495C1877.599854,209.995743 1905.035156,202.594086 1932.430176,195.046616C1939.962769,192.971359 1947.427002,190.607208 1954.795288,188.014023C1956.125122,187.546005 1957.695557,185.319275 1957.703369,183.896637C1957.866699,153.734329 1958.325928,123.559273 1957.630371,93.412003C1957.208496,75.124664 1954.939819,56.879829 1953.494873,38.616383C1953.339233,36.649399 1953.142700,34.685673 1952.976196,32.843681C1961.731812,30.107708 1968.320679,33.873539 1974.684448,38.773632C1990.915161,51.271240 1999.960205,66.984825 2000.343628,88.162239C2000.874268,117.470825 2002.878540,146.752792 2004.260620,176.045731C2004.307373,177.037735 2004.449097,178.025253 2004.605591,179.613266C2020.995728,177.067917 2037.306274,176.753677 2053.834473,179.943878C2053.834473,186.294876 2053.974609,192.446274 2053.719971,198.581299C2053.667236,199.850189 2052.430664,201.609741 2051.260742,202.211151C2034.401978,210.877563 2017.435181,219.334076 2000.588379,228.023376C1999.209961,228.734344 1997.700317,230.737656 1997.640503,232.197433C1997.340332,239.517578 1997.380615,246.860428 1997.602173,254.186234C1997.648560,255.718613 1998.566895,257.713440 1999.751343,258.650391C2023.248779,277.235077 2046.845093,295.694702 2070.418945,314.182770C2071.846191,315.302124 2073.253418,316.446594 2075.565186,318.295288C2077.458252,314.744537 2079.624023,311.636902 2080.863037,308.195587C2086.729004,291.901978 2088.873047,274.785889 2089.734619,257.710327C2091.615479,220.446854 2092.580078,183.135239 2093.669922,145.835999C2093.823486,140.585876 2092.851318,135.243835 2091.879150,130.041779C2091.283447,126.853806 2092.145752,124.893265 2094.385986,122.704124C2105.113037,112.221436 2118.278320,105.809288 2131.932373,100.460869C2157.608154,90.403526 2184.501465,84.883904 2211.539551,79.964386C2215.874268,79.175735 2219.944580,77.034691 2224.228516,75.847328C2231.366211,73.868927 2238.500488,71.156914 2245.778320,70.596603C2253.979004,69.965225 2259.637695,75.014793 2262.970215,82.617531C2268.046631,94.197701 2266.898438,106.337120 2266.934326,119.442070C2219.198486,118.272392 2172.816650,125.229034 2126.544434,137.972153C2127.818359,149.782532 2128.890869,161.992767 2130.522705,174.127731C2131.807129,183.678986 2133.788574,193.136200 2135.446533,202.637619C2136.157471,206.712814 2138.130859,208.410568 2142.641602,207.989502C2170.991455,205.343079 2199.393311,203.233994 2227.723633,200.403427C2252.570312,197.920944 2277.315918,194.423660 2302.166260,191.985214C2313.057861,190.916473 2323.718262,193.253403 2333.471436,198.569824C2340.291016,202.287170 2342.338135,208.482529 2342.021240,215.851379C2341.741455,222.362381 2336.942383,224.850266 2332.039307,227.018738C2317.724609,233.349396 2302.392822,235.717941 2287.077637,237.939682C2273.578857,239.897934 2260.018311,241.428970 2247.131836,243.066437C2247.131836,251.544464 2247.081787,259.990906 2247.140869,268.436615C2247.355713,299.089752 2248.334717,329.758698 2247.659912,360.391571C2246.812500,398.858063 2245.171387,437.328583 2242.824463,475.733276C2241.151123,503.120575 2238.440186,530.508423 2231.077393,557.135071C2229.929932,561.285156 2228.375244,565.342834 2226.743896,569.334961C2223.082031,578.296387 2216.967041,583.007019 2205.468018,579.584778C2205.468018,573.544067 2205.754395,566.781860 2205.414307,560.051331C2204.413330,540.251709 2202.361328,520.471313 2202.198242,500.671265C2201.948730,470.360168 2202.897217,440.038361 2203.404053,409.722168C2204.275635,357.571655 2205.226562,305.422394 2205.969238,253.270096C2205.991699,251.669052 2204.431641,249.552963 2203.001953,248.507004C2195.864746,243.285477 2188.032227,242.937500 2179.421143,244.516525C2167.317871,246.735916 2155.017822,247.934235 2142.770996,249.287933C2139.222168,249.680206 2137.967285,251.216110 2137.023682,254.552902C2130.687256,276.954956 2124.653076,299.468933 2117.400635,321.579071C2106.525391,354.733246 2087.516846,383.579681 2066.655273,411.099274C2057.765625,422.826172 2047.028442,433.189026 2036.721436,443.772888C2034.743164,445.804199 2030.909302,446.579590 2027.831909,446.866608C2022.577759,447.356720 2017.244751,447.001709 2011.501587,447.001709C2011.501587,441.006683 2011.321533,435.364532 2011.614746,429.747070C2011.699097,428.130157 2013.016235,426.498108 2013.990601,425.019623C2022.769409,411.699982 2032.431152,398.872986 2040.116333,384.953278C2045.169312,375.801025 2047.479980,365.114777 2050.755127,355.029877C2051.104248,353.954559 2050.070312,351.774963 2049.020508,351.008881C2043.114014,346.698975 2037.175659,342.385773 2030.930298,338.597839C2019.422119,331.617889 2007.693115,325.001892 1995.458130,317.886566C1995.333862,319.691254 1995.204468,320.883026 1995.176758,322.077118C1994.427734,354.220886 1994.341919,386.397125 1992.753662,418.499115C1991.348389,446.905914 1989.108521,475.373138 1980.038940,502.678223C1978.322632,507.845337 1976.057861,512.961365 1973.192139,517.569824C1971.267578,520.664795 1968.074097,523.163391 1965.008545,525.296936C1962.439697,527.084900 1959.784180,526.938293 1957.318359,523.914001C1952.270752,517.723328 1946.610840,512.034424 1941.484985,505.903290C1940.157471,504.315491 1939.116333,501.816833 1939.220581,499.802521C1941.233521,460.869354 1943.448364,421.946594 1945.592773,383.020111C1946.133423,373.205109 1946.573730,363.384613 1947.077881,353.087830M1366.560547,387.546143C1382.063232,366.210388 1396.947388,344.887817 1405.010986,319.799255C1407.322388,312.607941 1408.345581,305.002594 1409.880493,297.949585C1400.695801,294.595673 1392.271240,292.318695 1384.650269,288.456207C1379.542358,285.867462 1375.161987,281.403717 1371.232910,277.073944C1368.339355,273.885284 1369.184570,270.092499 1373.608032,268.316833C1384.862549,263.799103 1395.898438,258.388367 1407.536865,255.237610C1449.578613,243.856033 1491.727905,232.816910 1534.100342,222.759109C1542.018311,220.879623 1551.308838,223.376862 1559.690674,225.153351C1576.598145,228.736771 1590.321167,237.470093 1597.826416,253.645187C1603.474731,265.818115 1605.072144,278.863831 1602.979614,292.164917C1596.206055,335.220337 1588.817017,378.165375 1577.927490,420.413086C1570.945068,447.503021 1563.317139,474.413330 1550.908569,499.642426C1544.658325,512.350464 1537.931641,524.837524 1526.545044,533.939148C1522.835449,536.904358 1515.814331,537.078186 1512.348389,534.025085C1486.981567,511.679596 1461.614746,489.333130 1436.420410,466.794037C1431.853394,462.708374 1427.851440,457.920685 1423.982544,453.138397C1412.669678,439.154816 1413.434448,438.902985 1414.423828,419.204529C1422.556152,417.927917 1429.432007,419.530548 1436.617676,424.524231C1453.808472,436.471100 1471.487549,447.833862 1489.675537,458.192963C1506.224121,467.618439 1511.500122,464.894318 1519.270508,447.176605C1528.348633,426.476959 1533.893433,404.704834 1538.807251,382.809021C1545.251099,354.095673 1550.891479,325.200134 1556.691406,296.345551C1558.007935,289.795959 1556.875854,284.071625 1551.588135,278.753052C1544.706299,271.831085 1538.153809,267.773407 1527.578003,269.751953C1508.235352,273.370544 1489.531128,278.046783 1473.425781,289.953186C1463.781738,297.082825 1456.059448,305.892242 1450.976807,316.877533C1437.938843,345.057465 1422.615234,371.866333 1403.762695,396.626404C1373.357422,436.559052 1336.457886,468.853424 1292.046265,492.416870C1291.509155,492.701813 1290.901489,492.853516 1289.835083,493.250488C1289.835083,487.368896 1289.632935,481.908081 1289.963379,476.479706C1290.057495,474.934296 1291.502686,473.305450 1292.662476,472.015228C1312.927856,449.469910 1333.320068,427.038269 1353.494507,404.412170C1358.136353,399.206238 1362.068726,393.367706 1366.560547,387.546143M1643.152710,257.896820C1622.156616,246.381744 1608.085571,227.974319 1592.712280,210.952316C1542.467163,155.318298 1492.257324,99.651962 1441.830444,44.183086C1437.880981,39.838737 1436.757080,35.633846 1437.935425,29.833048C1445.004272,29.833048 1452.126343,29.679996 1459.232178,29.952425C1460.795044,30.012341 1462.503906,31.351366 1463.801758,32.492420C1499.209106,63.620937 1534.217163,95.214806 1570.043457,125.852036C1604.340942,155.181870 1639.519409,183.479996 1674.225098,212.334579C1683.832886,220.322784 1695.711670,223.356583 1706.770752,228.276138C1730.466553,238.816986 1753.936646,249.865616 1777.492798,260.719940C1778.061523,260.981934 1778.556274,261.404419 1779.357178,261.930420C1776.608276,266.833374 1774.048950,271.656555 1771.189087,276.294403C1770.573486,277.292694 1768.900024,278.119568 1767.668091,278.186859C1731.509033,280.161316 1695.725708,278.591888 1661.272095,265.917297C1655.199463,263.683319 1649.399170,260.709442 1643.152710,257.896820M1264.814575,261.813904C1290.241333,234.636581 1312.294556,205.205795 1333.969604,175.480377C1345.910034,159.105225 1357.656860,142.588806 1369.513916,126.104042C1373.565552,130.148010 1377.843872,133.899460 1381.505737,138.178375C1389.715698,147.772079 1390.731689,160.807098 1384.942017,172.041626C1367.690186,205.517914 1342.976562,232.743088 1313.602295,255.723923C1297.654419,268.200653 1280.684082,279.414551 1263.744507,290.542938C1260.332886,292.784180 1254.979980,292.070435 1249.998169,292.795349C1249.998169,287.173706 1249.779663,282.533508 1250.120117,277.934692C1250.234741,276.386200 1251.518555,274.696594 1252.699829,273.496429C1256.551025,269.583435 1260.601440,265.866547 1264.814575,261.813904z"/>
</svg>