<svg id="BG" viewBox="0 0 2878 1618" x="0px" y="0px" stroke="none" version="1.1" xmlns="http://www.w3.org/2000/svg" xmlns:xlink="http://www.w3.org/1999/xlink" xml:space="preserve">
	<g>
		<g>
			<path fill="#C0DDDE" d="M1848.045288,1494.208130C1863.934082,1493.584229 1879.774658,1494.609009 1895.621826,1490.698364C1924.128906,1483.663452 1945.934570,1467.596924 1963.620728,1444.859985C1977.182129,1427.425903 1986.663330,1407.558228 1997.700806,1388.620605C2011.762085,1364.494629 2025.149536,1339.851440 2043.230103,1318.447388C2059.295654,1299.428467 2078.698486,1284.485596 2102.385498,1275.563965C2124.068359,1267.397339 2145.427490,1268.386719 2166.398682,1277.387573C2177.674072,1282.227051 2188.541260,1288.051636 2199.447021,1293.712158C2222.234375,1305.540161 2246.182373,1313.451172 2272.056641,1311.697021C2294.680176,1310.163330 2316.385498,1304.084351 2337.147217,1294.537842C2370.281982,1279.302002 2399.833984,1258.212402 2430.325195,1238.629150C2457.019775,1221.484497 2484.661377,1206.172363 2515.956787,1199.159058C2541.162109,1193.510254 2566.197754,1193.385986 2589.718994,1206.053467C2595.185791,1208.997681 2599.802490,1213.519409 2605.697266,1218.221924C2618.475586,1232.287354 2623.559326,1248.063232 2623.897217,1265.466919C2624.210449,1281.592896 2619.934326,1296.950928 2613.976318,1311.673584C2607.769775,1327.009399 2600.389160,1341.869507 2593.542969,1356.947144C2584.734863,1376.346313 2577.523926,1396.156738 2577.093750,1417.945801C2563.371338,1416.475220 2551.557373,1419.708374 2541.075928,1426.783203C2533.124756,1432.150146 2525.740234,1438.424072 2518.486084,1444.734131C2512.564697,1449.884766 2506.280762,1454.159668 2498.001709,1458.707275C2498.001709,1449.308472 2498.284912,1441.999146 2497.943848,1434.719116C2497.196777,1418.769653 2489.617920,1407.036987 2475.364990,1399.725952C2461.346436,1392.535156 2448.137451,1395.527100 2435.824219,1403.698853C2430.056396,1407.526611 2424.848389,1412.346802 2419.904541,1417.240356C2398.347168,1438.577881 2376.979004,1460.106567 2355.546387,1481.570190C2354.369629,1482.749023 2353.089355,1483.862427 2352.106689,1485.190552C2348.651123,1489.860352 2349.131592,1497.926270 2352.985840,1501.743164C2357.795410,1506.505981 2363.622803,1507.142456 2369.269287,1503.158813C2371.694580,1501.448120 2373.755615,1499.193970 2375.871826,1497.076904C2396.609375,1476.332153 2417.251953,1455.491943 2438.108154,1434.867310C2442.093994,1430.925781 2446.593506,1427.309082 2451.384033,1424.417236C2460.981934,1418.624023 2468.988281,1421.819092 2472.362061,1432.471069C2473.346680,1435.580078 2473.791748,1438.952881 2473.906494,1442.225098C2474.140381,1448.883301 2473.589355,1455.586792 2474.119385,1462.210938C2474.482910,1466.752930 2475.506836,1471.463745 2477.330322,1475.618530C2480.542236,1482.937378 2486.267822,1487.273804 2494.744385,1486.006592C2499.262207,1485.331299 2503.951416,1484.569702 2508.079102,1482.749512C2519.799561,1477.581665 2529.250000,1469.096191 2538.506104,1460.461670C2545.833496,1453.626343 2553.288574,1447.034180 2563.087891,1443.869873C2572.011719,1440.987915 2579.565674,1443.855225 2584.007812,1452.188477C2585.718262,1455.397583 2587.097412,1458.846558 2588.154785,1462.329712C2592.221436,1475.727905 2601.305176,1484.346313 2614.083008,1490.475098C2621.286621,1498.731689 2628.018311,1506.534302 2635.129883,1513.973999C2651.665771,1531.273560 2669.997070,1546.889282 2683.769775,1566.762085C2694.933838,1582.870483 2703.140381,1600.017090 2704.000000,1620.000000C2487.291504,1620.000000 2270.583008,1620.000000 2052.843994,1619.233154C2046.420654,1598.582642 2040.380737,1578.980469 2028.807983,1561.573853C2013.794312,1538.991943 1994.738647,1521.904175 1967.430908,1515.925171C1947.309326,1511.519531 1926.866211,1510.303223 1906.338501,1509.980103C1888.243042,1509.695190 1870.941528,1505.516357 1854.205444,1498.901978C1851.894775,1497.988647 1850.086304,1495.804077 1848.045288,1494.208130z"/>
			<path fill="#F8DBC3" d="M2578.000977,1417.924438C2577.523926,1396.156738 2584.734863,1376.346313 2593.542969,1356.947144C2600.389160,1341.869507 2607.769775,1327.009399 2613.976318,1311.673584C2619.934326,1296.950928 2624.210449,1281.592896 2623.897217,1265.466919C2623.559326,1248.063232 2618.475586,1232.287354 2606.297852,1218.506348C2619.298828,1198.028564 2632.579102,1178.168335 2645.876465,1158.319458C2664.202637,1130.964233 2684.176758,1104.984253 2708.437012,1082.505981C2736.337158,1056.655396 2768.704102,1039.853516 2805.987305,1031.721313C2829.898193,1026.505859 2853.893799,1025.540039 2879.062744,1026.005859C2880.000000,1154.708496 2880.000000,1283.416870 2879.371582,1413.333496C2871.469971,1419.737183 2863.874512,1424.541748 2856.997314,1430.217041C2845.949707,1439.333618 2833.523193,1445.671753 2819.516846,1447.526123C2803.938232,1449.588867 2794.719727,1446.203003 2793.875732,1429.697144C2793.858887,1429.366577 2793.822021,1429.030273 2793.739502,1428.710693C2787.648193,1405.101440 2770.299561,1394.416382 2750.083008,1396.518066C2734.135254,1398.176025 2720.432129,1405.750000 2707.891357,1415.294189C2694.981201,1425.119751 2682.508789,1435.519775 2669.618408,1445.372437C2658.493164,1453.876099 2646.634033,1461.102783 2632.847168,1464.709717C2623.338623,1467.197266 2617.609863,1465.031250 2613.121826,1456.333130C2611.609375,1453.401855 2610.603760,1450.208252 2609.378906,1447.129517C2603.533447,1432.436401 2594.090332,1421.610718 2578.000977,1417.924438zM2704.937256,1620.000000C2703.140381,1600.017090 2694.933838,1582.870483 2683.769775,1566.762085C2669.997070,1546.889282 2651.665771,1531.273560 2635.129883,1513.973999C2628.018311,1506.534302 2621.286621,1498.731689 2615.026611,1490.491943C2633.473145,1491.474487 2649.694336,1486.587036 2665.312500,1478.399780C2680.459961,1470.459229 2692.717529,1458.690918 2706.292480,1448.667480C2716.405273,1441.200317 2726.407471,1433.513428 2737.041992,1426.855713C2741.594238,1424.005615 2747.548584,1422.668091 2753.006836,1422.160400C2761.453125,1421.374878 2765.745361,1424.783203 2768.579834,1432.945801C2770.097168,1437.315796 2771.183594,1441.838013 2772.404541,1446.307861C2776.396729,1460.923462 2786.963867,1470.595947 2802.116699,1471.837891C2825.608887,1473.763428 2847.797363,1469.967773 2866.695068,1454.376221C2871.031738,1450.798462 2875.560059,1447.452637 2880.000000,1444.000000C2880.000000,1502.520508 2880.000000,1561.041016 2880.000000,1620.000000C2821.958984,1620.000000 2763.916748,1620.000000 2704.937256,1620.000000z"/>
			<path fill="#F5CFD5" d="M1847.328857,1494.081543C1850.086304,1495.804077 1851.894775,1497.988647 1854.205444,1498.901978C1870.941528,1505.516357 1888.243042,1509.695190 1906.338501,1509.980103C1926.866211,1510.303223 1947.309326,1511.519531 1967.430908,1515.925171C1994.738647,1521.904175 2013.794312,1538.991943 2028.807983,1561.573853C2040.380737,1578.980469 2046.420654,1598.582642 2051.906738,1619.233154C1887.291504,1620.000000 1722.583130,1620.000000 1557.017578,1619.237671C1561.873413,1602.807129 1565.274170,1586.460693 1565.616699,1569.978638C1566.143188,1544.655151 1559.685913,1520.679810 1545.454956,1499.418823C1538.821289,1489.508179 1530.818970,1480.550659 1520.375854,1474.262573C1515.136963,1471.108398 1509.299561,1471.764038 1505.812866,1475.705688C1502.816406,1479.093140 1503.689575,1486.109985 1507.733398,1490.236084C1508.641602,1491.162720 1510.046387,1491.602661 1510.955566,1492.528809C1516.750488,1498.432373 1523.226807,1503.854004 1528.078735,1510.462280C1545.129150,1533.685059 1546.586792,1560.410400 1542.921387,1587.576172C1541.436157,1598.584961 1537.060547,1609.203735 1534.000000,1620.000000C1511.291504,1620.000000 1488.583130,1620.000000 1464.937256,1620.000000C1465.479370,1618.225464 1466.699463,1616.118530 1468.479980,1614.730103C1480.199219,1605.591309 1484.755737,1592.511597 1485.412109,1578.815430C1485.994629,1566.660034 1482.614502,1554.621094 1475.263916,1544.135254C1467.132080,1532.534912 1456.918457,1523.350830 1442.935181,1515.854858C1449.721924,1509.961792 1455.138062,1504.147705 1461.576660,1499.874146C1481.765015,1486.473511 1502.034546,1473.142700 1522.844482,1460.744629C1546.004272,1446.946655 1570.636230,1435.981689 1595.739258,1426.152954C1619.609497,1416.807007 1644.127686,1409.064941 1669.583374,1406.502930C1693.402832,1404.105469 1717.572754,1404.592529 1740.229248,1414.435547C1754.019653,1420.426758 1766.312500,1428.962524 1777.720703,1438.756226C1796.350830,1454.749756 1814.904907,1470.834717 1833.733398,1486.591553C1837.466309,1489.715454 1842.291260,1491.534302 1847.328857,1494.081543zM1360.937256,1620.000000C1360.082520,1610.631104 1366.563110,1604.090942 1370.965576,1596.900146C1384.737061,1574.405640 1401.842896,1554.505371 1420.735474,1536.103149C1424.516968,1532.420044 1428.313232,1530.874390 1433.264404,1532.830566C1450.946289,1539.815552 1467.252075,1560.322266 1466.042725,1578.755737C1465.193726,1591.696655 1459.067871,1600.962891 1447.277222,1605.730591C1435.603882,1610.451050 1424.326538,1609.120239 1414.999146,1599.843994C1411.973389,1596.834839 1409.466431,1593.260132 1406.986328,1589.756958C1403.347656,1584.616821 1398.583008,1582.667480 1394.388550,1584.934082C1389.401001,1587.629272 1387.831909,1593.692139 1390.650024,1599.465698C1394.516357,1607.386108 1399.958618,1613.950317 1407.684814,1619.405029C1392.624878,1620.000000 1377.249634,1620.000000 1360.937256,1620.000000z"/>
		</g>
		<g>
			<path fill="#C0DDDE" d="M2.000002,1294.937256C5.727057,1292.790283 9.703407,1292.064575 13.141707,1290.294067C40.393726,1276.261230 68.367104,1264.030029 97.739594,1255.082764C123.650436,1247.190186 150.006271,1242.010620 177.160110,1244.202515C201.916046,1246.200806 224.322174,1255.209473 243.684296,1270.893066C254.768494,1279.871582 265.046265,1289.840454 276.037109,1298.940796C289.059448,1309.723022 301.965118,1320.759888 315.820984,1330.392456C332.583740,1342.045532 352.227814,1346.239868 372.285278,1347.848755C387.166870,1349.042480 402.154877,1348.929810 417.030060,1350.178711C436.737488,1351.833252 455.771637,1356.387207 472.423798,1367.710815C491.722107,1380.833740 504.303680,1399.403320 513.782959,1420.331543C515.425598,1423.958130 517.091858,1427.573730 519.325195,1432.443726C520.716492,1437.231201 521.523010,1440.771118 522.344238,1444.307495C528.020203,1468.750488 533.856201,1492.863892 530.503662,1518.657715C527.740051,1539.920166 522.547058,1560.165894 515.042175,1580.034302C510.012390,1593.350220 505.012970,1606.677734 500.000000,1620.000000C334.243195,1620.000000 168.486389,1620.000000 2.000000,1620.000000C2.000000,1587.295166 2.000000,1554.584839 2.705958,1520.850952C6.043572,1518.447998 8.913262,1517.387695 11.264516,1515.632690C20.032942,1509.087891 28.459223,1502.075684 37.342747,1495.696777C45.944916,1489.519897 54.584515,1483.223267 63.878384,1478.226929C74.351517,1472.596558 81.453476,1476.059082 85.624031,1487.298096C86.316780,1489.164917 87.151474,1491.058472 87.383385,1493.003784C88.873253,1505.500244 97.234703,1511.396606 108.238632,1514.265015C124.973061,1518.627319 140.556732,1514.716309 154.862137,1505.856689C163.019501,1500.804565 170.309174,1494.371948 178.294312,1489.015259C185.728775,1484.027954 190.928543,1485.166382 196.201157,1492.366577C199.143127,1496.384155 201.609192,1500.750244 204.550095,1504.768677C211.757080,1514.616577 223.407578,1516.650879 233.688583,1510.021851C242.326279,1504.452393 246.111374,1490.846924 241.551910,1481.757446C238.044708,1474.765747 229.648315,1473.617310 225.468002,1480.159180C223.225830,1483.667969 222.995087,1488.462036 221.628738,1493.519897C217.829025,1488.499268 213.561386,1483.607300 210.133499,1478.184570C201.402527,1464.372681 182.408508,1462.475220 170.484665,1470.522583C163.337250,1475.346313 156.436523,1480.537720 149.461365,1485.613892C141.209503,1491.618896 132.043457,1495.304077 121.860504,1495.970703C110.712135,1496.700562 107.890984,1494.505371 104.793846,1483.687378C104.519997,1482.730957 104.317085,1481.754517 104.071381,1480.789795C99.043648,1461.048584 82.594658,1452.048950 62.754196,1457.476685C47.439144,1461.666382 36.041660,1471.794312 23.915367,1481.045288C16.893822,1486.401855 9.323418,1491.039062 2.000006,1496.000000C2.000000,1429.291504 2.000000,1362.583130 2.000002,1294.937256z"/>
			<path fill="#F5CFD5" d="M500.937317,1620.000000C505.012970,1606.677734 510.012390,1593.350220 515.042175,1580.034302C522.547058,1560.165894 527.740051,1539.920166 530.503662,1518.657715C533.856201,1492.863892 528.020203,1468.750488 522.344238,1444.307495C521.523010,1440.771118 520.716492,1437.231201 519.854858,1432.888672C545.828674,1431.978638 571.186768,1436.442505 596.231689,1443.125732C627.184326,1451.385742 656.755066,1463.164429 684.868530,1478.467163C710.862671,1492.616211 735.022827,1509.375610 757.799561,1528.415649C785.180786,1551.304932 806.603210,1578.902100 825.616394,1608.673950C827.530762,1611.671631 828.590576,1615.215088 830.023499,1619.252686C720.624878,1620.000000 611.249756,1620.000000 500.937317,1620.000000z"/>
		</g>
	</g>
	<g>
		<path fill="#C2DEDF" d="M2565.639160,367.522064C2553.338623,378.876465 2549.013672,393.620300 2544.237793,408.125885C2544.032471,408.749237 2544.031738,409.438385 2543.919434,410.094025C2543.208740,414.238190 2541.714844,417.884155 2537.185791,419.068542C2533.469238,420.040466 2526.551025,416.879761 2524.620605,412.706085C2523.143066,409.511627 2522.326416,405.779907 2522.167969,402.244415C2521.049805,377.316650 2508.014893,360.024872 2487.316406,347.806549C2483.733398,345.691620 2479.168457,345.217804 2475.030273,344.083801C2474.092773,343.826935 2473.027832,344.077484 2472.048340,343.924683C2466.402100,343.044220 2462.527588,339.642822 2462.347900,335.476166C2462.192139,331.870483 2466.514160,326.919525 2471.486084,326.285522C2480.205078,325.173584 2488.520508,322.857941 2495.843994,318.139709C2516.069824,305.108643 2531.240234,288.169037 2536.012451,263.669739C2536.771484,259.773621 2536.975830,255.720123 2538.180176,251.978821C2538.879883,249.806183 2540.790283,246.865692 2542.634033,246.463821C2546.293701,245.666122 2547.427734,248.856277 2547.950928,252.101242C2549.898193,264.182526 2551.302002,276.406067 2554.203369,288.259583C2556.140137,296.172607 2559.763916,303.811310 2563.549805,311.096405C2567.843994,319.359253 2575.228516,324.508209 2583.905762,327.832306C2587.931152,329.374359 2591.802002,331.317017 2595.805420,332.920990C2600.425781,334.771942 2602.421875,337.977325 2602.101318,343.007111C2601.805420,347.646240 2599.217773,349.955902 2595.322266,351.892090C2585.521729,356.763428 2575.890137,361.975616 2565.639160,367.522064M2509.336914,341.651306C2521.810547,350.006897 2528.345459,363.159668 2536.222168,377.116302C2544.597656,361.285400 2556.666016,351.274963 2571.706299,342.059906C2554.203369,331.183990 2545.219727,316.223236 2541.041260,297.573212C2528.109375,311.261841 2516.266113,323.797943 2504.142090,336.631561C2505.480957,338.042999 2506.822021,339.456604 2509.336914,341.651306zM2678.040527,213.612061C2680.447021,218.821411 2682.560303,223.338882 2684.895996,227.738297C2690.138428,237.613495 2699.166016,243.177826 2708.575195,248.297150C2710.897461,249.560577 2713.322510,250.774979 2715.326172,252.457626C2720.676514,256.951263 2720.443848,261.339111 2714.792725,265.433624C2713.461914,266.397736 2711.908936,267.096466 2710.385742,267.747437C2689.933350,276.487213 2676.751709,291.984711 2668.830566,312.380676C2668.231201,313.923859 2668.021240,315.705750 2667.117676,317.025970C2664.893311,320.276947 2662.673340,324.340057 2657.942383,323.376709C2653.270752,322.425476 2649.069092,319.979218 2648.231201,314.603088C2647.315430,308.727844 2646.374268,302.804779 2646.181885,296.878601C2645.679443,281.409760 2638.978027,270.311188 2624.475098,264.276672C2622.654785,263.519257 2620.655762,262.975952 2619.097168,261.841858C2612.352539,256.933319 2612.552734,251.398666 2619.741455,247.264191C2628.684082,242.121323 2637.254395,236.687973 2644.430908,229.019775C2653.165527,219.686783 2658.077148,208.845154 2660.096436,196.402420C2660.649658,192.993576 2661.871582,189.693298 2662.671631,186.764450C2668.976807,185.740936 2670.021973,189.796646 2671.231689,193.044540C2673.661621,199.568207 2675.666992,206.250076 2678.040527,213.612061M2662.237793,229.352295C2657.194092,235.489288 2652.217041,241.682953 2647.073486,247.734863C2645.072266,250.089310 2642.677002,252.319107 2644.870850,255.543121C2651.142578,264.760986 2657.597656,273.854126 2663.665527,282.544617C2672.342529,274.156860 2681.243896,265.552338 2690.459473,256.644135C2679.265137,248.467804 2672.289795,236.358261 2666.579590,222.026505C2664.872803,224.845551 2663.881592,226.482864 2662.237793,229.352295zM2657.667725,388.562561C2663.273682,391.594849 2668.314941,394.156982 2673.340332,396.749695C2676.610840,398.436951 2680.898193,400.188782 2679.509766,404.529449C2678.540527,407.559357 2675.473633,410.313324 2672.692139,412.259857C2669.771484,414.304108 2665.979248,415.051697 2662.735107,416.695557C2654.629639,420.802734 2649.890869,427.928406 2645.868164,435.747681C2643.601318,440.153992 2641.320312,444.694397 2638.210693,448.490234C2634.274170,453.295380 2630.359619,452.832916 2627.110352,447.441254C2625.449463,444.685028 2624.997314,441.224457 2623.795898,438.161926C2621.271973,431.729248 2619.326416,424.918060 2615.794434,419.078003C2612.728271,414.007782 2607.728516,410.155365 2601.097900,409.926727C2596.552734,409.769958 2593.398926,407.657257 2592.388184,403.217163C2591.410400,398.920776 2594.289795,396.417328 2597.496094,394.380249C2602.258789,391.354431 2607.037354,388.346100 2611.905029,385.494141C2621.048340,380.137177 2626.375000,372.392975 2628.671143,361.938843C2629.707520,357.220795 2628.838135,350.724426 2636.296387,348.536835C2640.634277,350.802063 2641.394775,355.226013 2642.010498,359.877625C2643.502930,371.147644 2647.807861,380.973663 2657.667725,388.562561M2627.098145,409.814331C2629.817383,412.614349 2632.536621,415.414337 2635.693115,418.664398C2641.347168,413.036835 2648.761719,410.705444 2651.916748,403.204865C2646.544922,397.241211 2641.359375,391.484528 2635.861328,385.381012C2630.470703,391.421112 2622.918945,393.290619 2620.171875,400.359833C2622.372314,403.317017 2624.345703,405.969452 2627.098145,409.814331z"/>
		<g>
			<path fill="#C1DEDF" d="M1067.064819,2.000000C1070.856812,9.684247 1074.157227,17.237925 1076.466309,25.083393C1079.905762,36.770065 1076.052124,47.647476 1069.512573,56.908016C1064.693604,63.732048 1058.705811,70.049576 1049.399048,72.192032C1034.388184,75.647583 1021.112610,71.796669 1008.994385,63.633217C987.881592,49.410496 980.217773,28.315353 980.051208,2.881290C988.713806,2.000000 997.427612,2.000000 1007.055664,2.873410C1007.551636,12.890525 1009.299561,21.597231 1013.879883,29.534319C1018.420959,37.403450 1025.278564,42.547623 1034.311279,43.880844C1043.281738,45.204865 1048.075684,40.608643 1048.129883,31.750177C1048.181885,23.240154 1043.588257,16.746933 1039.135254,10.143078C1037.341919,7.483700 1035.707031,4.717553 1034.000000,1.999997C1044.709839,2.000000 1055.419800,2.000000 1067.064819,2.000000zM945.064087,2.000010C941.778564,6.914788 937.557129,11.829555 932.575623,17.629238C937.025757,19.721535 940.120667,21.486120 943.422668,22.676245C958.750854,28.200865 967.731445,39.401756 972.368347,54.569607C976.585632,68.364662 975.946777,81.929871 970.229431,95.196617C966.064514,104.861229 958.878723,111.458153 949.164551,115.282349C935.004272,120.856804 918.450500,115.610619 909.528015,103.091789C900.523804,90.458267 897.735779,75.873589 896.037415,60.966488C895.552979,56.714661 895.963257,52.360901 895.963257,46.587482C892.884277,48.150753 890.450623,48.898499 888.627930,50.391842C877.605347,59.422115 869.891235,70.911095 864.214111,83.882782C861.551575,89.966545 858.960632,96.104774 855.864685,101.968880C853.049988,107.300316 849.155457,108.932739 844.438904,107.680496C839.890137,106.472809 836.909241,102.483681 838.207642,96.747993C844.309204,69.795380 852.990356,44.106770 877.588684,27.718060C882.261047,24.605085 887.335938,21.703596 892.642700,20.024179C901.389160,17.256254 906.386353,11.241355 909.980713,2.710598C921.376099,2.000000 932.752136,2.000000 945.064087,2.000010M945.788635,77.701096C946.663086,69.957451 946.450134,62.458717 941.846985,55.638580C937.237671,48.809307 930.064026,45.640171 922.057800,47.799580C922.057800,52.168995 921.478088,56.859631 922.186279,61.347008C923.417053,69.145691 924.158325,77.243713 929.141235,83.909355C933.185974,89.320122 938.033813,89.559128 942.406982,84.492058C943.674622,83.023232 944.337036,81.031975 945.788635,77.701096z"/>
			<path fill="#F8DCC4" d="M1050.066895,274.259552C1044.809570,274.696045 1039.553101,275.488068 1034.294678,275.501831C1018.990356,275.541901 1003.606140,275.688385 991.999023,262.958099C983.610962,253.758286 981.176392,237.855820 986.691467,226.664246C995.894348,207.989090 1018.536865,196.811401 1039.099854,201.626984C1048.906860,203.923630 1058.343018,207.803223 1068.626953,211.189651C1073.302490,201.875671 1072.397095,191.394211 1071.327515,180.935715C1070.386597,171.734055 1068.804810,162.574127 1068.377686,153.355362C1068.204956,149.625824 1069.483032,145.198059 1071.597168,142.113388C1077.633545,133.305771 1087.589844,135.293396 1092.605347,143.918030C1095.494873,148.886749 1096.617798,155.086609 1097.631958,160.890259C1098.881592,168.042053 1100.001465,175.386658 1099.748779,182.597855C1099.085205,201.525848 1096.750122,220.133270 1088.326294,237.630875C1083.899170,246.826843 1080.664062,256.666290 1077.609131,266.439758C1069.801758,291.417877 1053.593628,307.914734 1029.020874,316.651459C1022.537903,318.956451 1017.443298,317.796173 1012.242004,312.754211C1018.113892,305.492950 1027.139648,302.809265 1033.558472,296.933533C1040.106079,290.939941 1045.677612,283.880157 1051.602539,276.202362C1051.180176,274.595276 1050.692871,274.309296 1050.066895,274.259552M1053.026001,241.521866C1054.666748,237.527130 1054.833618,233.830460 1051.106567,230.755768C1042.259155,223.457108 1024.535889,222.790421 1015.763306,229.592026C1012.282776,232.290558 1009.263367,235.386368 1010.024780,240.423141C1010.795166,245.519119 1014.451355,247.297150 1018.856445,248.595337C1030.928711,252.153091 1041.678833,248.770340 1053.026001,241.521866z"/>
			<path fill="#F5D0D6" d="M1307.396362,166.873108C1301.002686,184.987244 1288.075073,194.044693 1270.651367,197.930481C1254.486206,201.535614 1239.801025,198.302048 1226.118408,189.336441C1224.232178,188.100418 1222.089233,187.255829 1219.457275,185.921951C1215.495361,193.514023 1212.682129,200.532059 1215.248779,208.866470C1217.884888,217.426010 1220.101440,226.114563 1222.518799,234.741821C1222.877075,236.020706 1223.512451,237.245621 1223.708618,238.542542C1225.240479,248.671753 1218.006348,254.685074 1208.483887,251.091675C1206.358643,250.289703 1204.110229,249.077225 1202.632202,247.417999C1194.082520,237.819199 1187.796387,227.003326 1186.040649,214.010010C1183.320435,193.879807 1187.601807,175.048737 1197.465088,157.551193C1201.448242,150.485031 1202.355713,143.229401 1202.015991,135.465988C1201.366699,120.628647 1203.494873,106.385025 1210.418335,92.962242C1215.578613,82.957642 1223.175537,75.092369 1231.427979,67.834290C1237.329224,62.644047 1242.645630,62.798210 1250.341309,67.887688C1247.864014,71.284943 1245.697998,74.897659 1242.918579,77.952309C1232.561768,89.334854 1226.081543,102.479126 1224.147217,117.776047C1223.949097,119.342964 1224.383179,120.989838 1224.616455,123.658478C1227.495972,123.363434 1230.030396,123.425064 1232.387451,122.808769C1245.306641,119.431030 1258.313843,117.255257 1271.767700,117.914368C1288.686279,118.743233 1306.792725,129.338577 1309.641357,153.428955C1310.125977,157.527115 1308.383301,161.888641 1307.396362,166.873108M1239.081787,153.976791C1234.203491,155.659546 1232.689209,158.444794 1236.020996,162.966599C1243.758179,173.467239 1264.295532,175.821442 1273.744385,167.188675C1278.119873,163.191116 1281.463379,158.320038 1279.553101,152.241409C1277.710571,146.377838 1271.658325,146.784073 1266.944214,146.281387C1263.111572,145.872696 1258.950928,146.374313 1255.242798,147.491531C1250.189209,149.014130 1245.427612,151.505600 1239.081787,153.976791z"/>
		</g>
		<path fill="#F8DCC4" d="M958.937317,1620.000000C960.633545,1603.360840 963.270874,1586.722412 965.891541,1570.081177C966.046326,1569.098633 965.697998,1567.795288 966.217285,1567.154663C968.182251,1564.730591 970.007568,1561.624146 972.635254,1560.445801C976.179260,1558.857056 978.691223,1561.550659 980.398376,1564.838867C986.826050,1577.219482 993.363098,1589.543335 999.861694,1601.887207C1001.548462,1605.090942 1003.244385,1608.289795 1005.242371,1612.070557C1016.919556,1608.783569 1028.277222,1605.485596 1039.693481,1602.404907C1048.645874,1599.989136 1057.743774,1598.090942 1066.636597,1595.483643C1072.132080,1593.872437 1075.755737,1596.211060 1078.605957,1600.117188C1081.542725,1604.141846 1079.264404,1607.503540 1076.407471,1610.720703C1074.215576,1613.189087 1072.468384,1616.052490 1070.261719,1619.370117C1033.291504,1620.000000 996.583069,1620.000000 958.937317,1620.000000zM1115.406250,1592.500244C1114.405762,1589.944214 1113.835815,1588.026123 1113.051636,1586.199951C1105.209351,1567.935791 1102.813354,1566.496704 1082.840576,1565.930786C1073.582764,1565.668457 1064.337891,1564.786377 1055.101074,1564.017700C1050.891602,1563.667358 1050.906982,1563.483154 1046.302124,1557.747314C1047.888672,1556.333496 1049.372559,1554.690552 1051.151001,1553.480225C1060.757080,1546.942993 1070.500732,1540.606567 1080.063354,1534.007446C1085.062012,1530.557861 1085.272949,1528.903931 1081.370239,1524.515137C1077.836670,1520.541138 1073.917114,1516.911011 1070.193848,1513.104004C1068.566895,1511.440552 1066.323608,1509.964722 1065.583252,1507.953369C1064.623169,1505.345703 1063.789185,1501.684448 1064.938599,1499.600830C1066.010620,1497.657715 1069.911133,1495.973022 1072.285645,1496.288574C1080.131958,1497.331177 1088.222046,1498.365967 1095.535522,1501.179321C1107.644043,1505.836792 1116.038818,1503.500366 1123.075073,1492.270996C1128.498413,1483.615479 1135.658691,1476.048096 1142.048950,1467.998901C1143.077759,1466.703003 1143.869873,1464.833130 1145.212402,1464.258423C1147.470459,1463.291626 1150.330444,1462.312134 1152.462036,1462.943359C1154.005249,1463.400269 1155.512329,1466.369263 1155.745239,1468.368530C1156.242798,1472.637207 1156.252197,1477.037964 1155.832275,1481.322998C1154.994385,1489.872070 1153.736450,1498.379883 1152.638306,1506.903076C1152.553833,1507.558716 1152.323730,1508.194824 1152.226196,1508.849609C1149.776978,1525.306885 1150.869995,1527.206177 1165.365967,1535.879272C1175.046387,1541.671265 1184.448975,1547.931030 1193.919189,1554.068604C1195.853516,1555.322266 1197.606567,1556.887329 1199.318115,1558.446045C1202.114746,1560.992676 1202.845337,1564.144043 1200.957886,1567.445312C1199.128662,1570.644165 1196.532593,1571.090576 1192.593872,1570.714355C1178.088013,1569.328735 1163.502686,1568.748169 1148.940063,1568.006592C1146.395142,1567.876953 1143.815308,1568.432251 1139.978760,1568.789795C1139.978760,1577.801147 1139.981201,1586.359253 1139.977539,1594.917480C1139.976318,1597.912964 1140.080078,1600.914673 1139.925903,1603.902588C1139.604126,1610.138794 1137.186401,1613.273071 1132.389893,1613.953247C1127.443481,1614.654663 1124.655884,1612.705078 1121.979126,1606.768921C1119.930176,1602.225220 1117.820190,1597.709106 1115.406250,1592.500244z"/>
		<path fill="#F5D0D6" d="M2.000003,904.921265C12.943580,906.332153 23.887154,908.664368 36.054668,911.257385C36.054668,907.229187 35.896702,903.651428 36.083904,900.091858C36.676167,888.830444 37.056873,877.541687 38.177692,866.329346C39.060059,857.502319 44.990116,851.706909 52.859283,848.960144C60.896469,846.154724 67.870926,850.144165 73.513023,855.732727C81.610130,863.752869 85.377174,874.253540 87.641281,885.000610C89.885017,895.651062 90.321922,906.668518 92.160301,917.420898C95.784828,938.620361 93.364410,959.938965 93.836685,981.192932C94.067497,991.580505 84.685364,997.333984 76.211609,992.742859C70.710808,989.762451 65.328537,986.524475 59.668091,983.884460C40.991562,975.173401 22.212629,966.681946 2.736506,958.053101C2.000000,953.258850 2.000000,948.517761 2.714408,942.950867C5.528790,943.091797 7.696305,943.935303 9.718196,945.044312C28.033840,955.090820 46.306305,965.216248 64.648476,975.213928C66.528145,976.238464 68.780296,976.579651 71.885986,977.562927C71.894867,953.091248 73.045990,929.602234 69.070549,906.272827C68.129265,900.749023 67.005028,895.237549 65.558662,889.829041C65.067329,887.991821 63.326431,886.488770 61.123302,883.370667C60.597767,886.928589 60.184593,888.467407 60.172218,890.009338C60.076195,901.974609 60.157295,913.941895 59.988308,925.905823C59.799072,939.303101 53.455223,943.914307 40.917698,940.024109C27.950001,936.000366 14.972968,932.006714 2.000003,928.000000C2.000000,920.614197 2.000000,913.228333 2.000003,904.921265zM278.133240,762.523132C282.989777,775.784973 281.999969,788.445557 280.695770,801.515625C277.198944,836.558838 265.501740,869.419617 255.485519,902.755310C251.090134,917.383850 246.480164,931.948120 242.099686,946.581055C240.502838,951.915344 237.685410,956.290710 233.035934,959.312683C223.230453,965.685791 210.287567,960.633728 208.192001,949.187378C207.420288,944.972046 205.294403,942.991394 202.200119,940.786743C177.457413,923.158203 158.009155,900.879333 143.074600,874.383972C132.841278,856.229065 125.357613,837.259521 122.627731,816.591248C120.555687,800.903442 123.526512,786.074158 132.309738,772.781616C138.062622,764.075073 147.938141,762.961426 155.140427,770.372925C163.004562,778.465332 170.298965,787.116821 177.736145,795.616943C183.634216,802.358032 189.310806,809.293518 195.244980,816.001770C196.211807,817.094788 198.004761,817.456909 199.951614,818.422546C203.970871,810.302185 207.584198,802.549255 211.591187,795.005432C218.804626,781.424866 227.618073,768.989258 238.779114,758.302185C243.472870,753.807739 248.812988,750.794006 255.369583,749.958679C265.685547,748.644287 272.500122,753.754089 278.133240,762.523132M218.389252,915.484131C235.285034,866.934021 250.636810,805.336121 248.160004,795.245667C240.365570,805.543518 233.708191,816.131714 230.125641,828.414246C228.640945,833.504456 227.416763,838.679504 225.731247,843.700806C218.047684,866.590820 202.400528,866.739563 188.119797,852.992432C187.640533,852.531006 187.141617,852.079712 186.726013,851.563904C179.661652,842.797119 172.707535,833.939026 165.519714,825.274780C160.618423,819.366760 155.379166,813.742676 149.095978,808.562317C140.864563,839.942810 181.767670,910.323303 213.140717,931.937012C214.829681,926.747864 216.413284,921.882507 218.389252,915.484131z"/>
	</g>
</svg>