<svg  x="0px" y="0px" viewBox="0 0 564 286">
	<path stroke="none" d="M169.583344,1.000000C175.542023,4.403290 180.969986,7.953074 182.905304,14.704201C183.630035,17.232393 184.414810,19.850496 184.472610,22.443203C184.667023,31.162186 184.546524,39.888191 184.546524,49.596031C185.276367,49.355900 187.461090,49.307159 188.442856,48.195766C192.289413,43.841377 195.840164,39.214813 199.341553,34.569324C203.144836,29.523296 207.822723,28.926086 212.400452,33.108707C219.543320,39.635082 220.376907,42.840836 213.877243,49.828831C204.719162,59.674984 194.594391,68.621208 184.905182,77.975243C183.728577,79.111168 182.335999,80.219498 181.655075,81.634834C179.843842,85.399551 181.286179,88.032295 185.539886,89.291588C194.209061,91.858086 202.965637,94.609772 209.001648,101.715324C212.095047,105.356842 214.256134,110.051529 215.839737,114.616730C216.794266,117.368462 217.402222,118.864540 220.551956,119.074524C233.527496,119.939552 243.798019,125.589699 250.222153,137.141235C251.115356,138.747330 251.267395,142.201813 250.219971,143.231506C238.085358,155.160675 225.593323,166.734558 208.858063,172.052444C205.195709,173.216217 200.388763,175.759552 198.060715,171.453354C196.924622,169.351929 199.160858,164.662964 200.992950,161.885559C204.458588,156.631775 208.768768,151.939301 212.659714,146.960190C214.732391,144.307892 214.649841,142.143723 210.689117,142.061615C188.424332,141.600067 166.157547,141.049484 143.890762,141.018494C139.208054,141.011978 134.374863,142.638794 129.874939,144.250046C124.017456,146.347397 122.923622,150.198776 126.119057,155.588165C128.199097,159.096329 129.773392,162.118103 127.446358,166.586182C124.810165,171.647842 126.393776,173.016403 132.175217,173.380569C142.603912,174.037445 153.043976,174.777802 163.413208,176.030289C171.457062,177.001907 177.511017,181.895340 182.178085,188.212692C183.724701,190.306229 184.659683,193.397858 184.633270,196.020660C184.426239,216.588715 179.828293,236.279114 171.430923,254.993744C166.673096,265.597168 161.161377,275.862305 155.994598,286.639893C152.969406,287.000000 149.938812,287.000000 146.237503,286.746216C132.792267,277.972137 122.938278,266.455933 113.410355,254.679489C112.115082,253.078522 112.536087,250.088974 111.969017,246.527771C115.247704,248.277847 117.002457,249.194839 118.739105,250.144958C125.441628,253.811844 132.067566,257.631653 138.902481,261.031677C140.133850,261.644226 143.209839,261.113220 143.759018,260.152557C153.921204,242.376221 162.253113,224.016739 161.202118,202.763718C160.995758,198.590942 159.256180,197.162750 155.401901,197.192093C146.741226,197.258041 138.047287,197.668655 129.429489,197.056946C123.277939,196.620300 119.442284,199.027939 116.083351,203.688644C107.813530,215.163406 99.428535,226.557312 90.944145,237.874496C85.669128,244.910782 81.039482,252.802658 74.508186,258.444366C62.639275,268.696655 49.568939,277.558105 37.000000,287.000000C34.958332,287.000000 32.916668,287.000000 30.353840,286.641754C25.295792,281.210602 25.484552,276.803375 30.446106,272.170837C34.707977,268.191589 39.030693,264.275787 43.231888,260.233582C57.899200,246.121292 72.274460,231.749557 82.299484,213.743484C83.161568,212.195068 83.524429,210.368729 84.348579,208.016937C79.958939,208.016937 76.641457,208.161285 73.340591,207.988434C65.204330,207.562332 57.606094,205.311813 53.107052,198.091171C51.394623,195.342850 51.597511,191.167557 51.785587,187.688995C51.818539,187.079559 56.097076,186.408066 58.445236,186.265350C69.248932,185.608688 80.004761,185.013306 90.229912,180.786880C102.209900,175.835114 108.244835,165.537292 105.943321,152.830521C105.718826,151.591095 104.050652,149.772827 102.927444,149.676071C96.716522,149.140976 90.401199,148.385300 84.246933,148.986893C76.502411,149.743958 68.919212,152.022476 61.191830,153.118866C53.010105,154.279739 44.740822,154.823563 36.427780,155.644989C34.967632,164.598785 33.849606,173.840286 31.827438,182.879517C30.767107,187.619324 28.337683,192.117630 26.054699,196.477936C25.406626,197.715714 22.948559,198.944702 21.578878,198.704544C15.378491,197.617325 8.198280,186.237808 9.314612,180.020447C11.653598,166.993591 15.450501,154.075104 12.035167,140.600479C11.805075,139.692673 13.654598,137.267441 14.665177,137.188431C24.950186,136.384232 32.778545,131.149612 39.680756,124.035263C47.930733,115.531708 53.468037,105.318810 57.998238,94.530624C58.521317,93.284966 58.017334,90.938454 57.095188,89.885803C54.694973,87.145889 51.676525,84.959557 49.121891,82.340538C42.931438,75.994095 37.351192,69.245499 34.561207,60.558292C33.551350,57.413876 34.335690,55.936127 37.419724,55.085388C41.565037,53.941898 45.192783,54.303909 48.579556,57.278969C54.038349,62.074165 59.685398,66.655060 66.012192,71.963539C67.150536,68.147636 68.165878,65.228584 68.888130,62.238747C71.957268,49.533703 76.473701,37.016121 73.175850,23.545773C72.193878,19.534857 72.263382,15.277589 71.521606,11.193040C70.996574,8.302023 71.883301,7.285971 74.757011,7.101545C82.352325,6.614103 86.350906,8.818473 87.663177,16.388889C89.360390,26.180067 90.053802,36.151787 90.999420,46.062946C91.306351,49.279888 91.047607,52.550797 91.047607,55.797024C91.582329,56.078068 92.117058,56.359112 92.651779,56.640160C95.207848,53.833786 98.198128,51.306301 100.220657,48.157257C103.449387,43.130199 105.967476,37.651978 108.910515,32.434734C112.061859,26.848244 117.439156,26.437906 121.463425,31.369848C126.432831,37.460114 126.982193,42.740627 122.340019,48.954834C113.073158,61.359829 103.574440,73.596970 93.925896,85.707787C91.443604,88.823563 91.277397,90.981369 94.185898,93.716919C102.190598,101.245644 110.085167,108.891953 117.985489,116.530861C120.330009,118.797798 122.830070,118.895134 125.092369,116.803566C130.192444,112.088394 135.557098,107.548523 139.984253,102.244637C145.440186,95.708244 144.825363,93.166893 139.376389,86.674164C132.208084,78.132736 125.256783,69.401199 124.140396,57.359070C128.581238,55.619827 132.459030,55.765419 136.203186,58.986019C140.486313,62.670208 144.945724,66.161301 149.464661,69.555054C152.197556,71.607483 154.538574,71.815598 155.669357,67.611168C157.308746,61.515751 159.278122,55.509850 161.047836,49.448563C165.094147,35.589981 163.542465,21.353628 163.900726,7.241974C163.953751,5.153360 164.618347,3.080271 165.000000,1.000000C166.388885,1.000000 167.777786,1.000000 169.583344,1.000000M78.241608,108.621841C73.532272,113.425056 68.708199,118.124573 64.201851,123.111221C63.193413,124.227142 63.298740,126.349556 62.891308,128.008591C64.592270,128.164261 66.348816,128.671967 67.984413,128.413696C74.523735,127.381134 81.012466,126.030838 87.546898,124.963318C90.592354,124.465790 93.699455,124.345688 96.800140,124.052475C95.546127,115.035110 89.358116,109.810791 78.241608,108.621841M173.601425,117.832214C179.375320,117.921120 185.255066,120.325378 191.663513,117.560425C183.311066,112.724396 175.827362,108.265984 168.212860,104.043411C165.105377,102.320175 161.726776,104.538155 159.622650,109.302391C158.052216,112.858215 159.391754,115.184677 162.949295,116.072784C166.145065,116.870598 169.448013,117.239044 173.601425,117.832214M423.449982,287.000000C414.591949,283.766998 413.375458,277.977112 413.838318,269.168213C414.955658,247.902634 414.212616,226.538666 414.185303,205.214417C414.182373,202.937469 413.951935,200.660812 413.769623,197.337830C412.001343,198.494415 410.868103,198.987366 410.060120,199.802673C402.440094,207.491562 394.856812,215.217178 387.306854,222.974960C385.138458,225.203079 382.805511,227.869034 379.844208,224.795517C377.300049,222.154907 375.611542,218.935623 378.551910,215.023193C388.247192,202.122665 397.815552,189.125305 407.312897,176.077927C414.167847,166.660645 420.858948,157.123428 427.571014,147.602951C431.345276,142.249481 431.309265,142.213913 436.848206,145.994019C437.123352,146.181778 437.462128,146.314529 437.668243,146.559570C443.119629,153.039886 449.910919,153.644394 457.767120,151.980179C464.223663,150.612488 470.925598,150.403183 478.301727,149.594635C477.407471,147.681244 476.904541,145.984100 475.923309,144.634842C473.869843,141.811142 471.661407,139.084091 469.336426,136.478119C466.713440,133.538162 466.796844,130.930420 468.811462,127.494781C470.259796,125.024811 471.079712,121.654427 470.818939,118.810493C469.908752,108.883629 468.466705,99.002762 467.101593,89.121712C466.538574,85.046356 468.037384,82.969444 472.148865,82.243202C484.413147,80.076881 496.605957,77.478951 508.905975,75.557251C512.744080,74.957611 516.952393,75.461746 520.786682,76.346878C531.335388,78.782021 537.613953,90.452347 533.839661,100.555519C527.912476,116.421761 518.369568,128.853287 500.992188,133.275665C498.428284,133.928162 495.772217,134.283051 493.136505,134.573090C489.504547,134.972778 489.085907,136.974976 490.397156,139.795761C493.341187,146.128876 499.089478,148.517456 505.962921,146.690613C507.975830,146.155609 510.337341,145.936783 512.314636,146.445496C518.873657,148.132996 525.409119,149.996689 531.785889,152.264404C534.188293,153.118759 536.663940,154.876083 538.146545,156.918442C539.877625,159.303146 542.083618,163.056702 541.271362,165.096420C540.444092,167.173615 536.243958,168.893829 533.441223,169.021011C523.299622,169.481262 513.124695,169.203079 502.962372,169.212173C501.631073,169.213364 499.957367,168.772934 499.048431,169.406570C497.666321,170.370087 496.112640,172.030304 495.977051,173.517258C495.882111,174.558594 498.018524,176.765167 499.180359,176.780457C502.777710,176.827759 506.785309,176.923004 509.903229,175.451691C515.762695,172.686661 520.232849,175.054199 524.735962,177.939346C529.465942,180.969833 527.863831,185.971344 527.808716,190.296692C527.796814,191.228592 525.838074,192.723740 524.590881,192.953308C518.056030,194.156158 511.425964,194.852188 504.905975,196.120331C502.423279,196.603210 498.682037,197.610321 498.067474,199.304581C496.611389,203.318909 500.825592,203.958481 503.489532,204.785843C509.832062,206.755661 516.239075,208.574371 522.712708,210.046066C527.299683,211.088837 529.769165,213.937592 530.211609,218.191208C530.648743,222.392761 527.018921,223.834564 523.823669,224.705505C518.718506,226.097015 513.511230,227.242432 508.275696,227.994812C501.802063,228.925110 500.167908,230.424637 500.140808,236.843475C500.124603,240.675110 500.232361,244.510208 500.100250,248.337387C500.012543,250.877686 500.918396,252.138580 503.547516,251.896057C508.448456,251.443970 513.348938,250.986374 518.251648,250.554398C518.895691,250.497650 519.610107,250.413116 520.193787,250.619278C532.383118,254.924698 544.623291,259.099121 556.701294,263.699127C561.019592,265.343781 562.484436,269.172028 562.273254,273.888916C562.124634,277.205963 560.960754,278.302368 557.749939,278.015472C544.667603,276.846313 531.567383,275.873993 518.488098,274.673035C498.363678,272.825195 478.267090,273.515076 458.214478,275.459656C451.640991,276.097107 445.122803,277.602081 438.674683,279.116547C435.142151,279.946228 432.340424,282.112640 432.005859,286.627319C429.299988,287.000000 426.599976,287.000000 423.449982,287.000000M432.036804,217.091217C433.252869,229.977768 434.502838,242.861282 435.665375,255.752655C436.038239,259.887177 438.190063,260.418213 441.818146,259.629364C450.096680,257.829376 458.433624,256.288361 466.767944,254.757095C480.411499,252.250381 480.418549,252.288956 479.932373,238.306732C479.728821,232.452835 478.204346,231.498459 472.597534,231.977005C467.051117,232.450348 461.412689,232.343582 455.855408,231.935654C453.765656,231.782288 450.403503,230.424164 450.036072,228.994644C449.117126,225.419296 448.813446,221.234299 452.798096,218.678696C454.188293,217.787094 455.660187,216.874146 457.225067,216.430374C462.812256,214.845932 468.427277,213.336212 474.087036,212.039368C477.983215,211.146606 480.397369,208.175049 479.892365,204.185776C479.269409,199.264786 475.542664,201.220413 472.883667,201.221832C470.574738,201.223053 468.260986,201.722946 465.958221,202.062302C458.947235,203.095459 455.400940,201.130920 452.789795,194.723129C450.824066,189.899231 451.805756,187.995407 456.787262,186.451218C461.231720,185.073502 465.699097,183.707367 469.998779,181.950409C472.240173,181.034485 474.462555,179.587723 476.109161,177.832520C477.864075,175.961838 477.873749,173.575668 474.562408,173.231430C468.657043,172.617599 462.723969,172.109528 456.792053,171.952698C449.040985,171.747757 441.275085,171.791092 433.526917,172.057648C432.002441,172.110123 430.065460,173.313980 429.112854,174.582962C424.882080,180.218658 425.222626,186.107437 428.595490,192.132385C429.966217,194.580872 430.568756,197.456284 431.914703,199.922440C434.888947,205.372162 435.954926,210.727859 432.036804,217.091217M488.417755,113.711792C496.224365,113.537415 503.442963,111.890686 509.613586,106.570007C514.774963,102.119576 516.059814,99.136742 514.138062,93.236908C513.352783,93.236908 512.510254,93.111038 511.717804,93.257133C506.175873,94.278854 500.592468,95.141800 495.120270,96.461739C483.874847,99.174232 483.899078,99.278938 484.872253,110.603676C484.928833,111.262085 484.783905,112.165596 485.151642,112.518448C485.771729,113.113441 486.727753,113.358360 488.417755,113.711792M486.666687,1.000001C491.556366,6.412549 496.394104,11.623719 500.499329,17.359175C501.746521,19.101645 501.407806,22.359592 501.025177,24.802805C500.384399,28.894464 499.174164,32.902267 498.110413,36.920696C497.253052,40.159489 498.756744,41.183968 501.724792,42.019321C511.601410,44.799072 521.200134,42.621201 530.739075,40.622162C538.116394,39.076138 545.135193,38.966072 552.044861,42.265053C556.343018,44.317139 559.797546,46.975697 559.678345,52.296471C559.611877,55.261524 553.985352,60.696289 550.099060,61.656319C549.324036,61.847759 548.409973,61.926899 547.661499,61.709133C530.460022,56.704376 513.324341,59.304302 496.444489,62.962170C489.340973,64.501518 482.814240,68.648796 475.967041,71.469101C474.551117,72.052284 472.822357,72.388596 471.332764,72.175316C468.052948,71.705688 464.858978,70.656624 461.584259,70.126869C455.818451,69.194145 451.151855,73.643410 452.609924,79.324013C453.872162,84.241684 456.414795,88.827072 458.338440,93.580788C458.943634,95.076218 460.036987,96.760826 459.783997,98.155098C457.902374,108.524757 455.281738,118.590919 447.941467,126.797134C441.349731,134.166504 433.098236,135.723236 423.870300,134.556702C422.386475,134.369125 420.854553,134.279587 419.446777,133.827393C415.657318,132.610138 413.784119,133.552139 413.921570,137.853302C413.972046,139.433304 413.421661,141.195267 412.651184,142.603973C411.174469,145.303970 409.196625,146.127808 406.804230,143.352982C402.890350,138.813416 398.876221,134.360275 394.959747,129.822891C391.861938,126.234016 388.396240,124.078934 383.266663,124.786667C373.952515,126.071762 364.577026,126.912117 354.927216,127.971001C354.986877,145.438828 356.265686,160.961899 368.160950,173.505661C372.051880,177.608704 370.448608,181.798492 364.861237,182.920227C357.044952,184.489471 357.045227,184.489487 357.046326,192.582443C357.046936,197.248734 357.091644,201.915573 357.036957,206.581223C356.927887,215.882568 361.159576,225.138672 357.186249,234.543594C356.714508,235.660202 358.295898,237.558441 358.683502,239.153229C358.953857,240.265518 358.988983,241.505096 358.818604,242.641220C358.309967,246.032501 357.412567,249.378693 357.092926,252.782501C356.300568,261.220581 355.691986,269.677277 355.118530,278.133911C354.867828,281.831268 352.860168,282.395447 350.074127,280.984558C348.343842,280.108337 346.643555,278.801666 345.462799,277.275726C340.342529,270.658661 336.922394,264.017792 337.585876,254.671722C339.057617,233.939651 338.814697,213.085526 339.245209,192.280624C339.271484,191.012100 339.073669,189.738953 338.917633,187.619064C329.057465,195.355072 321.368927,205.874542 306.599854,205.259430C318.568054,182.039017 327.005127,158.558853 332.190338,133.348877C325.650635,132.513916 319.418762,131.991318 313.303741,130.845306C308.938721,130.027267 304.567078,128.749008 300.498352,126.984482C296.414032,125.213188 296.310974,122.398338 300.088593,120.002541C302.419556,118.524231 305.161835,117.425903 307.866760,116.855927C316.158142,115.108795 324.495636,113.538361 332.867676,112.236740C336.256134,111.709930 337.159851,110.193726 337.235199,106.963333C337.782806,83.483894 338.469482,60.007442 339.223633,36.533627C339.281708,34.726261 340.253387,31.387911 340.697235,31.405233C343.691803,31.522110 348.110962,31.330954 349.377991,33.132282C354.355347,40.208649 357.229675,47.967251 355.938354,57.273766C354.046600,70.907631 353.224976,84.701302 352.367798,98.453079C352.260681,100.172020 354.429016,103.289803 356.021576,103.651291C365.525940,105.808670 375.154602,107.453506 384.794281,108.924698C385.732056,109.067818 387.339661,107.034119 388.101746,105.704475C390.468262,101.575439 391.992889,96.828049 394.923767,93.190376C399.242340,87.830315 404.567047,85.563965 412.376099,86.961349C421.184906,88.537636 430.492920,87.324409 439.600555,87.324409C441.065247,79.176620 435.605286,71.863388 426.964264,72.188530C416.892151,72.567551 406.739960,73.647362 396.862457,75.622871C385.570892,77.881203 382.228363,76.944000 376.858032,66.674866C376.248108,65.508553 375.771545,64.272499 374.897644,62.318760C391.423462,54.601494 409.034943,54.658836 427.322418,53.756390C423.798523,44.392689 420.492828,35.608845 417.109619,26.619040C421.091553,25.402435 424.104797,25.975101 426.957458,28.706787C433.453735,34.927578 440.435852,40.665501 446.654572,47.143024C450.744537,51.403255 455.288788,51.881210 460.271027,50.640823C467.933197,48.733227 474.580963,45.068832 478.025421,37.446342C479.017242,35.251438 479.753998,32.759563 479.845703,30.374552C480.095184,23.884537 479.903107,17.378593 479.953339,10.879485C479.983093,7.032083 480.977295,3.614799 484.844452,1.310022C485.444458,1.000000 485.888885,1.000000 486.666687,1.000001M408.361389,104.177216C408.570526,108.170982 408.780029,112.164734 408.988678,116.158524C409.138824,119.032509 410.615631,120.597588 413.495911,119.962326C420.747894,118.362839 428.022736,116.791092 435.137299,114.695213C437.001678,114.145973 438.314453,111.724190 439.880554,110.162376C438.057709,108.684387 436.365356,106.156555 434.389313,105.910965C426.035553,104.872681 417.597412,104.513634 408.361389,104.177216z"/>
</svg>