<svg x="0px" y="0px" viewBox="0 0 2038 302">
	<path stroke="none" d="M1546.049316,133.016571C1545.434937,128.962311 1545.132324,125.278809 1544.194336,121.764862C1543.811890,120.331802 1542.051880,119.266434 1540.918457,118.033829C1539.767334,119.344070 1537.832642,120.528481 1537.598633,121.985977C1536.491821,128.878159 1536.004517,135.867126 1535.015015,142.781311C1531.056274,170.444733 1527.323730,198.181763 1517.095215,224.448715C1515.183105,229.358826 1512.549438,234.097656 1509.579468,238.459854C1505.352295,244.668732 1498.609131,246.570557 1490.185425,248.670776C1493.957275,236.889236 1496.557739,226.366928 1500.662842,216.468582C1508.071045,198.605392 1509.591431,179.703156 1511.848877,160.915207C1514.071411,142.417572 1515.816406,123.862289 1517.724609,105.327515C1517.996826,102.682022 1518.116821,100.009933 1518.123047,97.349739C1518.159668,81.516495 1518.061279,65.682121 1518.258301,49.851238C1518.279541,48.141251 1519.541992,45.403503 1520.855713,44.947189C1524.896240,43.543621 1529.203613,42.675846 1533.474121,42.205082C1557.939209,39.508110 1582.425293,36.999664 1606.900757,34.395679C1613.021851,33.744450 1619.134033,33.007145 1625.243408,32.252266C1629.170044,31.767078 1632.393799,32.890953 1635.101074,35.854630C1639.254761,40.401833 1643.684326,44.702839 1647.726074,49.344166C1649.703247,51.614761 1651.553711,52.472614 1654.619141,51.839165C1677.905151,47.027470 1701.193604,42.214859 1724.552856,37.778858C1732.221313,36.322582 1739.452148,38.901382 1745.597168,43.461014C1750.806763,47.326641 1750.394531,53.116985 1744.503906,55.754662C1735.735596,59.680973 1726.643188,62.965919 1717.500977,65.949005C1709.971436,68.405952 1706.613281,72.568924 1707.240601,81.034843C1712.968750,81.402489 1718.574341,81.790520 1723.588013,77.707428C1724.702148,76.800003 1726.940674,76.336151 1728.279053,76.791855C1737.693848,79.997322 1743.475464,87.636147 1748.252930,95.544060C1749.996338,98.429878 1747.830566,103.584167 1747.712646,107.711143C1747.561646,112.994781 1747.640137,118.286385 1747.688354,123.573921C1747.744019,129.677689 1747.884155,135.780655 1747.970459,141.884216C1748.158203,155.163589 1748.191528,168.447113 1748.562866,181.721252C1748.846191,191.851196 1750.273804,202.032623 1745.900757,211.729141C1744.001953,215.939194 1739.858765,218.145660 1736.220825,215.638367C1730.687622,211.824768 1725.015137,212.141495 1719.015503,212.905075C1707.288574,214.397552 1695.554688,215.910049 1684.847046,221.411026C1680.581421,223.602493 1677.049316,226.560059 1676.431885,231.811920C1675.341431,241.088959 1670.145264,248.107635 1662.819214,253.045166C1653.194824,259.531891 1642.953369,265.119659 1632.815552,270.805481C1631.632202,271.469147 1628.993774,270.807220 1627.832397,269.817810C1626.984741,269.095520 1626.750977,266.339813 1627.451538,265.321869C1632.725464,257.658386 1638.221802,250.142975 1643.816284,242.707413C1646.113892,239.653610 1648.829956,236.915207 1651.346924,234.025742C1656.819458,227.742935 1657.197144,227.131775 1651.453491,220.869736C1647.036133,216.053543 1646.000854,211.568466 1647.633179,205.196915C1650.483643,194.071625 1648.443359,182.781601 1647.429077,171.478043C1646.624023,162.508255 1647.625977,153.319458 1648.404907,144.277817C1649.568604,130.768539 1650.008545,117.324455 1646.653564,104.075661C1645.629028,100.029556 1647.083740,99.290276 1650.685181,98.971016C1663.373169,97.846245 1673.088013,91.694855 1678.974365,80.370880C1680.564819,77.310860 1680.422241,73.349892 1681.093506,69.702698C1671.634033,70.210114 1663.579346,70.852982 1655.519043,70.934532C1653.354004,70.956436 1650.857056,69.671188 1649.072021,68.271965C1646.475952,66.236900 1643.822876,63.885464 1642.182373,61.089176C1635.986450,50.527950 1625.972168,52.662926 1616.525635,52.983913C1615.385132,53.022671 1613.954102,54.382408 1613.264282,55.503254C1612.234863,57.176167 1611.797607,59.203552 1611.015503,61.040585C1608.234375,67.573181 1607.737915,75.337524 1600.602051,79.532021C1599.172852,80.372078 1598.279663,82.352539 1597.473999,83.973526C1596.122314,86.693169 1596.548706,88.594658 1600.199219,88.227074C1606.159546,87.626923 1612.108276,86.893303 1618.076904,86.397758C1627.017090,85.655510 1634.533569,88.323563 1639.606812,96.130531C1640.373169,97.309937 1641.079712,98.946335 1640.909546,100.253616C1638.248657,120.698692 1636.166504,141.271332 1628.035400,160.562698C1624.040161,170.041351 1618.290649,176.380157 1606.801514,176.131989C1598.138062,175.944870 1595.984009,179.185608 1597.077271,187.700974C1597.310425,189.516785 1597.599609,191.332794 1597.998169,193.118500C1598.903320,197.173035 1601.024536,199.495804 1605.469849,197.726196C1609.026001,196.310654 1611.740112,197.452499 1614.617920,199.679230C1622.184692,205.533905 1629.398926,211.642410 1633.396851,220.637802C1634.260498,222.580963 1634.795410,224.677643 1635.394531,226.729019C1636.094482,229.125168 1636.942871,231.327713 1633.960815,233.245941C1630.847656,235.248535 1628.424927,234.772232 1625.865845,232.615585C1618.739502,226.610199 1611.603027,220.616623 1604.465576,214.624329C1603.230713,213.587646 1601.971313,212.580276 1599.752686,210.765289C1599.483032,213.337601 1599.081055,214.852997 1599.207520,216.322861C1600.521240,231.578186 1602.072876,246.815155 1603.175049,262.084900C1603.415405,265.415619 1602.938965,269.370544 1601.232300,272.040314C1600.306885,273.487640 1595.282837,274.079651 1593.492554,272.919739C1582.713135,265.935730 1572.276733,258.316620 1566.047485,246.616409C1564.813354,244.298599 1564.089111,240.506882 1565.158813,238.450241C1566.715210,235.457825 1570.292725,234.661011 1573.883545,236.403351C1575.142578,237.014267 1576.731689,236.944824 1577.961426,237.151062C1578.428711,236.531754 1578.801636,236.267532 1578.793213,236.016159C1578.278687,220.741531 1577.727295,205.468155 1577.195435,190.194107C1577.110596,187.757477 1576.383911,185.468643 1573.540161,186.251465C1572.183105,186.625076 1570.659912,188.688690 1570.349365,190.217850C1567.075684,206.336136 1564.244507,222.546799 1560.790527,238.624390C1559.798462,243.242203 1557.708984,247.834076 1555.206421,251.869537C1551.229736,258.281952 1545.032715,257.838715 1541.841797,250.978348C1540.466187,248.020996 1539.696289,244.307693 1540.054199,241.094055C1542.703979,217.301987 1546.437866,193.606110 1548.292236,169.760345C1549.223389,157.787827 1546.936768,145.565094 1546.049316,133.016571M1583.969727,141.734207C1582.681396,141.411835 1580.881348,141.514084 1580.197754,140.690033C1577.849731,137.859543 1575.006836,134.925339 1574.173218,131.577347C1573.776978,129.985718 1577.115967,126.728035 1579.433105,125.363113C1583.251953,123.113716 1587.510498,121.444740 1591.771729,120.149414C1599.233765,117.881073 1606.876221,116.206223 1614.343262,113.952675C1615.490967,113.606331 1616.646729,111.543282 1616.757324,110.189064C1616.818970,109.436035 1614.619629,107.656921 1613.625366,107.785034C1598.812988,109.693611 1584.032959,111.851662 1569.242310,113.930359C1566.418457,114.327225 1565.666138,116.098328 1566.172119,118.576546C1567.295654,124.081108 1568.551147,129.558777 1569.673218,135.063614C1569.992432,136.629776 1570.274414,138.268463 1570.162964,139.844864C1569.872925,143.949951 1568.949219,148.045349 1569.013550,152.133026C1569.144165,160.444504 1573.895264,163.795532 1581.971802,161.466919C1588.036865,159.718246 1594.178345,158.042862 1599.965454,155.581680C1604.800171,153.525482 1609.343506,150.627838 1613.690674,147.631241C1617.040039,145.322495 1617.380981,141.082062 1615.474365,138.260742C1614.411743,136.688370 1610.194214,136.419601 1607.616699,136.854996C1599.946533,138.150696 1592.384521,140.085739 1583.969727,141.734207M1717.328491,192.946030C1719.555176,192.288025 1721.860229,191.811081 1723.976074,190.896576C1725.055542,190.429993 1726.542603,189.198532 1726.567505,188.278015C1726.729736,182.316635 1726.810669,176.324173 1726.339478,170.387848C1726.134766,167.811066 1724.061401,167.334274 1721.409302,168.369202C1712.170410,171.974518 1702.815552,175.281677 1693.529053,178.767075C1689.570435,180.252823 1685.922241,179.640457 1681.997925,178.240067C1678.117676,176.855347 1673.893555,176.433929 1669.219849,175.465546C1669.219849,182.045746 1669.148438,187.343231 1669.238525,192.637955C1669.342407,198.740707 1672.947510,201.948944 1678.974243,200.796295C1691.518677,198.397110 1704.002319,195.679367 1717.328491,192.946030M1565.457886,86.968269C1571.669800,79.884132 1578.027832,72.919075 1583.976196,65.620041C1585.236572,64.073448 1584.999756,61.306797 1585.452759,59.102268C1583.567749,59.057304 1581.682861,58.990715 1579.797607,58.977325C1578.967285,58.971420 1578.122314,58.995422 1577.307373,59.138672C1566.855835,60.975731 1556.389893,62.743019 1545.980835,64.797104C1544.490112,65.091293 1542.162109,66.751106 1542.113037,67.862717C1541.684692,77.531181 1542.037354,87.180412 1546.106445,96.230347C1547.573975,99.494576 1549.755249,99.599434 1552.432251,97.392929C1556.540771,94.006233 1560.755859,90.748627 1565.457886,86.968269M1715.856445,100.043304C1702.555664,103.570168 1689.238525,107.037689 1675.976562,110.705070C1674.457153,111.125221 1672.185913,112.561760 1672.078247,113.698830C1671.635254,118.379646 1671.892822,123.126785 1671.892822,128.583435C1674.446899,127.661301 1676.147949,127.119820 1677.792358,126.441223C1686.540405,122.831383 1695.296997,119.240768 1704.003906,115.533691C1708.777832,113.501129 1713.356812,111.204704 1718.536377,114.732307C1719.824951,115.609955 1721.930908,115.287552 1723.882935,115.546127C1723.882935,110.139786 1723.882935,105.236763 1723.882935,99.984062C1721.321899,99.984062 1719.044067,99.984062 1715.856445,100.043304M1673.147339,150.579086C1669.228638,151.765381 1668.370117,154.894089 1669.593872,158.041626C1669.993164,159.069000 1673.544678,159.605682 1675.405762,159.206512C1684.972778,157.154449 1694.445801,154.668213 1703.979370,152.453430C1707.975708,151.525024 1712.116943,149.971832 1716.060059,150.298492C1727.674805,151.260635 1727.648926,151.573120 1726.874146,139.263992C1726.524536,133.710693 1724.851685,132.474182 1719.505859,134.313385C1704.263794,139.557571 1689.064697,144.927017 1673.147339,150.579086M299.070374,143.068115C308.009735,122.606476 316.915100,102.531349 319.470306,80.467247C334.008392,78.506073 334.550323,79.478462 338.888245,89.418259C340.047028,92.073532 339.098907,95.809959 338.628967,98.977463C337.877869,104.039780 338.997833,105.435982 344.051208,104.877983C344.382324,104.841423 344.713806,104.802414 345.042145,104.746864C360.664948,102.103226 361.739960,100.831818 361.739746,85.001228C361.739532,68.834824 361.733673,52.668419 361.746368,36.502026C361.747650,34.837986 361.261536,32.775757 362.048279,31.596806C363.481140,29.449738 365.699402,27.826809 367.589966,25.985193C368.901062,27.430826 370.766571,28.657345 371.437866,30.355848C378.439453,48.070503 383.750916,66.236336 384.624359,85.407005C384.794098,89.132545 386.068207,90.360291 389.724670,90.058624C393.365326,89.758263 397.064301,89.830620 400.715393,90.073959C405.387878,90.385361 408.950104,92.342461 410.326660,97.308990C411.452759,101.371864 410.760468,104.019875 406.638123,106.275856C400.541992,109.612000 394.892456,113.778099 389.138977,117.716789C387.649841,118.736229 386.368347,120.127846 385.184296,121.513298C375.691925,132.620605 376.675537,138.611435 390.158447,143.827682C400.497009,147.827438 411.530762,149.997635 422.120117,153.402069C425.251984,154.408966 428.056671,156.664780 430.779633,158.663803C436.259583,162.686813 441.549683,166.967468 446.982971,171.055618C448.966492,172.548065 450.771637,172.671509 452.404266,170.182419C463.136627,153.820129 470.011627,136.281616 469.274902,116.334328C469.056335,110.416481 468.525757,109.780586 462.438660,110.088829C447.638245,110.838287 434.560516,115.859314 425.373840,127.799492C421.427704,132.928375 417.361298,134.050400 410.405457,132.432404C411.294647,129.598740 411.602753,126.477837 413.117828,124.138680C422.384277,109.832001 430.932800,95.167953 435.351288,78.567398C437.262146,71.388138 438.142578,63.934612 439.601257,56.007130C443.382477,56.007130 447.367981,55.743420 451.277985,56.170631C452.425049,56.295963 454.036499,58.262688 454.271271,59.591133C455.282593,65.314041 455.548828,71.174690 456.666290,76.871414C458.637054,86.917923 461.430573,88.064964 471.180664,84.907547C481.922424,81.428993 492.805084,78.337158 503.741150,75.522934C511.751129,73.461693 517.890015,76.349579 521.696838,83.594742C522.327332,84.794624 521.747009,87.732635 520.707581,88.516090C516.349792,91.800850 511.713806,94.762871 506.968506,97.473335C502.787598,99.861404 498.411469,101.965141 493.959991,103.803162C490.674316,105.159836 488.818512,107.117462 490.001312,110.613739C495.237976,126.092682 488.922424,139.885574 484.103821,153.997559C480.504333,164.539200 477.672180,175.342361 474.095184,185.892380C472.186340,191.522202 473.855408,195.773010 477.242004,200.121597C485.604340,210.859222 496.954254,217.366119 508.985016,222.871689C524.324341,229.891327 540.302795,235.008163 556.926514,237.981216C559.756470,238.487335 560.777588,239.877960 560.897461,242.690475C561.257812,251.145752 561.149109,250.704681 553.525879,254.164093C533.312744,263.336792 515.499878,256.337219 499.129333,245.280624C486.939850,237.047882 476.205231,226.637360 465.003906,216.986404C462.922791,215.193329 461.703644,212.399765 459.918579,209.825531C450.892670,217.622437 443.561310,224.127411 436.043610,230.409424C424.673187,239.910873 413.198090,249.287720 401.717651,258.656494C395.771240,263.509186 389.472321,267.253693 381.229340,265.028809C374.363800,263.175720 367.223755,262.143677 360.580566,259.719543C354.312164,257.432220 353.013336,253.688873 353.718018,247.014282C355.516449,229.979263 357.173706,212.929291 358.851898,195.881805C358.994049,194.437958 358.870728,192.967972 358.870728,190.114258C354.966187,191.236221 351.536407,191.631851 348.700562,193.142471C338.431122,198.612885 328.177643,204.159790 318.276154,210.259079C310.876038,214.817520 303.744873,211.360916 296.534943,210.646698C293.855103,210.381210 293.852692,205.117752 296.839417,202.848251C300.935944,199.735413 305.282440,196.910431 309.715149,194.289093C321.034485,187.595337 332.420807,181.012070 343.856567,174.518921C353.841431,168.849609 359.253540,160.639084 359.009888,148.922546C358.864380,141.925720 358.850311,134.919464 359.050018,127.925232C359.138214,124.835838 357.876099,123.879837 355.066254,122.823273C343.964417,118.648781 334.402100,121.331734 326.977356,129.763580C318.213593,139.716049 310.174255,150.339996 302.281097,161.013214C297.347900,167.683990 297.080017,168.228882 288.141846,166.426590C291.761810,158.709503 295.347656,151.065155 299.070374,143.068115M380.109070,190.771698C379.034180,208.337585 377.874084,225.898926 376.935181,243.472076C376.645813,248.888550 377.854858,249.721069 383.383240,249.251541C393.516357,248.390945 401.438385,242.812302 407.625885,235.666504C417.931213,223.765091 427.260529,211.007339 436.705658,198.389236C437.675812,197.093170 437.392273,193.823730 436.416290,192.270706C429.092010,180.615799 419.915955,170.608292 408.557739,162.719757C401.285065,157.668747 393.660889,158.578354 389.325867,166.485428C385.330658,173.772766 383.174805,182.068527 380.109070,190.771698M1275.020996,39.927284C1280.738525,30.951899 1284.644531,21.710285 1285.759399,11.364006C1285.942505,9.664874 1287.220947,6.760952 1288.102295,6.719229C1290.337036,6.613431 1293.195679,7.190457 1294.792358,8.622504C1298.491455,11.939920 1301.560059,15.953902 1304.940430,19.633881C1326.424072,43.021214 1349.554321,64.460213 1376.686157,81.319717C1392.156494,90.932907 1408.949219,96.728752 1426.523193,101.107018C1441.172119,104.756523 1455.539062,109.599190 1469.906616,114.293411C1477.842651,116.886292 1480.267090,121.638718 1477.906738,129.847656C1476.741821,133.899368 1472.776001,134.624008 1468.968018,133.859116C1460.656250,132.189529 1452.336060,130.512192 1444.110840,128.469376C1425.036865,123.732063 1406.301758,118.001251 1388.526978,109.392448C1374.208374,102.457634 1360.849976,94.149506 1349.019409,83.465919C1348.031982,82.574249 1347.034302,81.689087 1345.986938,80.870636C1345.486694,80.479752 1344.858643,80.252594 1344.343506,79.980316C1335.256592,87.909836 1323.871704,89.602196 1312.914673,91.817780C1296.950928,95.045731 1280.796631,97.329865 1264.728027,100.042732C1259.205933,100.975052 1257.023315,104.201050 1256.285889,113.129242C1262.734863,112.578232 1269.077271,112.131660 1275.398071,111.477654C1291.615845,109.799629 1307.817749,107.963562 1324.042847,106.363251C1326.646362,106.106461 1329.405151,106.438370 1331.975464,107.016510C1339.363770,108.678345 1346.445557,109.156448 1352.745728,103.806770C1353.395996,103.254578 1354.710571,103.042076 1355.575317,103.253021C1365.155640,105.590202 1374.622437,108.214806 1382.019775,115.354042C1387.779419,120.912727 1389.284424,126.591362 1385.768921,133.736969C1379.688110,146.097015 1373.298340,158.314209 1366.679932,170.394989C1364.798828,173.828430 1361.851807,176.757767 1359.036011,179.558731C1357.953735,180.635269 1355.776367,181.366547 1354.263550,181.141861C1330.498291,177.612640 1306.776123,178.108994 1283.145020,182.023163C1270.360840,184.140701 1258.489502,188.755417 1248.205933,196.982971C1247.002197,197.946136 1244.387939,198.949249 1243.603638,198.362366C1232.771729,190.256042 1222.700806,181.519516 1222.754272,166.291855C1222.770020,161.792435 1222.892456,157.286667 1222.685669,152.796707C1222.609863,151.150040 1221.955200,148.310501 1221.159912,148.160477C1219.277588,147.805374 1216.747070,148.161377 1215.201294,149.253235C1210.321411,152.700226 1206.020874,157.001297 1201.015503,160.225784C1197.332764,162.598206 1193.018311,164.363449 1188.744873,165.288742C1186.583618,165.756683 1183.064819,164.393372 1181.735229,162.653885C1180.894409,161.554016 1182.320679,157.653442 1183.820557,155.996140C1199.683960,138.468155 1216.112305,121.441261 1231.681519,103.660393C1244.538086,88.977364 1255.069336,72.579491 1264.157593,55.237938C1266.979980,49.852108 1271.245605,45.222527 1275.020996,39.927284M1339.191772,151.285431C1341.319946,155.855682 1349.586182,157.145966 1353.915161,153.208801C1361.617920,146.203232 1363.079224,136.975342 1363.079468,126.730789C1356.146606,126.730789 1349.875000,126.618607 1343.609741,126.771034C1339.572266,126.869270 1338.052124,129.946304 1339.422974,132.949692C1342.188599,139.008667 1339.660767,144.644714 1339.191772,151.285431M1295.127930,67.645752C1303.598022,66.278366 1312.068115,64.910980 1320.848877,63.493446C1320.848877,62.553234 1321.198486,61.411083 1320.794556,60.692444C1316.898438,53.760700 1311.615845,48.112926 1304.459717,44.530899C1303.590210,44.095657 1301.331909,45.116447 1300.518066,46.115101C1296.857422,50.607204 1293.339233,55.234848 1290.072998,60.020641C1288.487671,62.343582 1287.569580,65.121933 1286.349609,67.694183C1289.000122,67.733124 1291.650757,67.772064 1295.127930,67.645752M1246.460205,167.076447C1247.239990,167.362503 1248.027222,167.629852 1248.798340,167.937759C1252.894165,169.573242 1255.922363,167.480347 1258.550659,164.840897C1261.209229,162.171082 1259.686401,159.390457 1258.270142,156.629028C1256.073853,152.346603 1254.189331,147.901016 1251.908691,143.666718C1251.026855,142.029327 1249.424683,140.779877 1248.150513,139.353729C1246.342041,141.206589 1243.258057,142.883453 1242.973389,144.946548C1242.231934,150.320755 1242.463013,155.882660 1242.854980,161.330215C1242.989380,163.198898 1244.750977,164.950516 1246.460205,167.076447M1272.828247,147.625610C1276.359741,151.917038 1278.158203,158.531769 1286.140625,157.770752C1286.840820,152.441162 1287.740112,147.539047 1288.073975,142.598724C1288.567627,135.292526 1287.559326,134.235519 1280.006470,134.442154C1276.207397,134.546066 1272.432739,135.537277 1268.646973,136.127258C1269.909180,139.754837 1271.171509,143.382416 1272.828247,147.625610M1309.570190,143.930161C1309.764404,145.071259 1309.743286,146.313095 1310.216064,147.323914C1310.651611,148.255157 1311.559570,149.508728 1312.364746,149.591034C1313.456055,149.702576 1315.063721,149.157791 1315.716797,148.321823C1317.536743,145.992523 1319.191284,143.475555 1320.527344,140.838211C1323.733765,134.508926 1320.441406,129.553009 1313.512207,129.784210C1309.755249,129.909546 1307.924805,131.592361 1308.224487,135.301178C1308.436401,137.926010 1308.942139,140.527130 1309.570190,143.930161M641.162964,232.203064C631.018921,236.363449 621.399048,241.059753 611.271362,244.017899C605.740051,245.633514 599.349121,244.306412 592.058655,244.306412C601.065857,238.406403 609.321350,233.708908 616.765015,227.960251C628.582886,218.833405 640.081848,209.254318 651.216675,199.307877C654.240234,196.607040 655.472412,191.900879 657.526794,188.115067C657.072388,187.717056 656.617981,187.319046 656.163574,186.921036C652.610901,188.030365 649.049438,189.112686 645.507202,190.254303C636.647156,193.109772 629.886047,188.817047 623.990723,183.227402C622.214294,181.543030 621.798401,177.793793 621.945007,175.053879C621.996094,174.099182 625.562439,172.787659 627.619873,172.575729C638.960571,171.407639 649.919495,168.953613 660.269409,164.046890C668.905579,159.952652 673.425781,153.674347 673.175842,143.605347C672.741699,126.119499 672.946289,108.613762 673.148499,91.119438C673.190430,87.496521 672.178772,85.806168 668.625732,84.818283C663.998962,83.531860 659.626343,81.359467 655.049744,79.856316C650.339966,78.309418 647.669312,75.731613 648.750977,70.387344C649.038025,68.969307 648.794312,67.443878 648.794312,65.225433C654.054260,65.225433 658.984131,65.264931 663.913147,65.215919C670.833801,65.147110 673.277222,62.789509 672.924988,55.786636C672.448792,46.316898 671.380493,36.851063 674.651672,27.630999C675.094482,26.382877 675.337585,24.829784 676.223877,24.022614C677.985962,22.417847 680.163696,20.134602 682.109497,20.191530C683.984619,20.246395 686.861877,22.574043 687.430603,24.465071C689.956482,32.862877 692.399475,41.369545 693.766052,50.011787C695.667542,62.036411 695.277832,62.268513 707.031128,59.903652C713.028992,58.696835 718.909241,56.864388 724.793030,55.144878C729.260132,53.839394 731.033813,50.668041 730.841003,46.035107C730.448303,36.597752 731.344849,26.983557 726.257996,18.306721C725.853882,17.617453 725.861572,16.290321 726.259338,15.589874C729.522644,9.844005 737.925537,8.740502 741.930908,13.961383C744.708069,17.581366 746.889343,21.897758 748.338257,26.236473C750.115234,31.557743 751.082458,37.190544 751.953552,42.758472C752.515015,46.347324 754.011902,47.669159 757.682190,48.174885C763.844055,49.023918 770.180908,50.042961 775.855774,52.404411C778.888123,53.666256 781.974976,57.560184 782.801331,60.831116C785.092957,69.901382 781.749451,73.492302 772.331055,73.598206C767.499268,73.652542 762.645569,73.884521 757.840393,73.522896C753.806458,73.219315 752.418457,74.967064 752.336609,78.608543C752.231750,83.271271 751.937195,87.931831 751.920166,92.594048C751.864685,107.757622 751.893555,122.921509 751.900024,138.085281C751.902710,144.474091 752.677979,145.250702 759.205750,144.789627C766.506165,144.273987 773.802429,143.670212 781.085815,142.955612C784.396790,142.630783 786.926025,143.376740 788.470276,146.570892C788.965881,147.596115 789.844910,148.445618 790.594299,149.337036C797.249939,157.253876 795.954285,159.542633 786.225647,163.471573C780.453125,165.802826 774.006531,166.469955 767.856934,167.858566C766.299072,168.210342 764.718140,168.459854 762.715271,168.838043C764.004578,175.033798 767.409485,179.249161 771.647949,182.736282C785.503174,194.135468 801.900513,200.717270 818.497986,206.780350C827.080505,209.915558 835.875610,212.467407 844.565918,215.309525C848.886719,216.722595 856.450562,228.645294 855.538696,233.042389C855.351868,233.942902 853.529480,235.005219 852.370605,235.126007C840.236877,236.390869 828.588379,234.165604 817.208435,230.011795C786.037964,218.634171 760.002686,199.795044 737.916077,175.303894C735.443787,172.562363 733.058655,171.778336 729.627930,172.461243C719.385742,174.500031 709.023621,176.014542 698.885132,178.465195C693.123474,179.857880 688.847778,183.955811 685.372192,188.960358C673.484741,206.077545 659.326599,220.945831 641.162964,232.203064M696.214966,139.668045C695.538147,140.146576 694.796082,140.555115 694.195374,141.115265C690.828796,144.254364 691.436462,148.041641 692.870972,151.689270C694.358276,155.471161 697.574829,153.830399 700.197571,153.413834C707.231934,152.296524 714.242188,151.027908 721.263977,149.831116C728.398010,148.615189 732.761353,141.973175 730.482544,135.143173C730.041382,133.820892 727.446228,132.078339 726.224609,132.335419C716.386719,134.405792 706.639893,136.908676 696.214966,139.668045M719.363953,76.996124C712.385620,78.339745 705.409363,79.693886 698.428284,81.023216C693.914185,81.882805 695.317932,85.469765 695.304504,88.175179C695.289124,91.265457 697.694519,91.469719 699.940857,90.958115C708.328186,89.047958 716.714478,87.112160 725.017090,84.874069C726.272705,84.535591 727.799133,82.635025 727.971069,81.298813C728.623291,76.230141 726.831055,75.290604 719.363953,76.996124M730.017639,103.323105C729.018066,102.879768 727.802063,101.822243 727.051941,102.086655C718.015076,105.272179 708.962341,108.452759 700.143677,112.178741C698.658264,112.806374 698.261047,116.009499 697.361023,118.022629C697.876221,118.648468 698.391357,119.274315 698.906555,119.900154C708.476196,117.050285 718.144165,114.472794 727.520020,111.086441C729.110718,110.511948 729.446289,106.462372 730.017639,103.323105M73.002060,118.049301C82.434669,115.695503 91.503487,113.540794 100.463478,111.002029C102.485466,110.429108 104.128456,108.518578 105.945908,107.223801C104.204788,105.514023 102.732964,102.888779 100.667610,102.281219C96.083710,100.932777 91.163025,100.776543 86.461678,99.756279C84.630318,99.358849 81.490555,97.728317 81.588783,97.032303C81.912758,94.736595 82.874321,91.807083 84.618629,90.571030C89.895515,86.831772 95.580162,83.637589 101.257652,80.506111C104.374725,78.786858 106.139267,76.311432 104.424797,73.304581C103.555931,71.780762 100.414711,70.746094 98.368271,70.847748C91.565407,71.185699 84.790138,72.112160 78.009964,72.864174C71.653496,73.569183 70.315346,72.651459 68.820213,66.373253C67.267838,59.854702 68.103745,58.678108 74.678795,57.962227C77.158958,57.692192 79.631500,57.341496 82.099823,56.975643C86.563263,56.314075 87.088432,55.094608 85.018066,51.048306C81.618462,44.404148 78.017906,37.833256 75.139969,30.964216C73.706375,27.542519 73.463692,23.548157 73.126228,19.773155C72.966370,17.984869 73.640991,14.619907 74.295502,14.528358C76.754379,14.184423 79.988441,14.051352 81.780518,15.385761C85.464745,18.129101 88.705017,21.631300 91.589836,25.250185C96.858139,31.859060 101.735260,38.779778 107.385277,46.391895C110.731476,42.826443 113.958366,39.810246 116.690331,36.397808C124.806824,26.259672 132.909454,16.098976 140.613037,5.648929C142.843643,2.623083 145.132584,1.753899 148.537170,1.972595C153.627609,2.299583 157.721680,5.810808 159.593109,11.988590C160.927170,16.392506 159.271729,19.363758 155.468964,22.012793C147.958176,27.244879 140.788727,32.967907 133.500549,38.517372C132.628006,39.181759 131.894699,40.028999 130.160004,41.686817C134.004929,41.686817 136.717575,41.733627 139.427094,41.662159C140.413879,41.636131 141.386612,41.269062 142.377014,41.158283C153.692780,39.892601 158.411041,45.605835 154.852386,56.549049C154.494385,57.649887 152.502350,58.531925 151.102371,58.928387C144.244659,60.870419 137.279068,62.442661 130.458908,64.501152C127.184303,65.489510 126.075905,68.639114 127.556953,71.355057C128.481964,73.051346 131.290131,74.415283 133.342178,74.547478C134.616776,74.629593 136.057709,72.129601 137.790756,70.428551C141.732788,71.678993 146.877487,72.449364 150.916214,74.982834C152.731079,76.121284 152.676575,80.776398 152.743988,83.851723C152.765472,84.831711 150.520889,86.615158 149.185913,86.747559C141.098175,87.549683 135.037903,91.436546 130.910294,98.255188C129.991135,99.773613 130.129196,101.932022 129.780518,103.795769C131.467957,103.993813 133.232376,104.615814 134.831177,104.325569C155.028900,100.658875 175.318817,98.421791 195.903427,99.155983C205.776306,99.508125 211.210922,104.635048 211.215698,114.484917C211.216812,116.796051 211.215866,119.107185 211.215866,122.097931C209.273819,122.097931 207.696548,122.057663 206.121826,122.104042C186.335602,122.686676 166.542862,123.123917 146.768814,123.988312C142.013687,124.196167 137.267181,125.638741 132.632629,126.929634C131.258606,127.312340 129.386658,129.028870 129.263687,130.283310C128.354736,139.555573 127.820953,148.864929 127.216057,158.165665C127.189140,158.579361 127.615707,159.022522 128.307999,160.403107C130.655945,158.770966 133.288193,157.632004 134.943115,155.669083C141.478378,147.917542 147.742233,139.935333 154.029434,131.977570C156.093338,129.365280 167.550537,127.320374 170.039886,129.316422C170.396957,129.602722 170.647690,130.093918 170.804260,130.540558C171.023087,131.164856 171.092056,131.840088 171.251022,132.487183C174.790314,146.895233 174.734558,146.822754 163.150055,155.860901C158.417068,159.553528 153.987640,163.635239 149.420120,167.539948C149.724503,168.119980 150.028870,168.699997 150.333237,169.280029C152.216431,169.444275 154.096573,169.689316 155.983276,169.760376C176.606720,170.537048 197.259216,170.863281 217.843201,172.226990C227.721588,172.881454 237.697235,174.655441 246.452759,180.131302C251.311996,183.170349 254.466507,189.995224 251.865189,194.768539C250.753098,196.809174 246.074966,198.690826 243.783295,198.021530C225.645813,192.724472 207.151703,192.142090 188.439896,191.757233C148.131287,190.928177 108.371796,195.726013 68.688171,201.787796C54.555462,203.946594 40.517864,206.816193 26.335527,208.515869C21.113926,209.141678 15.578819,207.456467 10.234883,206.543381C8.889864,206.313568 7.065499,205.261368 6.615191,204.128464C5.439229,201.170013 4.316713,197.934860 4.436707,194.859344C4.477105,193.823929 8.238006,192.404831 10.438703,192.062424C40.175728,187.435867 70.057358,183.594604 99.034966,175.021713C99.513039,174.880280 100.014809,174.817108 100.490021,174.668015C110.545746,171.513153 111.121162,170.113083 109.512192,159.576431C108.283653,151.531097 107.859734,143.362152 107.107391,135.245483C106.958038,133.634186 106.942696,132.010483 106.792526,128.860489C99.161003,131.458954 92.181946,133.411011 85.586769,136.253708C82.111343,137.751709 84.624374,140.658890 85.507195,143.116562C88.123276,150.399399 90.860558,157.680023 92.763779,165.161621C93.847069,169.420013 90.655434,172.818878 84.493523,174.295700C83.056435,174.640152 80.428490,172.326599 79.151596,170.631149C73.442398,163.050507 67.812752,155.390015 62.594666,147.468338C60.203598,143.838425 57.231232,142.677002 53.198830,142.051453C47.318302,141.139221 41.490013,139.661728 35.798679,137.908371C34.247375,137.430481 32.211922,135.039749 32.292084,133.634933C32.391663,131.889908 34.139259,129.230133 35.724567,128.738922C47.941013,124.953720 60.290596,121.598206 73.002060,118.049301M1043.872314,216.876373C1052.243042,206.920837 1060.303589,197.166901 1068.570068,187.590836C1069.930542,186.014893 1072.669556,183.902832 1073.936401,184.358780C1076.078003,185.129593 1078.399780,187.467346 1079.138184,189.655182C1080.882690,194.823593 1082.524414,200.272293 1082.654907,205.645370C1082.729980,208.735062 1080.528442,212.784134 1078.059692,214.878677C1065.885620,225.207428 1053.282837,235.031067 1040.822388,245.021790C1039.206543,246.317261 1037.538452,247.547501 1036.303223,249.620926C1046.489014,248.876495 1056.689575,248.292328 1066.856689,247.346588C1079.234985,246.195145 1091.257324,247.225327 1102.018433,253.839554C1105.692627,256.097778 1108.649902,259.823761 1111.278198,263.366089C1112.797729,265.413910 1114.467773,269.634491 1113.523804,270.781433C1111.051392,273.785126 1107.890015,276.687195 1102.886963,275.762756C1073.397461,270.314178 1043.775269,269.449066 1013.904114,272.565033C990.906982,274.963989 967.788574,276.194550 944.729309,278.010925C939.756042,278.402618 934.813110,279.312225 929.839172,279.480377C928.348206,279.530762 926.348633,278.210236 925.394775,276.917847C924.270081,275.394012 923.966858,273.236481 923.413635,271.323029C921.231750,263.776855 922.668823,261.865173 930.322876,261.122192C950.832581,259.131195 971.327881,256.990662 991.828857,254.909500C991.994568,254.892670 992.161072,254.881454 992.325806,254.857864C1002.199585,253.444534 1002.117554,253.442474 1002.350037,243.658249C1002.781067,225.511108 1003.221191,207.362961 1003.884277,189.223526C1004.037231,185.038879 1002.766846,183.491425 998.541748,183.990280C987.971558,185.238281 977.303589,185.839600 966.822083,187.584793C961.303711,188.503601 956.237366,187.607132 952.025391,185.021255C950.123962,183.853897 950.054688,179.033203 950.004700,175.856628C949.985413,174.629776 952.128357,172.627640 953.616760,172.236359C964.703369,169.321930 975.877747,166.742218 987.012329,164.007996C988.944092,163.533615 990.833069,162.867554 992.716614,162.217255C1003.967896,158.332718 1003.767151,158.322205 1003.967346,146.475449C1004.037659,142.318100 1002.362915,140.043350 998.721741,139.326187C992.049927,138.012100 985.331787,136.748749 978.572083,136.136551C974.709656,135.786743 972.928101,134.968460 972.945740,130.663513C972.990601,119.744209 972.826538,119.860085 983.469849,117.909126C1000.473511,114.792259 1017.385742,111.110695 1034.463867,108.500893C1040.361938,107.599579 1046.650146,109.085434 1052.732056,109.742523C1053.591064,109.835335 1055.046387,111.546867 1054.923096,112.294296C1054.501099,114.852226 1054.279297,118.429657 1052.581055,119.618530C1045.505371,124.572014 1037.873169,128.723358 1030.548950,133.334076C1028.527588,134.606689 1025.597412,136.239944 1025.292603,138.074585C1024.569092,142.429871 1025.001709,147.020569 1025.423828,151.472794C1025.482544,152.091583 1028.197998,153.036026 1029.559814,152.861786C1039.935303,151.534103 1050.299683,150.086853 1060.626831,148.424469C1066.288696,147.513062 1076.031494,153.632614 1076.788452,159.362350C1076.990234,160.889999 1075.799683,163.392685 1074.487671,164.179840C1070.665649,166.473099 1066.565796,168.411255 1062.382202,169.972794C1051.012573,174.216568 1039.581055,178.304199 1028.089600,182.205399C1024.956909,183.268936 1023.670288,184.616989 1023.619080,188.147583C1023.413513,202.298141 1022.789429,216.442398 1022.362915,230.590286C1022.320862,231.985092 1022.570801,233.388718 1022.729797,235.332550C1032.223877,231.380966 1037.503052,223.768219 1043.872314,216.876373M1971.676514,26.482071C1965.743408,44.329208 1960.037231,61.815960 1954.039673,79.202232C1952.869995,82.593025 1950.689697,85.669060 1948.756958,88.753387C1946.774902,91.916275 1943.950317,93.495300 1939.984497,93.431053C1936.352905,93.372231 1932.689331,93.918114 1929.076294,94.446922C1924.750977,95.079964 1922.514648,97.440964 1923.765381,102.776085C1926.662842,102.776085 1929.770996,103.057251 1932.813232,102.728897C1948.516113,101.034065 1964.164551,98.657433 1979.904419,97.531059C1996.397095,96.350784 2012.866699,97.104065 2027.694702,105.918648C2033.816772,109.557884 2037.054443,115.051384 2036.817505,123.847908C2030.700439,123.238342 2024.809937,123.150681 2019.135498,121.998375C1996.112793,117.323158 1973.271851,118.616531 1950.267212,122.477295C1909.776733,129.272629 1869.217041,135.677048 1828.608643,141.724548C1821.754761,142.745270 1814.511719,141.153259 1807.078125,140.748276C1807.078125,134.843643 1807.078125,129.776932 1807.078125,124.091583C1815.812378,123.402031 1824.735352,122.989357 1833.582520,121.937737C1851.398804,119.819969 1869.187012,117.449966 1886.953735,114.948311C1890.354248,114.469490 1893.599121,112.897545 1896.920898,111.846237C1900.632324,110.671707 1901.658325,107.980865 1901.075317,104.432327C1900.427856,100.493004 1897.278076,102.100601 1895.077148,101.901726C1888.840942,101.338249 1883.692749,104.185638 1879.168701,107.940987C1876.930542,109.798828 1875.347900,109.810707 1873.009155,108.555046C1865.155273,104.338554 1863.440186,100.860687 1864.531250,92.145996C1866.632690,75.361130 1867.326904,58.644238 1861.095093,42.406235C1860.399780,40.594547 1860.155396,38.609844 1859.537476,36.014317C1864.315186,36.014317 1868.584351,35.943249 1872.847290,36.074726C1873.692383,36.100796 1874.620605,36.778938 1875.321411,37.377659C1876.456177,38.347046 1877.518311,39.430904 1878.464600,40.586338C1883.381958,46.591316 1888.934692,48.372574 1896.851929,45.951385C1910.825439,41.678093 1925.168701,38.615746 1939.352417,35.027679C1940.886475,34.639610 1942.389160,34.127720 1943.906250,33.673267C1943.891602,33.102879 1943.876953,32.532494 1943.862427,31.962107C1939.921997,31.761452 1935.941284,31.100437 1932.048462,31.442158C1917.475586,32.721382 1902.948975,34.559582 1888.365112,35.660725C1884.405396,35.959702 1880.305664,34.405159 1876.503052,33.741913C1876.156860,33.150337 1875.872192,32.882420 1875.849609,32.594017C1874.971436,21.356970 1874.984253,21.413431 1886.053955,19.576904C1908.359741,15.876254 1930.637939,12.003219 1952.976562,8.515001C1955.422607,8.133048 1958.646606,9.168553 1960.707153,10.657434C1964.451782,13.363094 1967.847656,16.686548 1970.852661,20.209665C1971.953125,21.499723 1971.529663,24.089632 1971.676514,26.482071M1902.681519,79.037346C1913.811157,76.947678 1925.104736,74.972847 1934.241821,67.724762C1941.581787,61.902328 1941.997070,58.043983 1933.461914,52.548126C1919.385742,61.874722 1903.776245,67.206268 1886.003784,64.820099C1886.003784,69.139908 1885.981201,72.450684 1886.010132,75.761002C1886.038696,79.032104 1887.786377,80.838730 1890.993408,80.612534C1894.622925,80.356529 1898.221436,79.660927 1902.681519,79.037346M1332.607422,237.356583C1316.890015,241.943741 1301.187378,241.112701 1285.555542,240.986282C1284.086060,240.974411 1282.591675,239.846558 1281.169678,239.118240C1279.056396,238.035889 1276.997314,236.847656 1273.762817,235.071854C1273.762817,237.894363 1273.674561,239.305954 1273.778320,240.703308C1274.209229,246.505814 1274.741089,252.301010 1275.148071,258.105042C1275.368896,261.252869 1276.521240,262.410522 1279.950073,261.720459C1291.189575,259.458374 1302.576294,257.875916 1313.738281,255.302582C1319.610596,253.948776 1334.638672,262.132812 1337.464355,267.072601C1338.330688,268.586975 1336.798584,273.118530 1335.088623,274.147034C1330.340454,277.003021 1325.101440,279.569733 1319.727295,280.741943C1310.336914,282.790039 1300.636597,283.383667 1291.191895,285.229370C1285.879761,286.267456 1280.846313,288.677917 1275.639771,290.319183C1264.078003,293.963715 1264.766235,293.376251 1257.517822,284.123108C1251.029175,275.839783 1251.206055,267.521301 1252.353271,257.986664C1253.273560,250.337662 1252.672485,242.340988 1251.611938,234.655151C1249.832153,221.756531 1253.383667,209.533524 1255.240601,197.090561C1255.396484,196.045883 1257.395020,194.697342 1258.696533,194.490143C1275.590210,191.800674 1292.501465,189.212326 1309.433350,186.774216C1317.165283,185.660858 1324.932007,184.622726 1332.719849,184.103668C1344.747192,183.302017 1358.036987,191.793442 1362.696899,202.932220C1363.307739,204.392776 1363.322632,206.203949 1363.246338,207.835541C1362.175415,230.766159 1361.394653,253.719971 1359.703369,276.606049C1359.203003,283.377594 1356.276978,290.017303 1354.105957,296.599823C1352.833984,300.456451 1350.098389,301.307190 1346.204590,299.498047C1338.608398,295.968811 1334.058838,290.363251 1333.494019,281.936188C1333.409424,280.673706 1334.410034,278.479767 1335.393311,278.146454C1340.973755,276.254730 1342.819092,271.475525 1342.831421,266.788727C1342.857300,256.886871 1341.763428,246.982117 1341.102539,236.666962C1337.939331,236.899658 1335.489502,237.079865 1332.607422,237.356583M1311.547729,207.110657C1309.410400,207.416031 1307.234741,207.559311 1305.142334,208.054764C1295.970093,210.226837 1286.794556,212.397064 1277.683105,214.805573C1275.183594,215.466278 1273.061523,217.139389 1274.106079,220.329056C1275.238037,223.785095 1277.776245,222.812668 1280.254395,222.135941C1292.929443,218.674728 1305.703125,215.636917 1318.933594,215.648468C1322.681641,215.651733 1326.533203,216.291122 1330.140137,217.325943C1332.606812,218.033615 1334.612671,220.227936 1337.045654,221.209518C1339.200073,222.078735 1341.659668,222.191055 1343.984497,222.637527C1344.396362,220.491211 1345.282349,218.303543 1345.099609,216.209122C1344.874146,213.623749 1344.162720,210.886826 1342.892456,208.652634C1342.000000,207.083099 1339.790283,205.202194 1338.225342,205.251511C1329.614014,205.522949 1321.020264,206.346100 1311.547729,207.110657M1969.813354,133.051819C1972.159790,134.947281 1974.534912,136.365967 1976.176147,138.382217C1982.533569,146.191833 1982.446289,147.475815 1977.332275,153.757599C1968.526611,164.574020 1960.471069,176.043915 1951.138916,186.370453C1946.645386,191.342957 1939.845337,194.183075 1934.353638,198.337418C1933.058960,199.316772 1932.165527,201.720764 1932.210205,203.440216C1932.728760,223.386154 1933.559570,243.324051 1934.065552,263.270233C1934.178223,267.711761 1933.733643,272.254608 1932.855835,276.611816C1931.781128,281.946320 1928.183960,284.396576 1922.743164,284.131378C1906.908447,283.359467 1896.090210,273.971375 1886.900513,262.400909C1885.295166,260.379669 1886.109009,256.437012 1885.759644,252.918259C1892.439575,254.545944 1898.358643,256.034943 1904.302246,257.418365C1907.677124,258.203827 1909.412842,257.477325 1910.469971,253.395432C1913.831177,240.417648 1913.237183,227.297989 1912.754761,214.200394C1912.374634,203.880432 1907.887451,200.660721 1898.100830,203.737686C1890.694824,206.066238 1883.568359,209.360931 1876.478027,212.579208C1873.659424,213.858566 1871.670898,214.011841 1870.636597,210.887253C1868.253296,203.687515 1865.392334,196.551147 1863.976318,189.149719C1862.169800,179.708740 1861.508545,170.040848 1860.523926,160.453293C1859.921143,154.584442 1864.250610,151.948380 1868.483521,149.610138C1880.882568,142.760803 1894.572388,139.730957 1908.272339,137.107819C1924.257935,134.047058 1940.334106,131.322586 1956.478882,129.323868C1960.612061,128.812180 1965.151978,131.585434 1969.813354,133.051819M1930.381592,151.006424C1914.395996,153.671600 1898.410400,156.336777 1882.325073,159.018585C1882.325073,165.372650 1882.311157,170.857758 1882.328857,176.342743C1882.345947,181.636063 1883.964355,183.107559 1889.270264,182.547760C1893.730835,182.077179 1898.203369,181.645660 1902.630249,180.942917C1915.288208,178.933441 1927.922485,176.756378 1939.410645,170.597488C1945.921753,167.106827 1951.226074,162.494034 1952.719116,154.795273C1953.618896,150.154739 1951.794312,148.127502 1947.048950,148.648056C1941.765381,149.227631 1936.517456,150.131058 1930.381592,151.006424M701.641113,263.770325C705.805725,260.823792 707.430176,257.099640 707.148804,252.369736C706.901855,248.218842 707.050293,244.044693 706.811646,239.893021C706.619324,236.548416 704.987366,235.325287 701.468689,236.311722C697.004517,237.563217 692.435791,238.691025 687.841736,239.122940C685.593994,239.334274 683.144165,237.962372 680.871338,237.085464C679.832031,236.684494 679.072266,235.609283 678.060608,235.078018C673.232605,232.542557 672.720215,229.142624 677.355225,225.980438C682.273010,222.625427 687.625549,219.875809 692.921509,217.117813C696.750549,215.123764 700.788696,213.528076 704.749817,211.791885C707.824585,210.444183 709.364624,208.283173 709.185242,204.779266C708.827759,197.797760 708.564819,190.807068 708.502930,183.818069C708.489014,182.242767 709.446350,179.323105 709.978882,179.317947C711.925598,179.299118 714.848328,179.640213 715.668762,180.940369C719.447449,186.928574 723.292236,193.030731 725.861145,199.582977C728.428772,206.132019 730.516785,208.645630 737.572998,208.838440C740.400330,208.915710 743.235596,208.706085 746.062744,208.785995C748.661377,208.859436 753.102173,208.401932 753.531311,209.467346C755.458496,214.251785 756.319946,219.481522 757.290161,224.602844C757.362488,224.984787 755.329224,225.980133 754.166443,226.344650C748.939941,227.983093 743.649902,229.419525 738.428833,231.074234C731.534363,233.259323 729.713623,235.832489 729.708069,242.995422C729.703064,249.451553 729.707031,255.907684 729.707031,262.836121C735.681580,262.410065 741.089050,262.102966 746.481445,261.624420C759.572266,260.462616 772.645874,259.091888 785.746704,258.063904C792.750488,257.514282 807.513977,267.391510 808.570862,274.133972C809.184753,278.050446 807.549561,282.663574 805.781311,286.424866C805.152771,287.761780 801.138306,287.932617 798.674438,287.915405C773.024719,287.736511 747.373779,287.064240 721.727783,287.233368C700.598450,287.372681 679.473206,288.400055 658.350830,289.164001C651.745911,289.402893 646.487732,286.281128 641.461243,282.762299C639.885864,281.659515 638.711609,279.344116 638.274902,277.379120C637.144897,272.293976 638.209717,271.395538 643.485352,271.163788C657.930908,270.529175 672.402893,270.124969 686.794861,268.846313C691.741516,268.406799 696.482361,265.651367 701.641113,263.770325M1063.947754,80.067810C1083.951294,96.476387 1106.258301,108.075638 1129.535889,118.282944C1141.493408,123.526390 1152.510742,130.905243 1163.991455,137.249390C1168.193726,139.571487 1168.173828,143.477554 1167.523926,147.250671C1167.353271,148.241241 1164.452271,149.723602 1163.188232,149.414307C1151.138062,146.465652 1138.715210,144.326111 1127.262817,139.779388C1090.647949,125.242943 1059.589233,101.626991 1029.010010,77.415344C1021.851196,71.747177 1014.936951,65.770042 1007.405334,59.515770C1005.674377,61.662182 1004.100769,63.489716 1002.661133,65.417336C982.633240,92.235001 962.576843,119.055252 939.152954,143.059921C931.519165,150.882996 922.779358,157.631592 914.475586,164.790726C913.241455,165.854691 911.692688,166.653534 910.163025,167.251297C907.934143,168.122284 905.605042,170.949280 903.255920,167.470383C900.257751,163.029968 901.088867,160.770874 904.272217,157.235809C916.610657,143.534027 929.593628,130.250443 940.497803,115.455933C958.457886,91.088371 974.910889,65.613350 992.191772,40.738995C995.492920,35.987251 999.592529,31.770552 1003.504089,27.471075C1005.419189,25.366056 1007.346924,25.492598 1009.217590,28.048161C1024.248047,48.581520 1043.692383,64.502693 1063.947754,80.067810M151.720459,272.722198C129.886642,274.522827 108.501648,276.204620 87.137611,278.120331C83.329895,278.461792 80.876045,277.462769 80.038071,273.739380C76.982399,260.161865 73.821846,246.601807 71.141945,232.948578C69.898087,226.611450 69.692924,220.072464 68.968826,213.630386C68.619614,210.523621 70.062805,209.612122 73.012245,209.541153C79.944496,209.374405 86.934769,209.392929 93.784958,208.470520C112.392853,205.964935 130.877853,202.417328 149.534805,200.453705C160.795319,199.268539 171.666077,202.771225 181.144989,209.191849C186.654739,212.923904 186.996445,219.567810 182.735199,224.775101C179.574020,228.638062 176.488037,232.563385 173.409897,236.493286C168.246384,243.085556 164.664764,250.164825 165.921326,258.966095C166.317307,261.739594 165.891891,264.621460 165.992920,267.448364C166.103775,270.550049 164.883209,272.032745 161.627487,272.037048C158.476868,272.041229 155.326767,272.451385 151.720459,272.722198M93.078262,234.751038C93.080254,238.743759 92.941353,242.742828 93.120491,246.727585C93.336380,251.529633 95.899635,253.911407 100.752762,253.950821C108.404968,254.012955 116.069115,254.203934 123.706528,253.859512C127.966660,253.667404 132.492523,253.247467 136.360352,251.637238C147.457062,247.017548 150.644821,237.157532 151.692429,226.239960C152.107834,221.911041 150.391785,219.809586 145.705750,220.036224C135.910034,220.509964 126.076767,220.360748 116.302849,221.071518C110.744942,221.475708 105.203033,222.801804 99.785057,224.215347C95.107124,225.435806 92.442688,228.626480 93.078262,234.751038M1752.430420,270.648193C1743.069092,262.153900 1733.757202,254.119400 1725.080322,245.449478C1720.536621,240.909485 1718.641113,234.727371 1718.459595,228.125992C1718.388794,225.553879 1719.215332,224.090988 1721.752441,224.463623C1724.961304,224.934937 1728.493530,225.164124 1731.210815,226.695801C1745.252319,234.610275 1755.189087,246.675613 1762.890137,260.491333C1764.633789,263.619110 1764.102295,268.257324 1763.704590,272.105896C1763.635742,272.772369 1758.976929,273.299835 1756.454712,273.235870C1755.198242,273.204041 1753.979370,271.688599 1752.430420,270.648193M1994.499268,237.535706C1990.422607,233.850952 1986.897705,230.013184 1982.760132,227.023224C1975.352173,221.670212 1975.335327,214.431015 1976.500488,206.655960C1991.175781,203.557785 2020.919434,228.741714 2021.830566,244.980255C2019.602661,246.214691 2017.368774,247.445435 2014.174561,249.205292C2008.112183,245.630142 2001.443604,241.697433 1994.499268,237.535706M1841.918823,230.043793C1842.298584,227.307739 1842.472290,224.983002 1842.996704,222.740295C1845.447998,212.257980 1849.166870,209.784195 1860.213013,211.307220C1862.740112,223.366089 1863.974121,235.384949 1858.009277,246.980927C1855.405762,252.042572 1851.993408,253.569885 1847.130249,252.464523C1841.766724,251.245392 1841.234741,247.279984 1841.340576,242.908707C1841.440796,238.768234 1841.690430,234.631363 1841.918823,230.043793M984.123718,228.846878C985.582153,235.183685 986.967590,241.123154 988.341431,247.012939C980.317200,249.506531 977.057617,248.761261 972.920715,242.609222C968.766968,236.432190 964.481689,230.167206 961.613708,223.367294C959.862183,219.214447 960.575134,213.982407 960.452271,209.228088C960.435059,208.563599 961.873474,207.468109 962.803772,207.235931C969.139099,205.654785 975.313843,208.212906 978.335815,214.188705C980.638062,218.741379 982.173950,223.681656 984.123718,228.846878z"/>
</svg>