<svg x="0px" y="0px" viewBox="0 0 564 282">
	<path stroke="none" d="M212.416656,283.000000C206.421387,276.919708 200.965073,270.822144 198.522308,262.596710C196.829010,256.894897 194.607178,251.347382 192.540085,245.761047C191.971100,244.223343 191.109756,242.793839 190.718399,241.997833C183.093994,241.997833 175.989868,241.872711 168.891342,242.019394C137.237488,242.673477 105.834938,246.180389 74.510773,250.517746C66.768417,251.589813 59.053562,252.866806 51.303165,253.873215C33.693680,256.159821 22.485643,247.164536 22.117630,229.097748C21.358974,191.853424 19.244045,154.552704 23.855051,117.392761C25.694445,102.569160 27.675922,87.752380 30.098091,73.015556C31.805984,62.624485 32.951511,62.195137 44.151047,64.390381C43.703995,72.555573 43.400410,80.821220 42.770554,89.061928C41.263809,108.775223 39.608700,128.477203 37.995590,148.182297C37.860172,149.836548 37.478985,151.474930 37.406464,153.129211C37.264236,156.373444 36.711720,159.235489 39.003395,162.643112C41.078613,165.728882 40.602844,170.625031 40.969757,174.748062C42.399052,190.809143 43.518917,206.900299 45.154022,222.939484C46.038975,231.620209 46.383385,231.415741 55.208992,230.357315C73.707024,228.138901 92.229172,226.121902 110.738556,223.997284C112.167206,223.833298 113.573395,223.473694 115.575615,223.093933C113.142082,218.025146 111.047340,213.395599 108.715851,208.888535C106.784683,205.155334 106.431091,201.745178 107.883278,197.514664C109.633743,192.415131 110.663864,186.863937 110.841446,181.469940C111.255913,168.880600 110.973740,156.268341 110.973740,142.358932C93.021065,160.038940 78.606087,179.778229 57.418892,192.933197C55.718216,189.247101 54.227974,186.478638 53.212933,183.545700C52.893867,182.623779 53.499348,180.888321 54.276070,180.153625C69.736275,165.530136 80.050919,147.218887 90.854393,129.267929C94.257622,123.613159 97.356117,117.775002 101.069275,111.176308C87.538086,111.049217 75.012131,116.998512 62.144955,111.005829C60.892181,107.491890 63.245911,104.808426 66.187561,103.422531C75.158554,99.196030 84.269302,95.219917 93.521156,91.653481C98.926254,89.569901 104.660606,88.259300 110.332436,86.980629C113.508934,86.264503 114.692314,85.256371 114.252098,81.647545C112.924751,70.766304 112.111183,59.822392 111.079010,48.706089C115.553696,47.303936 119.118446,48.376587 121.490677,52.241379C125.653603,59.023560 129.769043,65.847672 133.545410,72.847870C134.998825,75.542061 136.572815,76.538254 139.642792,76.799644C145.220444,77.274551 150.911011,77.950089 156.228653,79.595055C164.266327,82.081413 166.772873,87.095406 165.514297,96.169586C160.516663,96.784889 155.424057,97.357025 150.349457,98.059258C147.719284,98.423225 145.135452,99.120796 142.505722,99.489578C132.039795,100.957329 131.653824,110.065804 136.230331,117.213539C140.505524,123.890717 147.048447,129.266846 153.146515,134.580688C158.518021,139.261383 164.816116,142.860565 170.414200,147.303757C178.519272,153.736786 185.333817,161.293396 190.285736,172.599411C185.264404,173.190979 181.351837,174.169464 177.485474,174.012253C164.925781,173.501526 153.954514,168.009735 143.962006,161.108429C139.582382,158.083664 136.968903,152.501648 133.142746,147.549225C133.142746,171.986237 133.142746,196.064972 133.142746,220.433136C143.858444,219.171951 155.047852,217.883453 166.229385,216.529831C174.949692,215.474182 183.123856,217.469406 190.727417,221.457855C198.133728,225.342850 199.095139,230.164688 194.170959,238.128525C198.518372,237.061951 202.350754,236.313828 206.023605,235.087708C206.960175,234.775024 207.987518,232.935822 207.966660,231.816727C207.449127,204.024658 206.756622,176.235931 206.189392,148.444687C205.995605,138.950897 206.032471,129.451996 206.005112,119.955322C205.943207,98.460800 205.920013,76.966164 205.854630,55.471653C205.822433,44.887188 201.926514,40.008533 191.422012,37.789352C187.702271,37.003521 183.863541,36.504631 180.065582,36.408169C142.875000,35.463596 105.806915,35.841320 69.621986,46.347824C61.019756,48.845535 52.213360,50.640083 43.255112,52.817810C42.848301,52.155418 42.385246,51.494888 42.015865,50.785583C38.196377,43.451134 38.469147,42.762913 46.117630,39.835182C77.427177,27.850359 109.316399,17.906294 142.823853,14.516488C160.823959,12.695496 179.015381,10.893406 196.850388,15.902809C214.054749,20.735086 225.809540,36.637161 225.855713,54.491646C225.964310,96.480942 225.859894,138.471909 226.216202,180.459000C226.402573,202.420990 228.087860,224.389465 227.679169,246.328598C227.494934,256.218842 224.040848,266.092010 221.634552,275.865601C221.048691,278.245209 218.743698,280.201569 217.114594,282.676270C215.611115,283.000000 214.222214,283.000000 212.416656,283.000000M565.000000,253.600006C559.770874,268.906799 546.608337,272.111816 533.496521,274.546997C515.517578,277.886047 497.436249,278.373749 479.592743,273.094604C462.756470,268.113434 448.896332,259.276062 444.082977,241.451752C442.362183,235.079529 444.139740,227.714554 444.580963,220.819351C445.075012,213.098755 445.864380,205.397064 446.525238,197.687149C445.871094,197.387619 445.216980,197.088089 444.562836,196.788544C442.906464,198.793930 441.125732,200.710083 439.613251,202.818665C426.561157,221.014542 412.423126,238.196838 394.435944,251.845703C384.133301,259.663452 373.004883,265.884583 360.473511,269.329926C358.538605,269.861908 356.413208,269.701202 352.972229,269.970764C375.584686,247.006241 401.966003,229.304398 415.699158,198.827225C409.337036,198.827225 404.236603,198.763321 399.138672,198.849274C395.632355,198.908386 394.309753,197.312775 394.810516,193.908371C395.270355,190.782257 395.428589,187.603226 396.030670,184.507996C400.212219,163.010254 394.289246,141.759323 394.493073,120.355659C394.552246,114.144234 394.341553,113.679161 400.691437,113.906471C425.840576,114.806763 449.977509,110.326691 473.442383,101.307312C486.469360,96.300034 500.619019,108.075607 499.391357,121.899689C498.077545,136.694702 496.297363,151.345245 491.097382,165.356232C487.628265,174.703598 482.883484,182.813507 472.030884,185.351471C470.465576,185.717560 468.647034,188.261444 468.301575,190.058197C465.918030,202.456039 463.287018,214.857040 461.924408,227.386292C460.535767,240.154617 472.279327,251.823425 485.991455,252.086807C499.149261,252.339523 512.318604,252.255524 525.478577,252.045746C535.405090,251.887527 540.413818,245.807755 539.671082,235.720581C538.937744,225.760498 538.338989,215.788696 537.862244,205.813370C537.785583,204.210556 538.590027,201.196762 539.097961,201.172668C541.259277,201.070190 544.050720,201.175140 545.514282,202.457413C547.805054,204.464432 549.836243,207.255981 550.877319,210.115646C555.136047,221.813522 558.981018,233.662109 562.968994,245.458344C563.444336,246.864578 563.862671,248.290115 564.653748,249.853333C565.000000,251.066666 565.000000,252.133347 565.000000,253.600006M472.047180,123.251465C457.537476,125.932236 443.006226,128.504288 428.534882,131.378235C425.332581,132.014175 422.205292,133.457199 419.287903,134.992905C415.356201,137.062561 416.724670,140.752914 417.470551,143.869690C418.158264,146.743362 420.398193,146.871170 423.045074,146.250290C434.371674,143.593399 445.821136,141.416824 457.053955,138.420944C463.107483,136.806412 468.929291,134.130310 474.598694,131.399658C476.067627,130.692139 477.271637,127.964378 477.241180,126.187859C477.223969,125.187004 474.439392,124.233635 472.047180,123.251465M471.763611,160.884262C471.882965,154.783356 470.457367,153.370758 464.536804,154.173676C461.586670,154.573776 458.608490,155.133820 455.788605,156.063339C444.323334,159.842712 432.872681,163.677078 421.513916,167.761658C418.654724,168.789795 416.130798,170.982483 417.272736,174.651169C418.530273,178.690994 422.020782,177.185226 424.460419,176.644958C434.336426,174.457947 444.250397,172.291168 453.909424,169.330734C459.973694,167.472076 465.609283,164.214844 471.763611,160.884262M395.800537,48.093033C394.804718,45.793293 393.754669,43.854103 393.344666,41.787899C392.680420,38.440468 393.583771,36.249619 397.641144,35.503441C405.474304,34.062885 413.199371,32.028603 420.957153,30.189421C422.529083,29.816757 424.047455,29.218342 426.370514,28.474133C423.297333,26.184212 420.775726,24.467707 418.450348,22.517300C416.810822,21.142153 414.682983,19.683018 414.114563,17.846245C413.154999,14.745599 411.911835,10.578772 413.218964,8.191080C415.378265,4.246552 420.225494,2.822053 424.646179,4.614556C436.026917,9.229208 447.814728,13.396463 454.467407,25.064638C455.003143,26.004353 457.101685,26.894712 458.103333,26.589897C464.396118,24.674992 470.586273,22.421679 476.801361,20.254538C477.249725,20.098207 477.594910,19.591368 478.041840,19.493898C485.376984,17.894165 496.785004,28.397326 495.464935,35.753597C495.233826,37.041348 493.482849,38.836723 492.216248,39.039669C476.569000,41.546890 470.015015,53.115543 465.250305,66.182632C463.345123,71.407639 465.714844,74.094818 471.392395,73.802284C485.833557,73.058212 500.278015,72.259987 514.688538,71.083847C523.996582,70.324150 531.452698,74.233765 537.200684,80.544891C539.624451,83.206192 539.222961,88.565285 539.679810,92.744621C539.740784,93.302368 537.284668,94.743355 535.997192,94.739548C528.843506,94.718391 521.692261,94.277748 514.537292,94.163635C488.178558,93.743179 462.019470,95.913269 436.107117,100.732727C421.410126,103.466232 406.770477,106.513214 392.125244,109.517784C384.401276,111.102417 374.521301,105.277580 373.502197,98.419724C373.103790,95.738892 373.472626,94.197258 376.777161,93.697777C385.473663,92.383316 394.174286,90.919159 402.731140,88.909370C410.807190,87.012505 410.719818,86.674026 410.093597,78.525734C409.456909,70.240707 408.837463,61.954357 408.251648,54.212715C403.930664,52.155788 399.982147,50.276173 395.800537,48.093033M429.222137,66.850647C429.473907,67.813141 429.707977,68.780685 429.980560,69.737236C431.033112,73.430794 431.892883,77.759911 436.328400,78.401985C441.105835,79.093567 444.192505,75.457832 445.697601,71.582939C448.137268,65.302086 449.799896,58.705650 451.477081,52.162109C451.659302,51.451275 449.822449,49.407528 448.844299,49.351933C443.883392,49.069973 438.894073,49.143597 433.920135,49.284504C430.338165,49.385971 428.505066,51.236553 428.756134,55.032078C428.996857,58.670860 428.994019,62.325756 429.222137,66.850647M289.179047,203.373444C297.341766,196.467514 305.346222,189.944458 313.034668,183.068069C314.654755,181.619064 315.936340,178.889618 315.977325,176.723724C316.238922,162.900589 316.014191,149.069016 316.164551,135.242554C316.213043,130.783813 314.326843,128.319366 310.069641,127.596771C304.342163,126.624634 298.615479,125.614479 292.855774,124.875420C287.906219,124.240311 286.277771,121.884033 288.782623,117.565331C290.045807,115.387390 292.138947,113.227715 294.380615,112.171852C299.918030,109.563622 305.701721,107.436417 311.491699,105.417870C317.297913,103.393661 318.971710,100.790855 317.550507,94.990723C317.432037,94.507195 317.174377,94.029922 317.173615,93.549446C317.152832,80.267426 317.156952,66.985374 317.156952,52.997070C321.640594,52.997070 326.744415,52.849030 331.823059,53.140308C332.686768,53.189846 333.982025,55.038578 334.165131,56.200020C336.154144,68.813980 337.970490,81.455284 339.802704,94.093651C339.989502,95.382332 339.972748,96.700516 340.085693,98.597687C344.386993,98.059570 348.429901,97.583176 352.464142,97.042046C358.196381,96.273155 366.145660,100.165771 368.932739,105.051674C370.696259,108.143211 369.784088,111.050385 367.140808,112.425804C361.605621,115.306030 355.898132,118.263786 349.904510,119.761604C340.141541,122.201401 338.683594,122.493668 337.806671,132.390213C336.957062,141.978516 337.291992,151.675812 337.215271,161.326111C337.192200,164.227036 339.004181,165.898422 341.754700,165.105789C346.149139,163.839447 350.388306,162.027191 354.676361,160.401489C357.744080,159.238464 360.784393,158.003006 364.125793,156.686005C365.883972,162.467987 365.016357,165.926620 361.374390,169.416763C343.244690,186.790787 322.936340,201.276215 301.610107,214.293442C297.661713,216.703476 291.797455,215.974731 286.381897,216.757629C285.910248,211.342438 284.087555,206.871811 289.179047,203.373444z"/>
</svg>