<svg x="0px" y="0px" viewBox="0 0 558 248">
	<path stroke="none" d="M230.468658,249.000000C230.000000,249.000000 229.992508,248.561691 230.435516,248.285736C239.603561,248.037720 248.328568,248.065643 257.053589,248.093567C257.053589,248.093567 257.052948,248.548325 257.026489,248.774170C248.312439,249.000000 239.624863,249.000000 230.468658,249.000000M438.113892,129.834595C443.455444,128.611679 446.810760,130.636292 448.611145,137.069534C450.438141,143.597855 451.402740,150.370636 452.667908,157.050949C453.002808,158.819229 453.053711,160.641312 453.245544,162.543045C454.654327,162.363739 455.811035,162.250824 456.956055,162.065430C467.298920,160.390625 468.128693,159.431839 468.128632,149.220306C468.128571,139.222153 467.954254,129.219604 468.206726,119.227829C468.321167,114.698586 466.606598,113.251343 462.303040,113.817680C453.083801,115.030907 443.847656,116.120766 434.609039,117.179230C429.858154,117.723526 428.346619,120.626236 428.114655,125.007355C427.516510,136.302856 426.988403,147.612869 425.941528,158.871429C424.067413,179.026108 423.207458,199.362549 417.058472,218.870270C416.263824,221.391388 414.214691,223.517075 412.746643,225.825928C410.303986,224.009781 407.335938,222.603683 405.530304,220.290329C402.003082,215.771255 401.622833,210.407532 402.194489,204.662048C404.694580,179.534439 407.220367,154.399124 409.017151,129.215271C410.271454,111.635521 410.800842,93.973145 410.824158,76.346573C410.841766,63.057892 409.726044,49.753479 408.704712,36.487633C408.448425,33.158813 409.536743,31.929522 412.331543,31.299620C430.153748,27.282787 447.849243,22.516380 465.836609,19.477692C480.691681,16.968155 495.868835,15.962675 510.947113,15.320080C520.785828,14.900779 530.450439,17.301607 538.885498,22.969269C547.068115,28.467325 552.790955,35.524986 551.619202,46.080086C550.524414,55.941940 548.988953,65.754852 547.650513,75.589722C547.474365,76.884102 546.686462,78.682838 547.253357,79.393860C550.542419,83.519402 547.790222,87.730042 547.785156,91.865013C547.767334,106.309906 546.641418,120.858940 548.081970,135.152176C548.727661,141.558914 549.507812,147.970673 549.717285,154.456833C549.937317,161.271866 550.159668,168.120041 551.014526,174.873535C552.283508,184.898224 554.486023,194.812439 555.550659,204.852234C556.136902,210.380249 555.634521,216.128510 554.856995,221.669998C553.869202,228.710342 552.447388,235.736023 550.561523,242.588867C549.170227,247.644897 547.292969,248.305603 543.595581,244.926102C533.289490,235.505936 523.322754,225.711716 513.343994,215.940567C512.337891,214.955368 512.162170,213.122116 511.468353,211.341843C520.511414,209.053787 525.266357,219.073105 534.786560,216.855759C534.900269,210.982208 535.520630,204.275024 535.069275,197.640778C533.534973,175.089813 531.112793,152.589478 530.010254,130.021912C529.076721,110.915421 529.269897,91.740662 529.421021,72.599724C529.502319,62.301216 530.344849,51.992641 531.257507,41.725372C531.582886,38.064964 530.370300,36.378345 527.044556,35.919880C517.242859,34.568710 507.430420,33.295940 497.622223,31.992489C497.438690,32.511185 497.255157,33.029877 497.071625,33.548573C500.243286,37.182594 503.752747,40.583126 506.477905,44.525784C508.591949,47.584396 510.024475,51.219639 511.224030,54.779167C512.874268,59.676037 511.610687,63.960384 508.406219,68.232193C504.868561,72.948143 499.605316,77.262512 501.567291,84.913513C504.659424,85.288513 507.914124,85.574631 511.130981,86.094696C519.215881,87.401772 521.017273,89.544174 521.007996,97.538589C521.006104,99.185814 521.007690,100.833038 521.007690,101.388260C510.865875,105.038124 501.417755,108.484230 491.932465,111.824768C488.980560,112.864365 488.007782,114.683922 488.076263,117.823196C488.279785,127.150375 488.090759,136.485336 488.169891,145.816269C488.223816,152.172821 494.456329,155.932343 500.061737,152.836288C501.144745,152.238113 501.839874,150.054138 501.871674,148.583450C502.044678,140.579941 501.953918,132.570740 501.953918,124.492859C513.867432,122.537277 520.577576,128.386124 521.114014,140.528351C521.628235,152.168640 518.576233,162.869202 514.249329,173.381134C513.500793,175.199722 512.426697,176.943604 511.219452,178.502457C508.147156,182.469620 505.068817,183.091354 502.291321,179.160080C496.409576,170.835220 490.168640,172.083221 481.935577,175.573044C469.342255,180.911041 455.800873,183.246674 442.053986,183.707764C440.976440,183.743912 439.733246,183.032578 438.802216,182.348526C437.013489,181.034241 435.393494,179.490280 433.283997,177.682022C433.766327,172.914841 434.691376,167.488373 434.765594,162.050293C434.849030,155.939270 434.695557,149.725922 433.658569,143.727661C432.698059,138.171936 434.255554,133.966919 438.113892,129.834595M482.701111,77.169914C491.956848,66.699738 492.716919,54.070309 491.844330,41.043934C491.475616,35.539467 486.940735,32.488686 481.412231,33.712753C469.587555,36.330860 457.794556,39.162098 445.872528,41.240616C439.968872,42.269875 433.808228,41.825573 427.763855,42.047146C424.842346,42.154243 423.665833,43.265373 424.429840,46.463764C427.804932,60.593178 429.624939,74.739113 426.463531,89.297264C425.007141,96.003906 430.872864,101.041397 437.507446,99.748680C443.869629,98.509026 450.163239,96.886108 456.551697,95.819054C468.076294,93.894081 476.887573,88.316650 482.701111,77.169914M257.169128,247.630249C248.328568,248.065643 239.603561,248.037720 230.408325,248.068253C212.388687,247.472305 198.269043,238.858246 185.245285,228.251541C163.493530,210.536652 146.203201,188.783020 130.405975,165.807343C122.772713,154.705414 115.564247,143.310913 108.193268,132.029404C105.487000,127.887383 103.613510,127.758682 101.253922,132.250275C96.613029,141.084427 92.230637,150.058029 87.900986,159.050827C84.516747,166.080002 82.257240,173.836334 77.887108,180.155548C73.037666,187.167831 66.617493,193.182938 60.423302,199.157486C47.835648,211.298798 34.820530,223.029068 19.207058,231.237045C14.197153,233.870743 8.511902,235.219772 2.016383,237.559738C2.016383,232.879456 1.874788,229.774429 2.104936,226.697205C2.171698,225.804535 3.137934,224.492447 3.971317,224.216415C17.380058,219.775146 26.671448,209.831314 35.566582,199.783386C44.684624,189.483704 53.541061,178.793365 61.178055,167.381317C71.038528,152.646683 77.701172,136.286087 80.052856,118.499062C80.862572,112.374748 78.412712,110.166283 72.310448,111.382256C65.641098,112.711227 59.043018,114.411926 52.439922,116.055275C46.121868,117.627686 35.489372,111.107910 34.137428,104.853394C33.368774,101.297386 35.939640,101.208305 38.153904,100.560707C53.435074,96.091469 68.764816,91.776810 83.964882,87.045967C93.410553,84.106110 92.938660,83.799088 93.409325,74.170868C94.358810,54.747883 95.726830,35.344597 97.041275,15.941249C97.195717,13.661342 97.965393,11.389361 98.677437,9.187288C100.832809,2.521478 105.095360,0.181562 111.632904,2.297529C112.666077,2.631926 113.768600,4.352130 113.921860,5.549048C115.036758,14.255931 116.476593,22.975681 116.745667,31.724213C117.201431,46.543285 116.870872,61.386543 116.870888,76.219635C116.870888,77.994034 116.870888,79.768425 116.870888,81.674309C132.687332,81.210472 147.093903,77.545753 161.044891,71.945488C171.928314,67.576614 184.858551,76.125023 184.870499,87.836632C184.873032,90.316559 184.870865,92.796494 184.870865,95.692703C159.308243,99.151985 133.529160,99.571075 107.690056,106.780235C113.177711,111.649239 118.250214,115.017822 121.856461,119.552467C134.993774,136.071884 148.484772,152.414963 160.222351,169.911377C170.760742,185.620255 184.190308,197.552521 200.457687,206.181931C217.295883,215.114166 234.805359,222.801636 252.174850,230.695526C256.027588,232.446487 258.091644,234.235336 257.424561,238.680862C257.008392,241.454086 257.306915,244.334564 257.169128,247.630249M385.278809,63.079330C386.770050,68.619377 385.312103,72.637390 382.089233,77.129791C372.803070,90.073929 364.089233,103.453674 355.706909,117.006378C353.115540,121.196075 352.308472,126.489365 350.631073,131.434830C363.614899,133.142822 370.325226,127.106133 373.760529,111.345642C379.933197,110.265144 383.637543,114.384224 386.914612,118.384727C393.960602,126.986176 394.824432,136.647903 390.592194,147.075836C386.331482,146.575821 381.849884,144.840607 378.057770,145.808029C358.595367,150.773300 339.307404,156.423294 319.967743,161.866898C317.932648,162.439713 315.958069,163.227448 313.779114,163.976044C312.732269,161.957962 311.924408,160.342331 311.064850,158.754700C308.714966,154.414444 309.025116,150.958801 312.322937,146.634491C319.954529,136.627457 326.671692,125.922874 333.748077,115.493301C334.025177,115.084900 334.265442,114.616219 334.383698,114.140999C335.239288,110.703186 337.708893,106.863640 334.260040,103.933830C330.923920,101.099815 328.193695,104.608002 325.384247,106.092209C324.061188,106.791176 322.745911,107.524216 321.365662,108.092575C308.161407,113.529877 308.826141,112.000809 303.661652,102.165802C311.283478,92.367317 319.226440,82.964310 326.265961,72.927658C338.619598,55.314487 347.360413,36.075565 350.235229,14.486617C350.951538,9.107383 354.572601,7.025388 359.108185,10.187824C362.773865,12.743697 365.385864,16.849888 368.292755,20.409222C368.691498,20.897465 368.239990,22.252810 367.933594,23.118736C361.706146,40.717911 354.478485,57.827366 343.003235,72.784264C340.897491,75.528870 339.555573,78.193474 342.142853,81.272858C344.808228,84.445160 348.007629,86.112030 352.267242,84.572472C357.733337,82.596870 361.848846,78.935265 364.009399,73.683830C366.458069,67.732162 368.315948,61.520344 370.147949,55.337860C371.455048,50.926861 373.038147,49.809746 376.610535,52.749107C379.929901,55.480278 382.317200,59.344223 385.278809,63.079330M310.468536,209.561874C307.278900,202.316208 302.491425,196.023193 302.957062,187.877457C303.166168,184.219086 303.657501,180.716568 307.744934,179.534500C311.953064,178.317551 315.945160,178.874847 317.657745,183.558624C320.882690,192.378586 323.811401,201.307632 326.797577,210.213348C327.322205,211.778076 327.559326,213.444000 327.870697,215.074356C328.367096,217.673462 329.926544,220.059814 325.971985,222.070877C322.082611,224.048828 319.564514,223.066391 317.409668,220.259323C314.904358,216.995682 312.889435,213.355576 310.468536,209.561874M346.466797,200.468903C344.333466,196.911316 342.416382,193.641449 340.492737,190.375473C336.947174,184.355972 334.678436,178.212631 339.014252,171.399597C347.885590,170.101151 351.126587,171.663193 354.648193,180.479767C357.156311,186.759064 359.006348,193.320435 360.795807,199.852966C361.203033,201.339508 360.711517,203.960037 359.648560,204.777298C357.411713,206.497101 354.600189,208.438293 351.646210,205.641510C349.960663,204.045670 348.333527,202.388138 346.466797,200.468903zM387.952148,186.037704C389.466980,194.682236 389.466980,194.682236 380.995453,197.820572C375.617371,189.610809 369.696564,181.465118 364.863647,172.718307C363.136963,169.593201 364.042694,165.013596 363.752563,161.173294C368.633911,158.983688 371.882141,161.218277 374.960083,163.850906C381.725983,169.637955 386.282440,176.764435 387.952148,186.037704M446.530853,52.701645C447.490387,51.177380 448.105865,49.871227 448.880249,48.227810C455.525055,47.714638 458.708954,52.858120 460.242554,57.753876C463.226624,67.280067 464.848053,77.233116 467.341248,88.384041C464.130402,87.620186 462.546814,87.672707 461.537994,86.937057C451.424530,79.561890 444.696930,70.084396 444.093018,57.169567C444.028412,55.788620 445.453033,54.338036 446.530853,52.701645z"/>
</svg>