<svg x="0px" y="0px" viewBox="0 0 1170 286">
	<path stroke="none" d="M1019.175659,164.139893C1019.162354,170.287170 1019.258057,175.956116 1019.085083,181.616867C1019.009644,184.084106 1018.636841,186.607483 1017.955139,188.977676C1016.435303,194.262009 1013.360718,195.461655 1008.508728,192.945755C995.841309,186.377335 991.705444,176.506012 994.370728,160.592636C995.032959,156.638412 994.707886,152.393906 994.108032,148.392059C993.613403,145.092453 991.439575,145.223557 989.026184,147.185318C978.820251,155.481232 968.482239,163.616211 958.357910,172.009491C956.546448,173.511200 955.115234,175.786606 954.187744,177.990601C945.468933,198.709000 936.762329,219.465103 923.522888,237.805847C918.791016,244.361084 913.033447,250.248703 907.268860,255.961578C903.069946,260.122742 897.480652,261.892609 890.510437,262.560730C893.230957,256.758423 895.719910,251.767761 897.940674,246.660461C909.543823,219.976166 921.244995,193.332428 932.569031,166.529678C938.410217,152.704254 938.889099,137.694717 940.890015,123.050453C941.858337,115.963234 942.889526,108.881432 943.664124,101.772316C944.023376,98.475220 945.034607,94.494980 943.683044,91.901779C938.911499,82.746178 942.376587,73.996918 944.175354,65.300148C946.019348,56.384956 948.853271,47.656376 951.587769,38.950985C953.008606,34.427536 956.187073,33.137424 961.276550,33.385487C970.137878,33.817394 978.992676,37.194511 987.955078,33.938671C1011.628357,25.338758 1036.005005,19.359434 1060.827515,15.372725C1076.575684,12.843421 1092.469604,10.367964 1108.482422,12.917976C1116.786377,14.240352 1123.640625,18.540207 1129.150879,24.966614C1131.137573,27.283569 1131.376343,29.426270 1129.979614,32.220272C1126.222168,39.736404 1119.645264,42.104584 1110.221680,38.826347C1108.644653,41.381603 1108.551025,43.026154 1112.022339,44.289925C1114.587036,45.223602 1117.153564,46.784534 1119.086792,48.703186C1125.142334,54.712826 1124.522095,58.049187 1117.143311,62.181816C1110.904419,65.675995 1104.842163,69.509636 1098.467163,72.728867C1093.381714,75.296936 1093.035767,79.986023 1094.766357,85.699837C1095.987915,89.732491 1100.524658,91.449402 1105.698120,89.584373C1112.104614,87.274788 1118.401367,84.584114 1124.529663,81.612564C1127.468872,80.187317 1129.866943,80.194527 1132.440308,81.887459C1137.849365,85.445686 1142.504272,89.541061 1143.267578,96.562851C1143.859375,102.005882 1140.830322,105.246307 1136.285645,106.759651C1129.054199,109.167648 1121.596558,110.891159 1114.261963,112.999084C1112.775024,113.426430 1111.409058,114.275063 1109.987305,114.929520C1110.984985,116.315994 1111.679688,118.270523 1113.032104,118.992256C1119.463135,122.424202 1125.953613,125.801102 1132.653564,128.656555C1139.221558,131.455734 1146.168213,133.367966 1152.726074,136.187195C1154.557129,136.974350 1156.133545,139.398911 1156.875000,141.421265C1157.887939,144.183823 1158.534302,147.316864 1158.338379,150.223755C1158.119507,153.472473 1157.721191,158.303543 1155.702637,159.446426C1152.973511,160.991638 1148.102417,160.799667 1145.071289,159.382950C1135.901978,155.097305 1127.273071,149.671341 1118.229858,145.092163C1114.787720,143.349243 1110.791748,142.700287 1106.178833,141.286194C1106.039917,144.261566 1105.992065,146.177979 1105.853882,148.087906C1105.279907,156.029694 1104.819336,163.983643 1104.027588,171.904175C1103.628906,175.892563 1101.198975,177.006195 1097.353027,175.485779C1086.861938,171.338318 1078.287354,157.359940 1079.591187,145.571075C1077.988037,146.259247 1076.584229,146.569519 1075.540161,147.356720C1067.851929,153.153488 1060.228271,159.036072 1052.600586,164.912888C1050.140259,166.808533 1050.027832,170.380768 1052.686279,171.288254C1060.507446,173.958038 1063.009277,180.664520 1065.655151,187.358688C1065.958984,188.127640 1066.076294,188.968246 1066.324707,189.761658C1068.846436,197.815109 1070.934570,199.064163 1079.228394,196.081284C1085.312866,193.892975 1091.045410,190.741501 1097.067505,188.354507C1098.844727,187.650055 1101.477905,187.322769 1103.024292,188.138763C1108.559937,191.059509 1114.029297,194.234253 1119.034546,197.968552C1121.055664,199.476410 1122.230347,202.545792 1123.036255,205.138885C1123.892578,207.893921 1123.027466,210.305191 1119.653564,211.257507C1105.910767,215.136536 1092.233276,219.249146 1078.469727,223.052002C1065.945312,226.512589 1068.475220,223.454681 1068.154785,236.112442C1068.108521,237.939865 1068.053955,239.804489 1068.347168,241.595596C1069.025635,245.739944 1071.635498,247.301575 1075.790161,247.264999C1089.620239,247.143311 1103.468628,246.796204 1117.278687,247.335083C1132.468628,247.927780 1147.271729,251.143127 1161.396118,256.878693C1168.833496,259.898834 1170.005859,262.664337 1168.386597,270.520294C1168.353027,270.683197 1168.305176,270.843140 1168.263428,271.004333C1167.492065,273.987091 1167.068848,279.357941 1165.887329,279.530243C1161.294800,280.200104 1156.177124,280.068359 1151.800415,278.604309C1147.733521,277.243835 1144.270264,276.199310 1139.914551,277.288666C1137.674072,277.849060 1134.848145,276.364624 1132.359253,275.575745C1126.720581,273.788513 1121.254761,270.954468 1115.493164,270.139008C1084.040771,265.687195 1052.731079,268.681122 1021.480530,272.806061C1020.008057,273.000427 1017.960205,273.536713 1017.086365,272.815704C1010.605713,267.468658 1003.917053,271.776825 997.535095,272.465454C984.238464,273.900146 971.393860,273.300110 958.759155,268.538055C955.295776,267.232758 955.622314,264.837769 956.138550,262.627106C956.400208,261.506256 958.490601,260.320496 959.922791,260.047394C967.397644,258.622009 975.148499,258.223541 982.384216,256.063629C992.950989,252.909378 998.808350,244.075684 999.005981,233.109940C999.111023,227.279312 998.660950,221.406219 999.244507,215.631424C999.504883,213.054092 1001.176758,209.200546 1003.119446,208.517166C1006.790100,207.225967 1011.806641,206.318680 1014.336426,210.853424C1016.479187,214.694290 1018.121460,219.021240 1018.962341,223.332596C1020.198608,229.671005 1020.718567,236.173782 1021.158997,242.632782C1021.390869,246.033279 1022.352722,247.866150 1026.066650,247.986450C1029.544922,248.099091 1033.000977,248.792542 1036.475708,249.141403C1041.798950,249.675842 1045.478882,246.589279 1045.814453,241.163406C1045.947021,239.018509 1045.758057,236.826263 1045.473267,234.687881C1044.373901,226.438232 1043.989746,218.341843 1045.486694,209.950821C1046.407104,204.791382 1044.922119,199.028961 1043.744873,193.708145C1041.773804,184.798706 1039.654541,175.862366 1036.660278,167.263779C1035.138428,162.893341 1031.913086,158.932785 1028.772827,155.394821C1027.419922,153.870468 1023.882080,152.807632 1022.162109,153.522049C1020.589783,154.175125 1019.959290,157.453812 1019.249207,159.682343C1018.863647,160.892609 1019.177368,162.325684 1019.175659,164.139893M1095.841309,43.366211C1097.689819,42.152317 1098.882202,40.439541 1095.998291,39.559242C1087.778076,37.050079 1079.643555,34.839401 1070.703491,37.175732C1059.984375,39.977051 1048.963745,41.616341 1038.095337,43.863655C1036.381836,44.217957 1034.782715,45.125526 1033.130737,45.777309C1034.488037,46.940571 1035.686279,48.416565 1037.234619,49.204578C1040.912598,51.076496 1043.472778,53.635605 1043.793457,57.912479C1044.123413,62.315529 1044.011719,66.133575 1039.349609,69.063179C1032.621094,73.291283 1026.417236,78.389992 1020.225891,83.408951C1018.882202,84.498245 1017.587646,88.150421 1017.889465,88.367096C1020.088806,89.946045 1022.824646,92.145859 1025.161133,91.906349C1031.900391,91.215508 1038.552734,89.562782 1045.186890,88.056862C1046.557007,87.745834 1047.986084,86.667427 1048.897339,85.544594C1052.232178,81.435951 1054.737915,76.425270 1058.681763,73.083069C1070.596313,62.986332 1083.039062,53.512814 1095.841309,43.366211M967.790649,87.123917C967.327515,91.758957 966.600464,96.391319 966.553345,101.030602C966.538208,102.523117 968.051208,104.908638 969.344116,105.299080C970.737976,105.719963 973.284668,104.755699 974.261963,103.539017C975.642883,101.820015 976.648438,99.345444 976.760620,97.140236C977.235779,87.799599 982.866272,82.200661 990.115112,77.608353C990.536499,77.341431 990.966309,77.079803 991.352661,76.766937C998.976868,70.594002 1006.652832,64.482079 1014.145569,58.153297C1015.140259,57.313148 1015.774902,55.228573 1015.481995,53.976349C1015.293884,53.172028 1013.018005,52.222809 1011.820068,52.385452C999.159790,54.104401 986.540039,56.121597 973.881409,57.853737C969.919189,58.395908 968.501343,60.573681 968.415710,64.215881C968.243469,71.539200 968.029846,78.861557 967.790649,87.123917M1028.881592,131.615738C1033.555298,134.720673 1038.112427,138.023209 1042.939575,140.867691C1046.770508,143.125092 1050.694824,142.592819 1053.830688,139.301483C1057.372437,135.584183 1060.790405,131.738174 1064.064697,127.784576C1064.873291,126.808159 1065.637451,124.398926 1065.200562,124.005585C1061.348022,120.538017 1057.419312,114.982475 1053.130981,114.624718C1044.244873,113.883385 1035.098145,115.755905 1026.111938,116.954132C1021.997070,117.502808 1021.045471,120.380249 1023.198486,123.882332C1024.746094,126.399673 1026.637817,128.705551 1028.881592,131.615738M1063.855591,90.458229C1061.753174,92.016396 1057.630737,92.617317 1059.328735,96.322647C1060.521973,98.926559 1063.059204,102.125343 1065.514526,102.654686C1069.143921,103.437111 1074.540161,105.089111 1076.538574,100.004066C1078.164185,95.867805 1078.298706,91.097977 1078.746826,86.574669C1078.886108,85.169838 1077.889038,83.652397 1077.412109,82.186508C1075.922241,82.764229 1074.285156,83.114937 1072.972534,83.965927C1070.050171,85.860390 1067.290039,88.005043 1063.855591,90.458229M514.016724,93.797516C524.152832,93.613846 530.272644,99.870712 530.225037,109.608002C530.209717,112.741135 528.389954,112.941689 526.032410,113.167747C513.450073,114.374229 500.847809,115.450768 488.314850,117.058838C482.412415,117.816162 476.608490,119.509995 470.837524,121.066963C466.688141,122.186432 464.752350,124.860138 464.872406,129.547104C465.170074,141.170303 464.970215,152.806229 464.970215,165.478821C469.356720,164.822479 473.229736,164.493774 476.982208,163.637146C491.566162,160.307861 506.112701,156.814728 520.671265,153.374359C526.616455,151.969452 539.289429,159.008041 541.244507,164.756805C542.455750,168.318481 540.004883,169.869049 537.522034,170.700790C529.816589,173.282013 522.107422,176.044525 514.187134,177.749634C499.572479,180.895920 484.821838,183.426392 470.091400,186.005386C467.085358,186.531677 465.634552,187.823959 465.463928,190.764069C465.338745,192.921112 465.042023,195.075165 465.036621,197.231094C464.986237,217.390167 465.062378,237.549911 464.919891,257.708191C464.872437,264.418213 464.177429,271.019867 458.564667,275.946442C454.325439,279.667297 452.449280,279.459900 448.802216,275.192230C442.595245,267.929077 442.435944,259.591949 443.345825,250.717728C444.052643,243.823868 443.833130,236.836960 444.077454,229.893219C444.316772,223.091217 444.895691,216.288895 444.830536,209.491455C444.744354,200.505173 443.959869,191.526062 443.853638,182.539398C443.424316,146.229370 443.165680,109.917336 442.764679,73.606926C442.722565,69.793930 442.403809,65.943413 441.746216,62.192211C441.315125,59.733036 440.042633,57.421360 438.784729,54.081894C437.064240,55.915356 436.164612,56.769535 435.384125,57.721432C422.616180,73.292992 409.917084,88.921486 397.058533,104.417740C394.683258,107.280220 391.454285,111.514771 387.626221,108.556625C383.755432,105.565453 386.844086,101.394188 388.951447,97.964058C401.154938,78.100876 413.285797,58.151779 421.290955,36.145222C424.772705,26.573664 426.875916,16.500639 429.792236,5.980803C432.476715,7.841733 435.668304,10.034794 438.838806,12.257941C441.565552,14.169932 444.364380,15.998887 446.934387,18.104914C447.969818,18.953381 449.214081,20.514463 449.104279,21.626999C448.605499,26.681042 447.657990,31.690800 446.712463,37.735851C449.335144,37.422894 452.505096,37.360123 455.514526,36.632874C471.667175,32.729439 487.792999,28.712265 503.900604,24.626099C511.455139,22.709669 522.370850,30.907116 522.316956,38.470131C522.296875,41.283134 521.412476,42.582088 518.473877,43.107559C504.570190,45.593746 490.703247,48.287243 476.834717,50.966602C472.756226,51.754559 468.648834,52.524700 464.696808,53.758324C463.456451,54.145508 461.813324,56.028366 461.824188,57.213112C461.952698,71.197357 462.353851,85.179230 462.716095,99.160873C462.732147,99.781075 463.062927,100.393127 463.275940,101.105354C480.130005,98.661072 496.835175,96.238373 514.016724,93.797516M165.511932,67.289848C176.593155,72.749939 178.370743,76.315933 176.089737,88.076874C175.238205,92.467293 172.157715,93.964119 168.084793,93.988144C161.753403,94.025497 155.401138,93.683395 149.096100,94.093086C143.341751,94.467010 137.634827,95.601967 131.914139,96.449692C129.100967,96.866585 128.257721,98.570610 128.294632,101.373779C128.709137,132.844086 129.004929,164.315964 129.383408,195.786804C129.409225,197.934006 129.841797,200.076340 130.106750,202.410767C138.334045,202.410767 146.567596,202.612442 154.788284,202.373123C179.924286,201.641357 205.033173,201.235260 229.757416,206.953629C233.291428,207.771011 236.767914,209.028702 240.106522,210.465012C252.225891,215.678955 255.493393,221.862305 253.522980,235.373123C249.554047,236.423462 245.586685,237.544754 241.576843,238.484802C240.562500,238.722610 239.212952,238.736679 238.355072,238.253754C226.709412,231.697891 213.751282,230.506104 200.887482,229.163498C166.263641,225.549835 131.790405,228.386383 97.310944,231.698837C75.623589,233.782349 53.877945,235.259247 32.158356,237.007126C27.848232,237.353989 23.542728,237.873856 19.226103,237.995880C13.484545,238.158173 10.802175,235.960236 9.652020,230.661514C8.218493,224.057297 9.454509,220.787933 15.232766,218.706253C19.232605,217.265274 23.790409,215.647949 27.783567,216.239166C39.452541,217.966858 50.709827,215.727905 61.950348,213.789963C74.206093,211.676971 86.311005,208.649750 98.428764,205.796402C102.883247,204.747513 105.212769,202.066940 105.262741,196.872894C105.531662,168.923004 106.237312,140.977585 106.602280,113.028137C106.703789,105.254356 106.053726,104.433365 98.138916,104.049599C88.686508,103.591286 79.194901,103.941528 69.290100,103.941528C69.290100,97.460136 69.290100,91.924843 69.290100,86.157349C79.553513,84.886780 89.798965,83.906525 99.945023,82.298981C117.910561,79.452507 135.497971,75.054863 151.843857,66.823814C156.617340,64.420113 160.757874,65.648972 165.511932,67.289848M737.997864,199.343475C735.835571,199.343521 734.128845,199.105545 732.510132,199.382187C722.931030,201.019241 717.467285,196.090012 713.513123,186.948151C717.474243,185.021362 721.342529,182.275970 725.629333,181.203842C744.278564,176.539581 763.001038,172.136307 781.797058,168.105042C791.027161,166.125443 800.474365,165.155960 809.825562,163.744446C815.417969,162.900314 825.461914,169.042038 826.542297,174.562271C826.940552,176.596985 826.010498,179.941452 824.484009,181.088364C821.127380,183.610336 817.190552,186.054962 813.158875,186.850327C802.110168,189.030029 790.921570,190.630203 779.721558,191.845032C775.605042,192.291534 773.859192,193.052856 774.035217,197.591904C774.390137,206.741409 774.060425,215.915314 774.172424,225.077209C774.241028,230.691483 775.156982,231.108124 780.691650,230.838608C796.802979,230.054031 812.922791,229.138748 829.045715,228.995667C841.280029,228.887085 851.852600,234.103104 859.704895,243.265976C862.255615,246.242447 861.875488,251.730515 863.086426,257.201569C856.776794,256.660461 851.847839,256.582306 847.043091,255.769638C816.512329,250.605820 786.079468,252.258560 755.655762,256.694153C736.764404,259.448425 717.862549,262.130981 698.959351,264.802856C695.054688,265.354736 684.042603,259.367920 682.473083,255.835007C680.595825,251.609344 683.838196,249.894043 686.702881,248.794601C691.791077,246.841812 697.023193,245.062225 702.351379,243.978088C713.569641,241.695450 724.870667,239.796417 736.172791,237.955215C745.377380,236.455750 750.913269,230.862961 751.787659,221.621109C751.944214,219.966095 751.983459,218.295471 751.990845,216.631668C752.015137,211.144928 751.999939,205.658035 751.999939,199.343216C747.331421,199.343216 742.912781,199.343216 737.997864,199.343475M684.349854,140.538025C688.842773,146.222198 693.649658,151.334427 697.093994,157.241196C700.599976,163.253677 699.455261,169.721558 694.281250,176.369202C692.296692,175.761642 689.182983,175.382126 686.699219,173.927185C681.707642,171.003265 676.891968,170.563110 671.515564,172.675552C655.615295,178.922913 639.638672,184.975800 623.706970,191.143539C620.871826,192.241150 617.893982,193.862839 615.866333,190.217651C613.926575,186.730469 609.888672,184.144318 614.815735,178.877197C625.450195,167.508545 635.355225,155.346344 641.363647,140.672974C642.766296,137.247681 643.427063,133.518585 644.585938,129.367722C635.740173,129.129517 628.545471,131.342407 621.869507,135.128632C610.978821,141.305130 607.557007,140.259796 601.633667,128.461044C623.777100,99.007042 638.257446,65.676605 653.329895,31.045425C655.505371,31.045425 659.651489,30.590118 663.640198,31.186958C666.935303,31.680014 668.946228,33.825703 668.516174,37.939472C667.129395,51.204369 661.201599,62.718487 654.770935,73.952728C648.603699,84.726761 641.756409,95.111336 635.219543,105.674232C634.725769,106.472145 634.324097,107.327026 633.828491,108.250725C651.023865,110.921333 672.421570,102.856163 673.119080,81.885399C673.166138,80.469902 674.912781,77.827522 675.503357,77.926964C678.736572,78.471336 683.064575,78.739571 684.758911,80.885277C688.152588,85.182991 689.332397,90.600883 687.047424,96.342957C679.353027,115.678780 670.889465,134.559906 657.389526,150.731522C656.433594,151.876587 656.178406,153.606644 655.569580,155.134720C665.495117,157.587173 670.847290,153.449142 671.080750,144.064865C671.158936,140.920822 672.177307,137.800171 672.983643,133.510513C677.666138,136.385468 680.866028,138.350098 684.349854,140.538025M361.133545,248.938110C355.818634,253.227707 353.673279,252.962173 348.590790,249.405350C340.544983,243.774734 338.849823,236.159271 340.181244,227.041870C345.720947,189.107071 348.781494,150.996216 347.862946,112.623199C347.838989,111.624336 347.907501,110.615608 347.792664,109.627777C346.748077,100.641144 345.378052,99.797112 337.663879,104.131233C331.739807,107.459602 325.989014,111.113922 320.292358,114.824684C314.491211,118.603516 308.340790,120.790634 300.203308,120.522781C302.312744,117.773323 303.773590,115.857941 305.246155,113.951599C326.617096,86.285103 348.038086,58.656895 369.292664,30.901279C371.610382,27.874662 373.961395,26.240660 377.652313,27.391327C381.340729,28.541212 383.576416,31.156269 383.848541,35.024529C384.233093,40.491638 384.170593,45.651718 380.510193,50.601410C374.880035,58.214725 369.992065,66.391556 365.053802,74.490623C363.948029,76.304176 363.207855,78.900528 363.530762,80.941689C368.765442,114.032532 368.280426,147.303604 366.726685,180.587738C365.780365,200.859238 364.326904,221.107880 362.984192,241.359024C362.822144,243.802917 361.927246,246.198196 361.133545,248.938110M746.217163,172.349762C743.395996,172.518860 739.911804,173.337234 738.160095,171.956955C724.728271,161.372955 711.623169,150.373611 698.448364,139.464966C697.044189,138.302277 695.274414,137.104797 694.695312,135.544510C693.996643,133.661819 693.451050,130.629135 694.448914,129.374619C708.419556,111.810379 718.325500,91.898323 728.214233,71.960846C728.574402,71.234711 729.095032,70.588135 729.505432,69.958786C738.810547,72.278305 743.372070,79.414490 739.810913,87.779282C733.964233,101.512100 727.345764,114.922829 720.803894,128.348145C719.359741,131.311722 719.249390,133.087250 721.776611,135.588974C729.814819,143.546097 737.345398,152.018478 745.436340,159.918747C748.671692,163.077789 750.037170,165.731903 747.079346,169.610352C746.609802,170.226074 746.586365,171.182037 746.217163,172.349762M780.972778,158.546326C777.405884,163.637299 773.599060,164.427200 769.082397,161.147842C756.344543,151.899475 743.656311,142.582626 730.968079,133.266083C727.642395,130.824112 727.176331,126.981735 729.938843,123.971275C743.786682,108.880356 755.801086,92.474167 765.459961,74.396935C767.316223,70.922844 769.973938,71.273537 772.572083,72.617218C779.606384,76.255104 782.670654,87.696144 777.998962,93.976303C771.676270,102.475792 765.174988,110.893204 758.098938,118.759956C754.613342,122.635040 754.586548,125.130692 757.975952,128.675125C764.754150,135.763443 771.476746,142.921005 777.857422,150.362839C779.588684,152.382050 780.015564,155.519684 780.972778,158.546326M806.147705,111.288193C804.499268,115.111977 803.004578,118.586693 801.431458,122.243843C810.252991,129.177490 818.510132,136.401855 827.528870,142.499908C833.614868,146.614975 835.162231,151.418976 833.416321,158.904236C830.849548,158.475769 828.076721,158.387299 825.563354,157.534454C804.497314,150.386261 788.240112,136.445755 773.113708,120.016319C785.634155,106.225906 797.716980,92.079224 798.871948,72.382797C812.541992,70.352806 819.344299,78.259895 814.871338,90.808113C812.426941,97.665390 809.184143,104.238091 806.147705,111.288193M768.593689,33.696411C774.948059,32.790359 780.893860,32.121250 786.775330,31.086557C788.620911,30.761869 790.250977,29.344728 792.062378,28.640181C793.032104,28.263002 794.343750,27.926540 795.215820,28.278528C799.512390,30.012741 804.041626,31.481070 807.874634,33.983768C814.301941,38.180313 813.724121,46.033554 806.566345,48.532173C798.632507,51.301632 790.299316,53.156151 781.999207,54.598442C765.624268,57.443863 749.153809,59.672035 732.434448,58.899433C727.071899,58.651627 719.792297,52.802593 719.595581,47.653488C719.544067,46.305614 721.574097,44.038849 723.058411,43.608372C732.435364,40.888760 741.878296,38.348030 751.401123,36.198559C756.888916,34.959854 762.567566,34.566170 768.593689,33.696411M624.026367,235.171326C624.071106,240.468796 624.444458,245.321823 623.975403,250.092010C623.769043,252.190384 622.247192,255.280487 620.608704,255.843857C618.369751,256.613739 614.740723,256.268646 612.989868,254.835220C610.447021,252.753433 608.568481,249.476898 607.246399,246.354370C601.765564,233.409653 600.099304,219.648315 598.693420,205.937256C608.738281,202.582092 615.768066,209.593155 619.770447,217.995575C622.192932,223.081100 622.664490,229.095932 624.026367,235.171326M652.606323,241.410751C650.197449,244.416840 648.168335,244.290604 645.097290,242.506393C633.291077,235.647049 628.680847,224.749878 627.010193,212.019241C626.794739,210.377228 626.772827,208.688217 626.865723,207.032425C627.005310,204.541580 627.325500,202.060867 627.568909,199.575836C631.426331,200.064499 635.345703,200.291061 639.108459,201.180267C640.474243,201.503021 641.656738,203.274460 642.597412,204.613525C648.751892,213.374527 651.448608,223.496857 653.546021,233.768219C654.015015,236.065063 653.110596,238.642380 652.606323,241.410751M659.682495,201.370728C659.722961,198.825775 659.246643,195.193756 660.293884,194.682465C662.856445,193.431366 667.246704,192.183914 668.909668,193.483536C675.770020,198.845032 682.382019,204.719788 688.140442,211.240311C693.749451,217.591751 690.037659,225.222137 688.444214,232.156403C688.286438,232.842834 681.932678,233.607559 680.466370,232.216064C675.613220,227.610641 671.276245,222.307739 667.521545,216.745682C664.396790,212.116730 662.371216,206.745743 659.682495,201.370728z"/>
</svg>