<svg x="0px" y="0px" viewBox="0 0 1172 286">
	<path stroke="none" d="M808.213257,167.105072C806.091919,177.922470 803.999084,178.691589 795.556824,172.063492C787.229126,165.525375 781.338440,157.737045 782.953125,145.436371C781.143677,146.268906 779.774963,146.633255 778.727112,147.423203C771.038757,153.219009 763.412170,159.096893 755.771423,164.955917C753.237915,166.898682 753.079224,170.394241 755.787476,171.268723C763.934265,173.899246 766.192688,180.960007 768.936035,187.744888C769.120911,188.202042 769.137329,188.724304 769.281921,189.201202C771.930420,197.935699 773.851807,199.125656 782.844482,195.960770C788.781860,193.871155 794.333191,190.705841 800.194153,188.364517C801.968079,187.655853 804.591614,187.334076 806.150085,188.140778C811.561584,190.941864 816.810730,194.121140 821.831543,197.577881C823.619751,198.809021 824.966492,201.082047 825.832153,203.163376C827.320862,206.742920 827.258972,210.027664 822.497009,211.374847C808.917908,215.216431 795.402710,219.288055 781.792419,223.013809C769.340881,226.422363 771.535950,223.470093 771.258911,236.481613C771.234070,237.647324 771.194885,238.819580 771.282776,239.979675C771.686951,245.316483 773.708923,247.185455 779.359375,247.204544C793.022705,247.250671 806.702209,246.807037 820.345520,247.331940C835.537109,247.916382 850.335754,251.137344 864.464172,256.849396C872.065491,259.922607 873.183411,262.662567 871.492065,270.966187C869.484985,280.819427 868.255066,281.678314 858.211365,279.973907C856.927673,279.756042 855.575806,279.330414 854.496643,278.629639C851.057312,276.396057 847.562378,275.849884 843.640686,277.282562C840.507324,278.427246 838.116516,277.378998 835.060364,275.547272C830.369995,272.735992 824.691895,270.923492 819.227234,270.160156C787.609497,265.743744 756.134033,268.611450 724.718384,272.786102C723.244812,272.981934 721.183044,273.546936 720.327026,272.828979C714.042969,267.558533 707.471741,271.631287 701.266479,272.349304C687.984192,273.886322 675.144043,273.397217 662.459717,268.768372C658.994995,267.503998 658.324829,265.289520 659.229980,262.779175C659.714172,261.436157 662.222595,260.372284 663.984924,260.019836C671.122253,258.592529 678.507141,258.123535 685.459900,256.118866C695.743286,253.153885 701.801453,244.394226 702.070007,233.700684C702.216431,227.872131 702.041565,222.035431 702.191284,216.207047C702.282410,212.661621 702.555664,208.988846 707.056274,208.020325C713.053162,206.729813 717.255981,207.914169 718.785767,212.802414C721.149658,220.356171 723.094116,228.183563 723.952332,236.033142C725.275330,248.133392 724.821655,248.182983 737.096008,249.007629C746.854614,249.663254 749.173828,247.376740 748.856689,237.219971C748.773804,234.566223 748.214355,231.922256 748.203491,229.272415C748.181335,223.863144 748.635010,218.443314 748.428528,213.045578C748.175964,206.443619 748.188904,199.693359 746.754944,193.306320C744.471191,183.134918 741.475098,173.071472 737.958130,163.257004C736.714844,159.787491 733.481384,156.624084 730.408447,154.317551C726.317810,151.247040 722.857910,153.000916 722.548157,158.125824C722.126709,165.099335 722.464417,172.115417 722.227783,179.104828C722.110535,182.566788 721.853271,186.127823 720.916931,189.433746C719.530029,194.330551 716.683655,195.322052 712.153748,193.161407C699.505432,187.128555 694.871948,176.853256 697.357666,161.614471C698.053101,157.350998 697.800415,152.838715 697.332764,148.510788C696.986694,145.308655 694.882751,144.994843 692.365295,147.032288C682.014648,155.409424 671.571167,163.672974 661.293701,172.138351C659.720154,173.434433 658.508240,175.428589 657.687378,177.339691C648.819519,197.984146 640.352051,218.874252 627.081421,237.200684C622.052124,244.146057 616.111145,250.612961 609.708435,256.312378C606.011902,259.602966 600.564514,260.926636 595.905151,263.135559C595.465332,262.611511 595.025452,262.087433 594.585632,261.563385C595.579041,259.060944 596.490662,256.522369 597.578491,254.061646C609.614563,226.834091 621.771057,199.659286 633.697754,172.383987C640.319580,157.240448 642.034119,140.968430 643.869141,124.761620C644.954346,115.177567 646.261536,105.607544 646.929382,95.993736C647.144958,92.890221 645.384949,89.698029 645.002686,86.489922C644.662903,83.637779 644.477478,80.595871 645.092346,77.830879C647.830261,65.519432 650.487366,53.164730 653.961304,41.051529C656.113647,33.546715 657.973145,33.005581 665.687500,33.779549C670.653259,34.277744 675.674194,35.332680 680.585571,34.974499C686.268921,34.560013 692.049255,33.438694 697.457458,31.634741C723.266968,23.025711 749.696655,17.000931 776.603882,13.510960C788.213440,12.005152 800.201599,12.278661 811.918152,13.124705C820.192993,13.722222 827.289429,18.497950 832.329285,25.311150C833.494446,26.886208 833.713440,30.066187 832.983276,31.979225C830.053772,39.654545 822.611938,42.196522 813.832397,39.010880C812.174866,42.923958 812.274658,42.719234 815.476562,44.280426C817.965454,45.493984 820.510864,46.959705 822.429138,48.906532C828.276917,54.841137 827.597900,58.243061 820.481201,62.129082C814.059875,65.635422 807.710999,69.282127 801.426392,73.028450C797.013489,75.659004 795.668335,81.069511 797.920715,86.018463C799.542603,89.582161 803.911743,91.366272 808.695679,89.621910C815.250122,87.231934 821.522583,84.069260 828.075012,81.672714C830.114136,80.926910 832.894714,80.996506 834.929504,81.766602C837.312561,82.668526 839.552490,84.460464 841.332947,86.356155C850.235168,95.834160 848.314392,103.938866 836.007385,108.046417C829.728699,110.141975 823.152649,111.335701 816.749268,113.077568C815.432251,113.435844 814.285217,114.418892 813.059814,115.113976C813.856750,116.282562 814.388245,117.997368 815.492371,118.533890C824.888367,123.099762 834.383362,127.462662 843.863342,131.854584C845.217651,132.481979 846.622375,133.306778 848.051819,133.416946C859.048645,134.264542 861.609375,141.843307 861.656128,150.903931C861.671631,153.910355 860.732788,158.453476 858.723694,159.561020C856.053772,161.032791 851.384766,160.937851 848.494690,159.570816C839.192566,155.170807 830.411072,149.683884 821.219666,145.029144C817.795410,143.295013 813.793701,142.701126 809.406738,141.394073C809.006348,150.529572 808.652466,158.602692 808.213257,167.105072M771.059692,64.557457C781.022095,56.855434 790.984497,49.153408 801.774902,40.811245C793.634460,36.719112 785.032043,34.415405 777.395203,36.491333C764.668884,39.950706 752.098145,43.298885 738.888367,43.961884C738.007263,44.006104 736.554016,45.041031 736.483337,45.729794C736.393433,46.605618 737.267944,47.802677 738.054871,48.479725C738.750916,49.078545 739.936096,49.067429 740.837830,49.474976C748.510925,52.942940 749.639282,63.647778 742.914612,68.596161C736.494202,73.320618 730.024597,77.990959 723.822449,82.990150C722.332886,84.190849 720.568665,87.168205 721.102112,88.339325C722.380859,91.146385 724.779602,93.147110 728.744690,92.143547C735.169006,90.517570 741.748047,89.511360 748.227966,88.089279C749.527649,87.804062 751.309082,87.134537 751.795044,86.125313C756.050903,77.287552 763.355652,71.229889 771.059692,64.557457M716.642761,58.960655C717.373413,57.281120 718.270142,55.639313 718.668884,53.884361C718.734192,53.596645 716.524475,52.206959 715.506348,52.346752C702.192383,54.174797 688.883179,56.066010 675.637756,58.322727C674.173706,58.572170 672.137451,61.100941 672.015930,62.698132C671.056824,75.300804 670.387451,87.930161 669.952087,100.562477C669.895142,102.214668 671.688965,105.332428 672.596985,105.321831C674.440125,105.300316 677.130371,104.044106 677.914551,102.504036C679.540161,99.311699 680.484741,95.658524 681.090027,92.089790C681.833923,87.703362 683.877991,84.687836 687.482483,81.992271C697.201172,74.724289 706.588379,67.013054 716.642761,58.960655M725.854858,122.595650C730.062805,132.525421 738.563477,137.713654 747.875977,141.486771C750.161011,142.412598 754.350159,141.240173 756.427185,139.530182C760.606201,136.089554 764.030518,131.695786 767.536987,127.503555C768.286194,126.607788 768.722595,124.186951 768.174927,123.674644C764.602051,120.332283 760.846680,114.895378 756.910767,114.687294C747.491760,114.189331 737.918701,116.053917 728.468994,117.395233C727.306030,117.560303 726.515137,120.346519 725.854858,122.595650M765.005981,100.632782C768.528076,104.403313 773.413086,103.938141 777.021179,102.394920C779.425720,101.366440 780.850708,97.018486 781.775635,93.879654C782.542480,91.277206 781.914856,88.270332 781.946167,85.443085C781.991272,81.376495 780.031067,81.272697 777.268188,83.146103C773.557800,85.661980 770.012451,88.427040 766.250977,90.860580C761.106323,94.188942 760.912659,94.779335 765.005981,100.632782M302.765594,185.999969C302.765656,174.834045 302.761993,164.168137 302.767487,153.502213C302.770874,146.978378 305.476624,145.142151 311.690460,147.529083C312.749695,147.935974 313.956360,148.515762 314.590912,149.384018C319.983185,156.762131 324.003082,164.757721 323.142151,174.196472C322.206421,184.455154 320.951691,194.692886 319.508759,204.893463C318.859894,209.480804 320.811157,210.482819 324.757416,210.128418C329.731323,209.681732 334.405334,205.668015 335.592224,198.610184C336.960510,190.473877 337.600922,182.118546 337.561127,173.863144C337.488861,158.892914 336.620697,143.927811 336.213196,128.957077C336.095825,124.643394 334.646729,123.207710 330.062286,123.429733C324.239563,123.711739 318.404510,123.774261 312.588593,124.146545C309.678986,124.332794 308.152069,123.439499 307.016174,120.566154C300.102814,103.078712 299.952820,84.810760 300.510681,66.468788C300.689819,60.579193 305.307526,57.961216 310.044067,56.992889C320.106537,54.935745 330.312622,53.493515 340.514069,52.240810C345.614105,51.614536 350.880615,52.367153 355.988434,51.775833C365.426208,50.683235 371.849670,55.742546 377.634583,61.904594C379.094513,63.459648 380.066559,66.613159 379.597473,68.648262C377.101013,79.478981 374.265381,90.242851 371.168793,100.920128C368.921600,108.668671 364.318573,114.153389 355.983795,116.569725C348.407959,118.766045 348.303589,119.357330 349.918457,127.009544C350.899811,131.659775 352.646606,136.182907 354.402954,140.623337C355.622620,143.707031 358.320984,144.467148 361.470551,143.676682C365.342407,142.704941 369.208588,141.705521 373.101715,140.826736C374.146454,140.590912 375.544037,140.319778 376.329102,140.800552C380.378571,143.280441 380.725433,152.246674 376.930328,155.125031C371.361176,159.348862 365.564514,163.288940 360.185608,167.737808C358.544556,169.095123 357.375610,171.634552 357.026672,173.799606C356.503143,177.048019 356.819885,180.445801 356.912201,183.776398C357.074188,189.623352 358.702789,190.853287 363.474670,187.776031C370.303833,183.372131 377.064819,178.714523 383.196716,173.405106C401.595764,157.473923 416.417847,138.437088 429.613800,118.098351C430.377136,116.921806 430.951385,114.496162 430.313049,113.715988C425.495392,107.828125 420.410248,102.153709 415.282898,96.527214C413.096680,94.128212 410.807465,94.855217 408.141266,96.331955C405.322449,97.893219 402.029236,98.598045 398.943268,99.676971C398.432526,99.224648 397.921814,98.772316 397.411102,98.319992C397.962616,93.994377 397.427185,89.134041 399.247955,85.432823C408.713959,66.190697 415.270569,46.021652 420.015503,25.191389C420.564087,22.783016 420.665405,19.982029 424.254150,20.129459C427.749969,20.273071 431.616913,18.989670 433.346588,23.990574C435.082306,29.008980 437.709015,33.714767 439.542603,38.705494C440.609406,41.609104 442.367859,42.821949 445.163025,42.313515C454.955811,40.532249 464.744232,38.710102 474.486023,36.672611C478.835999,35.762817 483.375702,34.449562 486.476562,38.549480C489.446411,42.476162 489.479065,46.891155 487.163361,51.658073C478.510437,69.470406 470.294525,87.494904 461.660461,105.316666C460.044281,108.652687 460.375854,111.169861 462.977539,113.211601C470.675018,119.252396 478.059875,125.892235 486.429535,130.838120C511.150146,145.446274 537.814331,155.930283 564.732056,165.696915C568.681274,167.129822 570.700989,168.885452 570.138977,173.142899C569.966003,174.453247 570.119995,175.805878 570.112183,177.139069C570.076050,183.315979 569.578369,183.425247 563.274658,184.219238C552.679138,185.553833 543.342590,181.746017 533.917969,177.956207C505.987427,166.724777 480.074646,151.747910 455.098633,135.117020C450.497589,132.053284 447.829254,132.626114 444.168335,136.446320C429.297760,151.963959 414.475220,167.560181 398.917816,182.374298C390.308197,190.572632 380.557892,197.673019 370.830170,204.575562C352.908691,217.292145 334.723724,229.646729 316.427612,241.820099C311.345978,245.201157 305.595917,247.668549 299.950439,250.082611C295.350433,252.049637 283.953186,243.198105 284.509521,238.229095C284.650330,236.971817 285.874786,235.627197 286.939667,234.719925C290.614227,231.589249 294.259460,228.366867 298.258118,225.690811C301.912415,223.245224 302.964172,220.227264 302.850403,215.995895C302.586273,206.170273 302.765961,196.332703 302.765594,185.999969M354.062195,74.302605C343.185730,69.964973 332.372589,71.539314 321.705688,74.990326C320.519684,75.374016 319.398590,77.866653 319.322937,79.433159C319.042786,85.234230 318.889465,91.084953 319.386597,96.856903C319.565582,98.935371 321.271210,101.912361 323.041473,102.648529C331.485626,106.160049 347.971222,100.798164 352.455841,92.781372C355.479675,87.375977 359.389709,81.452370 354.062195,74.302605M451.191711,84.668770C456.484802,76.783897 460.430878,68.310623 462.971375,58.359882C448.812134,58.519169 436.978668,62.726013 428.022369,73.149170C421.081421,81.226929 421.366180,81.471748 429.977814,87.872391C430.245148,88.071098 430.520630,88.258835 430.786652,88.459206C442.411438,97.215302 442.411346,97.215408 451.191711,84.668770M1072.693848,246.859436C1054.618774,249.143616 1036.982422,251.214340 1019.419373,253.785614C1011.469727,254.949448 1004.485352,252.659119 999.333252,247.441864C996.635559,244.710022 996.833862,239.118423 995.519653,234.025604C1002.262085,233.678360 1007.533752,233.645279 1012.749695,233.089706C1024.431030,231.845490 1036.217529,231.008621 1047.706421,228.724426C1056.360474,227.003891 1057.734863,224.083115 1057.627930,215.211243C1057.553955,209.060791 1057.371582,202.902374 1056.943359,196.768066C1056.516235,190.648758 1055.031372,189.587311 1049.022339,190.250137C1043.570435,190.851532 1038.074707,191.183228 1032.675049,192.090622C1028.447388,192.801071 1026.601685,189.926346 1025.707642,187.187454C1025.256348,185.805008 1027.331665,182.603683 1029.048584,181.676346C1037.362305,177.186066 1045.979248,173.260773 1054.389282,168.941742C1055.734863,168.250763 1057.435425,166.621277 1057.499390,165.351425C1057.758423,160.214615 1057.715088,155.024612 1057.261597,149.900436C1056.799683,144.683228 1054.864136,143.311661 1049.534912,144.607620C1044.230591,145.897537 1039.096558,147.885437 1033.882202,149.549606C1032.191040,150.089386 1030.481934,150.573380 1028.732300,151.097519C1026.713989,139.084259 1028.783569,134.559601 1040.127808,131.253906C1055.074097,126.898582 1070.274048,123.286789 1085.536255,120.204559C1091.639160,118.972069 1098.198975,120.001846 1104.260376,120.001846C1107.511597,134.300919 1103.075806,138.277603 1093.519653,141.191513C1090.685547,142.055695 1087.707642,142.600128 1084.756348,142.884995C1081.802246,143.170151 1078.799194,142.947617 1075.185913,142.947617C1075.185913,149.310959 1074.847168,155.245529 1075.303589,161.118286C1075.614258,165.115402 1077.867554,167.200851 1082.662598,167.001907C1093.578613,166.549026 1104.526245,166.859055 1115.203857,166.859055C1117.219116,178.681076 1112.646484,184.194794 1099.904419,186.932785C1096.174072,187.734299 1092.413940,188.427994 1088.640503,188.988785C1085.043457,189.523346 1081.411133,189.820114 1077.395508,190.265671C1076.622803,199.509811 1075.694824,208.574631 1075.182617,217.662903C1074.951904,221.754074 1079.718628,224.550400 1084.715332,223.743774C1095.039795,222.077026 1105.339355,220.218719 1115.705444,218.872421C1118.850220,218.463989 1122.350586,218.952728 1125.390869,219.942963C1132.923828,222.396500 1140.571411,224.802109 1147.630493,228.316406C1153.988403,231.481567 1156.325073,238.489151 1154.775879,245.393402C1154.588379,246.229721 1153.817627,247.551636 1153.247192,247.589279C1148.065430,247.931274 1142.829590,248.512177 1137.685059,248.094452C1131.098145,247.559601 1124.579712,245.305893 1118.033813,245.314667C1103.076050,245.334717 1088.119507,246.280441 1072.693848,246.859436M944.929443,89.964783C951.502930,89.297600 953.002075,85.173225 953.001648,79.838882C953.001343,75.340508 952.887573,70.826225 953.239624,66.351669C953.378601,64.584793 954.641846,61.439804 955.395081,61.439213C958.832214,61.436523 963.035583,59.239620 965.233643,64.508301C967.593628,70.165298 970.699463,75.511215 973.481445,80.992043C975.066467,84.114754 977.687683,84.956116 981.000244,84.600052C983.971252,84.280693 987.027832,84.504227 989.940002,83.938850C997.324097,82.505302 1002.925293,84.677193 1006.333130,91.504150C1007.850952,94.544762 1008.974915,97.781982 1010.778320,102.140152C1002.636658,102.140152 996.337769,101.898018 990.068726,102.226311C985.972473,102.440819 981.789856,103.059265 977.878723,104.256844C972.525146,105.896065 969.921082,110.919434 969.237732,116.379974C967.549683,129.869781 970.442688,141.163956 982.156799,149.451324C985.618896,151.900681 988.118469,155.691986 991.134277,158.795364C995.707581,163.501434 995.763489,163.569626 994.548523,171.428284C988.435364,171.428284 982.194702,171.746689 976.000549,171.345886C968.625305,170.868668 967.441162,171.260391 967.087646,178.764236C966.195374,197.708786 965.648438,216.669907 965.011719,235.626038C964.766174,242.937302 965.016113,250.285690 964.363037,257.556366C963.835510,263.429199 960.045227,265.471588 952.570679,264.993713C947.429199,264.665009 944.989746,262.260986 945.088501,256.398376C945.483887,232.932266 946.100647,209.469894 946.652954,186.006546C946.703857,183.842941 947.233398,181.625610 946.899353,179.535736C946.546082,177.326202 945.425293,175.239365 944.639771,173.098923C942.714905,174.078690 940.475647,174.709793 938.926575,176.106415C934.970886,179.672806 930.968933,183.295792 927.645447,187.427002C923.892517,192.092133 919.410645,193.141876 912.569519,191.766769C913.610718,188.889984 914.067810,185.814804 915.657959,183.527298C926.090576,168.519150 936.095764,153.254471 942.645447,136.098511C944.812378,130.422653 945.744080,124.247742 946.950623,118.242752C947.704407,114.490730 946.039612,113.781456 942.358521,114.677322C930.754211,117.501450 919.074158,120.033096 907.370544,122.418686C903.857544,123.134743 900.171631,123.002426 896.657104,123.252213C894.317810,112.627319 895.333862,109.127678 904.534180,105.205200C917.639038,99.618065 931.188904,95.074715 944.929443,89.964783M190.882706,225.987946C170.469727,232.338715 149.924927,234.291046 129.347015,230.874664C108.115158,227.349670 89.780235,217.407562 75.508209,200.941681C60.426628,183.541809 51.886951,163.087540 47.864120,140.538391C47.183186,136.721558 45.171249,133.142197 43.451973,128.602066C46.530659,126.517654 50.248920,124.000237 53.637379,121.706100C59.073475,133.996490 63.842953,146.023773 69.624931,157.542816C77.153275,172.541046 87.252602,185.689667 101.443298,195.112015C107.383347,199.056091 113.703667,202.443878 119.969597,205.867706C121.326035,206.608917 123.211876,206.719971 124.819016,206.610291C138.241882,205.694290 151.687912,204.947495 165.056244,203.497559C169.538620,203.011398 174.005554,201.028076 178.130096,199.013611C181.615784,197.311172 182.857010,194.488373 180.244690,190.488068C174.208923,181.245346 169.443222,171.409027 168.426361,160.166550C168.370285,159.546600 168.419113,158.917191 168.419113,157.164246C192.243744,165.644470 208.410461,181.251556 218.897430,203.266418C220.838043,207.340256 219.829086,210.123123 216.756149,213.324951C209.705841,220.671005 200.861435,223.930832 190.882706,225.987946M436.336426,260.090912C431.958435,260.487823 427.906525,261.647034 424.126465,261.058990C415.152985,259.663086 412.217499,252.181259 410.013611,244.745575C405.819977,230.596619 404.945557,215.997147 404.781555,201.319351C404.760925,199.471390 403.088318,197.665619 402.964447,195.788605C402.830383,193.757782 402.893524,190.726379 404.132416,189.775696C408.016968,186.794846 412.229279,183.841034 416.791626,182.215347C433.230347,176.357834 450.526398,175.140457 467.767670,173.860214C472.243683,173.527832 476.788940,173.719330 481.202393,173.030075C493.773682,171.066788 501.516968,178.003510 508.417114,186.988983C511.875061,191.491989 512.892212,196.000381 510.045898,201.165527C504.440399,211.337540 499.334290,221.815613 493.186920,231.645065C490.114746,236.557449 489.011444,241.014557 490.172119,246.538025C490.754303,249.308594 491.426331,253.875015 490.040253,254.899368C486.103516,257.808746 481.180450,260.916931 476.552521,261.066620C463.321777,261.494598 450.044861,260.496307 436.336426,260.090912M457.394714,235.036407C464.979553,236.201019 470.455109,232.711349 473.866974,226.457382C478.690430,217.616119 483.040558,208.500244 487.228973,199.335373C489.550171,194.256210 488.352325,192.621826 482.705963,192.819901C471.750183,193.204269 460.790527,193.708939 449.861298,194.541840C442.426971,195.108414 435.036621,196.279984 427.637146,197.260529C425.043823,197.604187 423.431976,198.805176 423.808655,201.880630C425.154053,212.865692 426.375641,223.865906 427.665314,235.044617C437.873718,235.044617 447.148071,235.044617 457.394714,235.036407M1115.999146,28.185699C1114.439087,35.384407 1113.342163,42.292263 1111.222534,48.870636C1106.534546,63.420353 1101.211304,77.737701 1090.790283,89.447525C1085.555420,95.329803 1079.146851,98.778954 1071.183838,98.841873C1058.593262,98.941368 1046.413330,101.090340 1034.845825,106.120483C1031.147583,107.728645 1030.099976,105.054054 1029.547974,102.852234C1027.940186,96.439133 1026.269775,89.957985 1025.618408,83.404671C1023.714844,64.257263 1022.294678,45.061810 1020.763489,26.819941C1023.803223,24.416769 1025.921753,22.541515 1028.261475,21.002625C1029.063599,20.475031 1030.440308,20.616608 1031.519165,20.746502C1039.928589,21.759085 1048.309937,23.475761 1056.738037,23.735172C1065.940430,24.018415 1075.195068,23.127563 1084.404907,22.449289C1090.018311,22.035883 1095.661255,20.162825 1101.159302,20.599936C1106.076782,20.990877 1110.830933,23.603889 1115.597168,25.396399C1115.972290,25.537497 1115.875610,26.932896 1115.999146,28.185699M1040.178223,46.075840C1041.836792,54.154564 1043.330078,62.274673 1045.330444,70.267830C1045.634644,71.483238 1048.254150,72.795418 1049.866943,72.883102C1055.165771,73.171204 1060.503052,73.097694 1065.809448,72.836128C1082.214966,72.027451 1090.059937,64.876808 1091.474487,49.678726C1091.960449,44.457066 1090.369629,42.401157 1085.270996,42.360920C1072.474487,42.259922 1059.673950,42.189407 1046.882446,42.461063C1044.740967,42.506546 1042.637085,44.327969 1040.178223,46.075840M2.860075,156.000000C3.293263,143.092285 3.726525,130.684570 4.150635,118.538948C10.131635,116.690208 13.266186,117.889954 15.812437,122.606583C20.708395,131.675735 21.686451,141.525055 23.003941,151.413101C24.768761,164.658508 24.875505,177.890610 24.176912,191.220581C23.930082,195.930359 20.596666,197.077332 17.854794,198.433884C16.415335,199.146057 12.931954,197.756058 11.572242,196.239120C6.469152,190.546005 1.905650,184.584595 2.737334,175.983124C3.359847,169.544983 2.860163,162.998337 2.860075,156.000000M220.807281,108.029419C230.418869,117.934441 240.303345,127.156296 248.764709,137.538025C252.283859,141.855896 250.313919,148.257874 247.111023,153.413788C243.275299,159.588394 237.144409,161.818314 230.493652,163.966736C227.991577,148.904785 220.296982,136.365677 211.640350,124.487213C207.094406,118.249359 207.767746,111.892982 208.177338,105.080429C212.903519,104.146523 217.004761,104.610535 220.807281,108.029419M94.521851,67.330780C90.345810,62.463760 90.378525,57.104668 91.168777,51.405205C97.865379,49.744579 104.100807,50.831470 109.480446,54.934483C114.858879,59.036575 119.961479,63.531853 124.922554,68.137466C127.763336,70.774719 128.063278,82.113808 125.593956,85.011711C122.706360,88.400475 119.593040,91.596878 116.132927,95.360466C108.881866,85.956512 101.814774,76.791138 94.521851,67.330780M961.584412,31.220333C972.567810,27.994808 975.872192,30.207258 977.150269,41.237911C978.239624,50.639725 978.132874,50.294209 969.185791,53.060551C959.556213,56.037933 950.154114,59.751087 940.482788,63.203903C936.238647,56.723858 936.074768,54.777267 941.225464,48.320999C946.745300,41.402092 952.845886,35.008965 961.584412,31.220333z"/>
</svg>