<svg x="0px" y="0px" viewBox="0 0 1172 296">
	<path stroke="none" d="M451.399994,297.000000C445.729797,293.846008 440.579315,290.629852 438.126343,284.503723C435.988342,279.164276 436.765350,276.593201 441.271545,273.302368C445.922302,269.905945 446.830566,264.535034 446.725403,259.414581C446.561981,251.459839 445.534668,243.520508 444.806244,235.580826C444.495117,232.189270 441.941742,232.929550 439.878052,233.226074C430.674072,234.548645 421.520508,236.364563 412.276367,237.220917C404.674500,237.925125 396.967194,237.684235 389.314850,237.507507C387.536957,237.466431 385.784332,236.001053 384.034576,235.160950C382.064575,234.215103 380.110901,233.235184 376.653015,231.533188C377.614105,241.322891 378.413361,249.464310 379.300995,258.505859C385.195679,257.529877 390.837158,256.669281 396.449005,255.645905C402.008057,254.632156 407.545044,253.492065 413.077820,252.340607C424.563599,249.950180 433.003784,255.762253 440.683594,262.983063C441.608826,263.852997 441.150726,268.036407 439.980743,268.948547C436.409119,271.733002 432.423950,274.719635 428.151642,275.726349C417.991882,278.120453 407.512909,279.127747 397.284149,281.273224C391.006775,282.589966 384.977234,285.056610 378.790436,286.848114C374.828430,287.995453 370.782654,288.853516 366.972198,289.792480C363.080353,283.741577 358.855560,278.289307 355.956451,272.205322C354.455658,269.055817 354.478119,264.609436 355.240265,261.055115C357.997925,248.194687 354.313416,235.508621 354.865601,222.795242C355.295532,212.897934 357.233917,203.057709 358.747559,193.229935C358.887238,192.322983 360.725739,191.202347 361.912506,191.004852C375.180206,188.796875 388.454346,186.607101 401.768463,184.704330C413.618286,183.010834 425.489624,181.309723 437.410431,180.327499C445.210327,179.684860 451.983307,183.051010 457.595062,188.547211C463.982117,194.802673 467.646149,201.559311 467.161438,211.347046C466.009155,234.614792 466.164154,257.974274 461.650665,280.927856C460.598389,286.279297 457.382782,291.205353 455.081268,296.663574C453.933319,297.000000 452.866669,297.000000 451.399994,297.000000M388.060303,208.470032C385.285980,209.567627 382.296814,210.327698 379.825348,211.901016C378.532684,212.723892 378.149536,214.975525 377.355621,216.581894C379.134308,217.329453 381.022888,218.887848 382.670013,218.664642C386.762268,218.110077 390.697601,216.482559 394.779053,215.747864C410.974396,212.832596 427.366791,206.988647 442.724243,218.883713C443.733459,219.665405 447.745911,218.639313 448.459442,217.378052C451.701477,211.647461 445.044800,200.602859 438.622162,201.353653C421.982361,203.298843 405.415985,205.871918 388.060303,208.470032M410.085083,17.917944C434.476562,43.911777 460.278198,67.562180 491.804504,84.262749C503.727509,90.578751 516.591064,93.651375 529.409302,97.213341C544.130981,101.304245 558.730286,105.883644 573.226135,110.720238C581.337646,113.426659 581.865906,114.846848 581.744019,123.162994C581.666504,128.452560 578.347534,131.232956 573.141968,130.265930C544.117859,124.874229 515.439636,117.941818 489.149597,104.211998C476.283386,97.492699 464.761017,88.194107 452.668915,80.006027C451.036438,78.900612 449.629791,77.461761 448.183136,76.232201C436.028229,85.555923 421.516785,87.173599 407.461273,89.887100C394.242706,92.439026 380.884735,94.260681 367.617218,96.571053C362.390900,97.481148 359.589905,102.470924 360.193359,109.666435C367.067383,108.979378 373.946350,108.308411 380.821655,107.601212C395.881409,106.052170 410.931824,104.405685 426.003784,102.986908C429.291962,102.677376 432.806671,102.569954 435.951263,103.389359C442.871033,105.192505 449.105560,105.385803 455.359253,100.890648C457.223511,99.550613 461.070587,100.417641 463.852234,101.010139C471.759674,102.694473 479.062042,105.830772 485.101715,111.416389C491.386688,117.228828 492.462677,122.401917 489.212830,130.218414C482.806152,145.627701 475.793304,160.670105 464.868561,173.562134C462.170593,176.745926 459.621948,177.964493 455.104370,177.309296C429.511780,173.597610 403.954468,174.343582 378.722626,180.147614C368.959900,182.393311 359.733551,186.448135 352.069275,193.199158C349.440704,195.514496 347.398590,195.844849 344.828461,193.305771C341.516937,190.034225 337.891235,187.077255 334.626617,183.762466C328.877716,177.925308 326.170410,170.742340 326.020599,162.596497C325.940948,158.264954 326.133606,153.925278 325.947083,149.600327C325.867889,147.763885 325.131409,145.955795 324.693665,144.134827C322.432465,144.800156 319.817932,144.955612 317.978943,146.230148C313.205109,149.538727 309.058472,153.813980 304.113800,156.794907C300.102173,159.213303 295.393188,160.759445 290.790894,161.765610C289.083923,162.138779 285.970703,160.331284 285.047852,158.661911C284.340088,157.381683 285.492706,154.237000 286.793030,152.810150C302.157928,135.950027 318.033905,119.545731 333.108398,102.433861C346.338959,87.415154 357.367584,70.776756 366.802582,53.037991C370.831909,45.462479 377.109619,39.058311 380.937836,31.407442C384.586548,24.115307 386.351166,15.884571 389.004242,8.086935C389.596741,6.345510 390.432892,3.259815 391.169312,3.256087C393.597504,3.243793 396.663361,3.663303 398.338531,5.181423C402.514191,8.965506 406.058258,13.446549 410.085083,17.917944M457.621704,149.274857C464.678375,143.008423 466.024933,134.477798 466.666473,125.777245C466.730591,124.907509 464.806244,123.120590 463.739685,123.067490C458.259216,122.794670 452.757172,122.921021 447.263184,122.965797C443.885132,122.993332 441.701691,125.404755 442.715790,128.069183C445.139679,134.437881 442.898834,140.540680 442.994568,146.743851C443.018341,148.282242 444.753082,151.078979 445.727539,151.090561C449.498016,151.135330 453.279114,150.288528 457.621704,149.274857M418.903320,49.613747C415.622833,46.831112 412.504089,43.808880 408.960144,41.416496C407.939026,40.727184 404.949432,41.244339 404.132355,42.245186C399.516113,47.899822 395.206482,53.813606 390.993530,59.781078C390.168121,60.950211 390.226807,62.743484 389.877747,64.248901C391.282410,64.424675 392.738220,64.929832 394.083191,64.721054C401.127930,63.627499 408.155853,62.413986 415.165741,61.113461C418.263336,60.538780 421.304504,59.660172 424.371307,58.919540C422.709045,55.993217 421.046814,53.066898 418.903320,49.613747M363.581573,158.212006C360.937378,152.357910 358.239441,146.527206 355.675507,140.638168C354.656311,138.297134 354.627777,135.025726 350.683319,135.965897C347.201782,136.795746 345.976776,139.299225 345.996216,142.655273C346.019379,146.646149 346.111328,150.641281 345.969208,154.627274C345.797180,159.452148 346.995911,163.071838 352.384155,164.302658C356.923370,165.339508 360.321808,163.852005 363.581573,158.212006M390.270752,147.879410C390.795532,144.282120 391.422974,140.696045 391.818054,137.084564C392.268036,132.971115 390.431793,130.812698 386.134521,130.918289C382.986328,130.995621 379.834045,130.889038 376.684540,130.933243C371.853363,131.001053 370.292084,133.092560 372.653473,137.467361C375.306396,142.382187 378.508911,147.076599 382.044739,151.398590C383.338104,152.979462 386.272644,153.217651 388.458496,154.068390C389.020294,152.293121 389.582062,150.517868 390.270752,147.879410M411.885071,132.590958C412.482025,136.325760 412.819763,140.126907 413.753906,143.775375C414.573029,146.974594 417.092316,146.951691 418.909668,144.853516C421.046295,142.386703 423.282074,139.571365 424.110657,136.534912C424.855164,133.806503 424.813446,129.536743 423.168091,127.854195C421.505127,126.153603 417.383240,126.301537 414.470306,126.673004C413.413666,126.807755 412.737915,129.929337 411.885071,132.590958M738.602295,219.371429C735.715576,217.802155 733.133545,216.435013 730.551575,215.067871C730.078674,218.059692 729.306152,221.039124 729.181580,224.045380C728.395935,243.013733 727.658325,261.985413 727.140137,280.962463C727.028259,285.060242 724.178955,286.359589 721.454163,286.664764C719.317078,286.904114 715.755249,285.657745 714.908386,284.004761C712.671204,279.638123 710.598022,274.775024 710.183838,269.961182C708.716187,252.903656 707.960022,235.784653 706.962585,218.687286C706.860596,216.938965 706.948853,215.179550 706.948853,211.948425C704.614319,214.073639 703.376465,215.263016 702.073975,216.376709C687.531555,228.810745 673.356567,241.720413 658.244995,253.420227C652.147888,258.140839 644.048218,260.332428 636.738464,263.384186C635.137878,264.052429 633.020203,263.481964 629.640198,263.481964C650.101929,240.161621 670.680481,219.010132 688.718262,195.725998C688.435364,195.302353 688.152405,194.878693 687.869507,194.455048C681.372314,195.078506 674.874756,195.698807 668.377930,196.326218C659.773499,197.157166 651.182922,198.335159 642.559448,198.670303C638.776184,198.817337 634.935791,197.199432 631.103638,196.476669C627.815247,195.856506 627.271240,193.797760 627.040833,190.734222C626.673706,185.851120 628.894104,184.581192 633.263855,183.866531C654.087585,180.460770 674.886108,176.877640 695.626648,172.999725C701.970581,171.813568 708.231445,169.832535 712.374329,164.018021C713.007629,163.129135 715.043152,162.845413 716.391541,162.926224C723.203674,163.334412 729.996399,164.283081 736.808655,164.422272C746.022339,164.610535 755.247498,164.234711 764.467773,164.100891C764.599548,163.396637 764.731323,162.692383 764.863098,161.988129C762.459534,160.944382 760.143616,159.350998 757.637329,158.951324C746.318054,157.146301 734.910767,155.884079 723.606140,154.000443C718.253540,153.108551 714.011414,154.619370 709.013306,156.533508C697.597778,160.905304 685.585632,163.814392 673.681030,166.775925C667.268311,168.371262 660.601135,169.410004 654.006409,169.684799C646.402039,170.001678 643.797791,166.674805 643.848267,159.350922C643.870178,156.169312 645.203674,155.363541 648.058594,155.377808C655.722229,155.416153 663.387146,155.303925 671.050659,155.190765C672.540100,155.168777 674.251221,155.283508 675.465820,154.616882C678.015564,153.217453 680.303345,151.340744 682.698669,149.659973C681.157043,147.671249 679.766785,145.538559 678.041748,143.724228C674.612183,140.117096 670.931946,136.748932 667.483215,133.159134C665.091858,130.669891 664.689636,128.214310 667.571289,125.465721C670.284180,122.878098 672.526001,119.796577 675.860779,115.896469C672.399841,116.054878 670.186279,116.111542 667.979309,116.264236C649.393066,117.550064 630.812500,118.928253 612.215942,120.038734C610.304688,120.152863 606.974670,119.110939 606.595703,117.892418C605.602112,114.697411 606.016357,110.860306 609.888428,109.490967C615.819458,107.393494 621.840332,104.957611 628.007385,104.232071C645.846313,102.133347 663.792114,100.954514 681.654480,99.029701C684.071167,98.769295 687.010620,96.820450 688.402344,94.768066C693.342163,87.483452 697.881348,79.909615 702.253479,72.263054C705.818054,66.028862 710.693115,65.392288 715.319946,70.780006C716.556152,72.219505 718.391968,73.144066 719.459595,73.938286C717.571777,77.864731 714.930786,81.459541 714.170288,85.415825C713.201233,90.457710 715.140137,91.847664 720.261719,92.080803C735.322449,92.766396 750.157104,90.898163 764.964600,88.446037C769.208679,87.743210 773.551086,87.253571 777.843384,87.288239C795.510559,87.430916 813.143799,87.329285 830.635803,84.326431C834.046143,83.740990 840.296448,90.881027 840.669373,95.667076C840.861938,98.138077 840.703247,100.636436 840.703247,104.029343C834.580200,104.690865 828.561646,105.634804 822.511292,105.932297C810.708008,106.512650 798.819031,106.065437 787.089600,107.260757C770.766907,108.924156 756.623413,115.365341 747.094727,129.620407C743.220947,135.415680 743.895630,136.644119 751.270935,137.911621C764.126770,140.120972 776.665649,143.447525 787.847107,150.434143C798.020081,156.790619 804.992004,165.457870 806.187012,178.646866C803.093994,179.061539 800.213379,179.659271 797.310425,179.801819C781.174683,180.594040 765.028137,181.176300 748.898438,182.069229C745.130676,182.277802 741.274963,183.005493 737.709656,184.224930C733.386169,185.703674 732.225708,189.357040 735.641174,192.302277C742.511414,198.226669 749.594360,204.231171 757.481079,208.589325C781.874878,222.069290 808.009155,231.643417 834.194336,241.002731C837.482056,242.177856 840.963379,242.986481 843.997192,244.626709C845.630737,245.509888 847.113770,247.638657 847.597778,249.485138C848.705444,253.709747 846.805847,255.129761 842.290894,255.071320C810.084839,254.654648 780.963989,244.133438 753.375977,228.449265C748.459961,225.654434 743.725403,222.540268 738.602295,219.371429M698.096863,116.456642C697.471191,116.683586 696.860352,116.971420 696.217468,117.127487C692.346680,118.067223 689.975891,119.971397 690.840881,124.479767C691.692810,128.920135 694.771301,129.809830 698.576050,129.803696C702.241516,129.797806 705.955505,130.185150 709.562927,129.727692C718.701599,128.568848 727.679016,126.502823 734.853394,120.279655C736.530701,118.824799 738.131409,115.395332 737.536621,113.622856C736.485229,110.489342 734.014404,108.228218 729.514709,109.386246C719.381897,111.993965 709.083618,113.958832 698.096863,116.456642M1057.477905,22.443130C1057.262085,19.999962 1056.874878,17.978674 1057.075195,16.017378C1057.318970,13.630329 1057.621460,9.508484 1058.659424,9.255146C1062.451660,8.329676 1066.832275,8.147341 1069.500122,12.105481C1070.965576,14.279677 1072.459961,16.728308 1072.915527,19.239313C1075.166992,31.648279 1077.098145,44.115845 1079.098022,56.569843C1080.511719,65.373672 1079.071899,63.380913 1087.175903,64.389084C1096.350708,65.530472 1105.515747,67.285416 1114.444702,69.672401C1119.994995,71.156166 1121.540405,75.251274 1120.199219,80.141525C1119.127319,84.049477 1116.736206,85.993233 1112.620972,85.962257C1104.955200,85.904556 1097.287476,86.049820 1089.622925,85.936615C1085.823120,85.880501 1084.030151,86.903618 1083.805054,91.274139C1083.319214,100.707832 1081.865967,110.088165 1081.224854,119.518631C1080.775757,126.121956 1083.084839,128.574585 1089.540161,128.111145C1103.462036,127.111656 1117.370117,125.836670 1131.247192,124.334816C1138.091187,123.594131 1153.838013,130.887360 1157.136475,136.925430C1161.019531,144.033646 1154.269653,154.474426 1145.753052,154.129166C1132.786865,153.603516 1119.837036,152.685516 1106.875122,152.034683C1103.218140,151.851044 1099.537109,151.878876 1095.878540,152.052505C1087.341553,152.457596 1082.831055,156.633865 1081.743896,165.179260C1081.325073,168.472061 1081.119629,171.814514 1081.118286,175.134491C1081.104126,210.472961 1078.972290,245.688080 1075.137085,280.809357C1074.739624,284.448212 1074.488281,288.103210 1074.183960,291.751984C1073.902222,295.130402 1071.420288,294.994659 1069.038940,294.961853C1066.681396,294.929413 1064.478638,295.054626 1063.935059,291.673523C1061.402466,275.918640 1058.369995,260.310913 1058.697632,244.151794C1059.234863,217.663986 1058.846558,191.157394 1058.848511,164.658722C1058.848999,157.250137 1058.523315,156.851212 1051.429565,157.917313C1032.849487,160.709656 1014.287354,163.621552 995.714966,166.465744C994.073303,166.717148 992.412842,166.885986 990.754700,166.981842C986.735291,167.214203 984.017273,165.569885 983.039734,161.483917C982.011169,157.184967 983.554749,154.208054 987.799622,153.050827C999.177795,149.948944 1010.540588,146.755035 1022.020142,144.070831C1033.497681,141.387085 1045.109253,139.276306 1056.423828,136.963074C1056.755981,136.326340 1057.034058,136.038025 1057.042114,135.742447C1057.409302,122.092155 1057.838013,108.442650 1058.064453,94.789818C1058.184082,87.575050 1057.842529,87.475227 1050.820679,88.674423C1045.575684,89.570198 1040.322266,90.611481 1035.029785,90.991562C1026.451294,91.607643 1021.232544,96.624825 1016.775146,103.299446C1010.877563,112.130577 1005.120544,121.123543 998.438049,129.343613C991.624878,137.724411 984.017029,145.606873 973.779663,150.016891C971.940674,150.809097 969.563416,150.351822 967.434692,150.471405C968.134277,148.261566 968.181213,145.405136 969.632568,143.940170C987.535217,125.870407 996.804016,103.452995 1001.898682,79.162598C1003.823242,69.986298 1003.748169,60.390598 1004.606079,50.744080C1006.216614,49.781219 1008.272339,48.509403 1010.376587,47.323696C1010.914307,47.020733 1011.613953,46.828979 1012.225037,46.860447C1017.032227,47.108006 1025.631836,56.142414 1025.785522,61.045734C1026.166016,73.171501 1026.173462,73.218117 1038.127563,71.290634C1043.688721,70.393936 1049.319214,69.633636 1054.695679,68.053528C1056.439453,67.541039 1058.656372,64.613037 1058.646362,62.800957C1058.573364,49.496262 1057.989624,36.194370 1057.477905,22.443130M245.881912,222.002274C211.119720,221.334366 176.842850,220.346893 142.561142,220.132797C124.778328,220.021744 106.987083,221.282486 89.199402,221.916519C81.741425,222.182373 79.038681,219.496429 79.010811,211.762512C79.005539,210.298950 79.148590,208.834839 79.241943,207.003326C102.064919,204.649414 124.674828,202.317490 147.863159,199.925903C148.238739,193.305939 148.694443,186.738266 148.965820,180.162979C149.425476,169.025101 149.801575,157.883453 150.148178,146.741379C150.348175,140.311539 148.611481,138.695969 142.407928,139.164246C138.098282,139.489563 133.767365,139.589203 129.473526,140.047714C126.597992,140.354767 125.125664,139.084976 124.316444,136.571335C123.909851,135.308350 123.468811,134.056396 123.067444,132.791794C120.550812,124.862556 121.553284,123.104378 129.284729,121.383163C135.266724,120.051407 141.210648,118.549591 147.179504,117.157654C151.414673,116.170021 153.089386,113.636230 152.912582,109.227821C152.019547,86.960564 151.305038,64.686150 150.546478,42.413609C150.530624,41.948124 150.738495,41.475018 150.833176,41.045551C161.291611,38.661865 166.546478,40.925701 169.412628,50.652496C171.686630,58.369717 173.208191,66.490730 173.680573,74.513908C174.382202,86.430206 173.862289,98.418419 173.862289,110.806709C183.087906,109.657768 191.749359,108.579086 200.392883,107.502640C204.073990,112.346001 204.767517,117.762314 203.938736,123.257950C203.680603,124.969681 201.755783,127.218056 200.096695,127.797874C191.668747,130.743286 183.144241,133.478088 174.507477,135.725159C171.434692,136.524628 169.979553,137.262192 169.881958,140.702927C169.391571,157.989609 168.737579,175.273132 167.942245,192.548630C167.743118,196.873947 169.856949,197.409393 173.411972,197.392029C194.568695,197.288651 215.726395,197.283890 236.883270,197.370697C244.865387,197.403458 252.462082,198.540894 257.808136,205.632355C260.966492,209.821899 262.782043,214.164520 261.389771,219.950699C256.444214,220.626373 251.404709,221.314880 245.881912,222.002274M42.505047,90.457413C39.102020,90.017883 35.690693,90.145256 33.162792,88.713173C28.292351,85.954056 28.752838,79.507187 34.119644,77.608902C41.900063,74.856895 49.964096,72.773865 58.042931,71.037056C65.593597,69.413788 66.755783,67.541992 62.890938,60.766926C61.490223,58.311478 60.250271,55.693153 58.460823,53.545963C55.094360,49.506496 55.354374,45.046005 56.027531,40.113148C61.610500,39.351608 66.677094,39.219025 71.758148,42.547871C80.793991,48.467682 87.889488,55.688797 91.614571,66.052536C92.863625,69.527573 92.347618,72.243217 90.684486,75.402267C80.085899,95.533920 69.671005,115.762337 59.214127,135.968460C58.390759,137.559479 57.708012,139.223282 56.778111,141.249359C59.279964,142.645157 61.558414,143.916901 63.837406,145.187668C72.671501,150.113632 81.515144,155.022583 90.336273,159.971664C95.189392,162.694473 97.784142,166.507156 95.654793,173.152496C89.415298,172.682327 82.854843,172.184677 76.293854,171.694244C62.648327,170.674225 63.762074,168.179214 61.468349,182.074448C58.989613,197.090439 58.894508,212.506271 57.882763,227.755859C57.167645,238.534531 56.589325,249.323685 56.097794,260.114899C55.952778,263.298645 54.686104,264.527039 51.480854,264.391113C46.856495,264.194885 42.217613,264.340912 37.833714,264.340912C38.375988,231.056564 38.910931,198.222229 39.445873,165.387894C38.884689,165.047028 38.323502,164.706146 37.762318,164.365280C34.014683,167.177811 30.037371,169.736862 26.580070,172.869797C22.642851,176.437622 18.829304,180.254242 15.586659,184.445938C12.061218,189.003220 7.894506,190.305817 2.284660,188.916183C0.862094,185.302139 1.863767,182.199127 4.065779,178.928543C18.141649,158.021896 32.231094,137.120529 45.960571,115.986488C51.260326,107.828484 55.631096,99.066971 60.479519,90.484108C54.109177,85.259590 48.517036,90.092018 42.505047,90.457413M920.989746,95.983017C931.980164,81.102493 942.783142,66.523941 953.578918,51.940067C958.257080,45.620403 965.168762,45.949520 969.188965,52.694832C975.292603,62.936089 975.156250,63.006996 966.955688,71.459740C959.425232,79.221657 951.903320,87.028450 944.973328,95.313690C942.914246,97.775375 941.715149,102.048790 942.073425,105.275352C947.082703,150.387085 948.076721,195.654099 947.473206,240.967468C947.363831,249.180161 945.938782,257.533966 943.908508,265.514069C942.171631,272.340942 934.043396,273.788513 929.385681,268.425537C924.851868,263.205170 921.841797,257.551331 923.802795,249.781433C925.533020,242.926468 926.003845,235.616379 926.058289,228.499786C926.282898,199.174606 926.158997,169.846558 926.085449,140.519760C926.079712,138.225159 925.654114,135.888855 925.113770,133.646622C923.643799,127.547089 920.733032,125.871254 914.970337,128.636673C910.835205,130.621033 907.312073,133.844223 903.356812,136.253494C900.999939,137.689133 898.335510,138.619659 895.128845,140.089157C894.515869,133.885117 894.292603,129.578751 897.902527,125.304146C905.848511,115.895264 913.203308,105.987152 920.989746,95.983017M658.386597,37.127449C669.496887,36.251717 680.234375,35.436924 690.982422,34.799877C694.880005,34.568867 698.802673,34.762730 704.082153,34.762730C700.434937,29.665628 697.391785,25.972515 695.033813,21.884211C693.830933,19.798756 693.858093,17.003895 693.329285,14.529679C695.344177,14.105585 697.355896,13.333403 699.374512,13.315132C710.631958,13.213234 718.577393,19.460016 725.776367,27.221718C726.926331,28.461517 728.952454,29.721991 730.497131,29.633865C746.436401,28.724529 762.347595,27.077597 778.293762,26.649139C785.084778,26.466669 792.200073,27.871811 798.703125,29.985655C807.728638,32.919407 809.664551,42.821388 803.504761,50.012146C793.949707,61.166481 781.980835,69.323509 769.631775,76.870476C766.985474,78.487717 762.876953,78.227898 759.503174,77.984787C756.508545,77.768982 756.359192,72.388245 759.283630,69.355003C762.859741,65.645844 766.771973,62.238701 770.127014,58.345940C772.517700,55.572052 774.228394,52.212177 776.242615,49.113834C775.946716,48.669224 775.650818,48.224613 775.354919,47.780003C766.618042,48.241505 757.877197,48.639816 749.145142,49.179100C735.531189,50.019875 721.909729,50.792641 708.317017,51.906189C698.214905,52.733776 688.125854,53.855591 678.083496,55.229862C671.679810,56.106194 670.943787,57.355026 670.945984,63.672871C670.949158,72.665405 670.809998,81.661034 671.013550,90.648964C671.095093,94.247932 669.990662,95.728317 666.256958,95.776360C658.564697,95.875328 652.188232,92.360939 651.353760,84.758400C649.964844,72.103630 649.872192,59.273029 649.875366,46.516628C649.876526,41.839127 653.862366,39.099739 658.386597,37.127449z"/>
</svg>