<svg x="0px" y="0px" viewBox="0 0 456 250">
<path stroke="none" d="M32.444164,251.000000C22.541332,238.150238 19.274151,223.569763 22.352907,208.228958C25.500772,192.543777 23.893227,177.060272 22.530409,161.555618C21.383291,148.504959 19.027252,135.556641 17.053246,122.586334C16.709166,120.325546 16.231928,117.462669 14.715420,116.139351C12.015415,113.783325 8.474401,112.391098 5.285127,110.595779C4.783441,110.878502 4.281755,111.161232 3.780070,111.443954C4.402820,109.365227 4.762112,107.159691 5.691650,105.228638C11.175568,93.836105 16.229248,82.184586 22.506910,71.239182C30.303532,57.645420 32.484211,42.862103 34.011974,27.768623C34.495876,22.987946 34.925404,18.201761 35.373405,13.485551C42.940502,12.056509 51.073681,21.612780 54.476532,35.955235C64.775536,34.848022 75.135201,33.691200 85.505028,32.633942C92.968491,31.872999 98.623627,35.310730 103.176201,40.803268C105.616982,43.747993 104.535820,46.381718 101.180534,47.355453C93.867058,49.477886 86.479324,51.429729 79.016830,52.927635C72.550392,54.225601 65.939087,54.801788 58.941097,55.758625C64.114792,66.408936 77.488052,70.669243 79.673447,83.408386C73.606598,84.531815 69.236191,84.143669 65.003204,80.233223C60.653503,76.214943 55.389843,73.150703 50.377304,69.898338C47.310905,67.908730 44.624729,68.266579 42.369141,71.698334C38.353226,77.808327 33.878506,83.616707 29.860783,89.725594C28.375702,91.983635 27.638472,94.733528 26.073660,98.398552C33.077091,96.635559 38.723785,94.396759 44.512047,93.935844C54.920853,93.106995 65.454056,92.704529 75.859901,93.346237C83.697762,93.829575 89.193901,100.823837 89.523827,111.714806C89.832161,121.893021 88.124207,132.168335 86.805763,142.336349C86.443001,145.134018 84.529076,147.850616 82.918259,150.339981C80.065422,154.748764 76.417816,157.176010 70.789650,154.785934C63.537254,151.706085 57.109501,155.706100 50.661118,157.968872C37.785652,162.486923 36.616451,163.638794 39.167759,176.853180C41.159485,187.169250 39.486679,197.263672 39.903202,207.442123C40.311535,217.420441 40.876663,227.397614 40.998470,237.379852C41.050423,241.637756 40.151260,245.907288 39.842152,250.585754C37.629444,251.000000 35.258884,251.000000 32.444164,251.000000 M40.584671,111.947632C39.202110,112.483406 37.425701,112.659927 36.531033,113.640739C35.249161,115.046043 34.611088,117.038589 33.698139,118.780418C35.347378,119.525887 36.941322,120.653717 38.662376,120.902603C40.193584,121.124023 41.884598,120.445404 43.472130,120.036201C49.712204,118.427750 55.920376,116.691307 62.180183,115.165680C64.785423,114.530739 67.490456,114.305252 70.150108,113.893570C70.337700,113.355164 70.525284,112.816765 70.712875,112.278358C68.938660,110.972343 67.061943,108.432129 65.407600,108.569519C57.358971,109.237946 49.369850,110.622971 40.584671,111.947632M41.756794,142.078903C50.510818,140.331818 60.061264,140.603424 66.419205,132.634872C57.870724,131.658295 49.789211,133.064651 42.146313,136.501404C39.878613,137.521103 37.274899,139.385956 41.756794,142.078903zM140.985687,201.036713C140.970123,209.917847 140.970123,218.333069 140.970123,227.413895C133.553574,228.545105 125.534431,229.499725 117.630707,231.044769C108.673195,232.795807 99.792740,234.970139 90.933220,237.178787C87.463287,238.043839 84.954498,242.284134 80.367264,238.884323C75.283142,235.116302 71.185158,230.946167 70.915184,224.423325C70.481544,213.946106 70.579468,203.447891 70.241219,192.965363C69.983559,184.980545 69.606895,176.986801 68.864120,169.036163C68.525261,165.408920 69.702377,163.043533 72.905182,162.040680C83.957375,158.580032 95.036766,155.186417 106.205154,152.130325C109.058472,151.349564 110.952362,150.906982 111.294136,147.389465C112.705948,132.859192 114.647018,118.377266 115.871262,103.833603C116.265732,99.147507 115.056404,94.326401 114.519531,88.954361C121.162209,88.355591 127.225777,87.626060 133.310944,87.300728C144.117752,86.722961 154.936020,86.161827 165.752975,86.085587C169.284149,86.060684 173.008194,87.118973 176.323029,88.469673C182.183502,90.857666 184.255768,94.803772 183.795456,101.159660C183.687759,102.646629 183.584625,104.202293 183.082306,105.581772C177.898956,119.816475 181.470413,134.234528 182.342209,148.531219C183.557434,168.459717 185.895355,188.325180 186.865829,208.260803C187.320724,217.605164 185.795792,227.059052 184.948639,236.443497C184.759827,238.534882 183.795441,240.607620 182.930267,242.575592C181.275696,246.339157 178.709778,247.968384 174.612610,245.810120C168.010773,242.332474 161.169388,239.267395 154.777832,235.445084C148.944046,231.956345 146.698532,226.408920 148.152771,219.524567C153.068695,217.038528 155.780746,220.619217 158.782059,223.380417C164.358124,228.510300 166.376801,228.135818 167.895584,220.558655C168.956711,215.264725 168.855713,209.665359 168.713837,204.216995C168.354172,190.403488 167.683655,176.597977 167.124176,162.789825C167.063721,161.298096 167.063797,159.780777 166.778137,158.325897C166.061096,154.673904 164.401352,152.418213 160.011826,153.087463C154.604019,153.911972 149.103348,154.108536 143.672852,154.809280C139.599182,155.334930 137.496948,157.666840 137.947296,162.023285C138.477036,167.147675 138.358444,172.389587 139.396164,177.399231C140.990631,185.096573 142.410675,192.707626 140.985687,201.036713M119.372833,181.963013C123.564354,182.125732 124.061844,179.695923 122.102318,177.025452C120.547340,174.906311 117.947502,172.212692 115.741844,172.147903C106.917999,171.888702 98.017319,172.107361 89.247864,173.078018C85.151237,173.531464 83.986572,177.946777 85.326004,182.737564C86.484406,186.880829 89.494942,186.202744 92.472679,185.775208C101.151543,184.529053 109.827904,183.265472 119.372833,181.963013M156.344849,121.946884C148.994446,123.897507 141.583801,125.651962 134.319519,127.882988C130.783020,128.969116 130.419174,132.192245 131.353226,135.340134C132.312439,138.572800 134.739441,138.495300 137.735397,138.347244C145.299896,137.973434 152.533524,132.734329 160.403259,136.718521C160.698135,136.867813 161.281982,136.446304 161.887985,136.236511C161.887985,131.278915 161.887985,126.376579 161.887985,121.158188C160.091370,121.430153 158.648331,121.648605 156.344849,121.946884M118.513885,210.705109C120.378159,207.025970 118.629189,205.633240 115.127525,205.097961C109.887222,204.296890 104.680870,203.274582 99.441956,202.463364C95.789803,201.897827 92.107300,201.528305 87.928581,201.007721C88.431648,206.115509 88.846489,210.327499 89.300743,214.939713C99.235779,214.608582 108.885201,215.621750 118.513885,210.705109M136.320755,107.655739C143.045944,107.090492 149.789993,106.675644 156.480835,105.836533C157.863937,105.663078 159.049057,103.911011 160.325424,102.886513C158.955551,101.872635 157.438354,99.843742 156.240891,100.017578C150.535385,100.845795 144.875961,102.119240 139.298233,103.602982C138.025955,103.941414 137.142731,105.742393 136.320755,107.655739M307.798584,97.511200C310.359924,134.215012 295.669983,164.711594 275.517456,193.223984C274.011108,195.355209 269.727081,195.523193 266.734314,196.603821C266.389648,196.093216 266.045013,195.582596 265.700348,195.071991C266.261536,193.061844 266.760681,191.031967 267.393494,189.044632C273.400177,170.179718 280.489716,151.576752 285.102539,132.378189C288.526276,118.128662 288.811188,103.115555 290.301025,88.422974C290.483002,86.628479 289.465698,84.712372 288.732025,81.755836C284.603394,85.196831 281.305420,88.110329 277.837524,90.805115C267.191223,99.077911 256.596375,107.427505 245.688568,115.343605C243.673019,116.806343 240.124237,117.141304 237.593994,116.584366C235.720398,116.171974 236.890808,108.171364 239.186859,106.316605C266.058838,84.609261 288.557373,58.783073 309.903839,31.819155C312.944641,27.978153 317.162109,24.970821 321.157196,22.012833C324.615143,19.452564 327.287659,21.152159 329.802002,24.411501C334.119629,30.008463 338.534485,36.112839 344.289307,39.913513C364.541046,53.288429 385.284637,65.932777 406.085327,78.449242C409.778412,80.671501 414.766327,80.617722 418.928650,82.210159C427.572662,85.517227 436.215057,88.906960 444.558868,92.889656C449.233215,95.120827 450.421570,99.978096 449.895477,104.906403C449.787445,105.918373 447.859467,107.669678 447.018524,107.534630C418.359589,102.932167 390.804474,95.330093 367.332886,77.122688C364.757568,75.124969 362.338196,72.926285 358.631165,69.793869C359.125549,75.120964 359.411163,78.970360 359.849548,82.802277C363.975098,118.862679 362.121155,155.008835 360.896423,191.101395C360.391235,205.988861 357.700256,220.805038 355.903931,235.641586C355.709167,237.250381 355.295227,239.339508 354.194885,240.211716C352.587769,241.485657 350.278717,242.364182 348.245300,242.412155C347.159454,242.437775 345.568176,240.550598 345.023956,239.197342C344.306854,237.414200 344.201202,235.310806 344.165894,233.339111C343.733185,209.193451 343.540344,185.042038 342.912323,160.901810C342.479706,144.273087 341.635284,127.649590 340.664642,111.041893C339.691254,94.387787 339.718018,77.815620 342.839874,61.358673C343.371918,58.553955 343.031799,56.300461 340.182678,54.600925C336.619629,52.475498 333.222412,50.013439 329.999542,47.394081C327.199524,45.118397 324.503845,45.276974 321.722260,46.966911C312.317383,52.680725 306.501160,61.703434 300.473236,70.476067C299.930389,71.266060 300.501312,72.995239 300.855865,74.199699C303.103149,81.834045 305.435150,89.443451 307.798584,97.511200M143.565262,71.408371C138.770554,68.364723 134.216507,65.610130 129.779236,62.678738C126.200363,60.314419 123.834839,60.694656 121.219894,64.497803C117.181328,70.371429 112.472511,75.795486 107.900177,81.287163C104.411354,85.477463 99.895157,86.930069 93.299347,85.269463C94.330803,82.171753 94.771255,78.881699 96.386803,76.337936C103.348083,65.376968 108.269165,53.707436 109.965050,40.782303C111.312431,30.513369 108.211418,21.492317 102.421257,13.084830C100.800552,10.731524 100.225365,7.658185 99.902351,4.485379C117.953789,6.208380 123.112129,20.255629 129.333191,33.930428C138.478302,32.466915 147.735596,30.742334 157.062241,29.569397C164.596619,28.621862 172.278992,27.446510 179.779266,27.987309C189.203751,28.666853 192.950897,34.921890 191.094559,44.967239C175.057251,44.579414 158.943176,44.906780 142.500671,52.228607C148.171402,58.278507 152.988922,63.258965 157.589127,68.432663C158.810669,69.806496 160.097458,71.800095 160.038086,73.462120C159.965179,75.502953 158.923096,77.930061 157.465561,79.306847C156.824142,79.912727 153.939270,78.638031 152.396957,77.690071C149.428207,75.865356 146.690109,73.665398 143.565262,71.408371z"/>
</svg>