<svg x="0px" y="0px" viewBox="0 0 616 160">
	<path stroke="none" d="M519.600037,0.999993C521.260986,2.862655 522.521973,4.725325 524.332581,7.399989C530.837891,6.722782 538.107666,6.054261 545.352844,5.181021C550.261536,4.589386 554.362305,6.814420 555.178650,11.659464C555.482056,13.460261 554.199890,16.175213 552.746460,17.467266C550.767151,19.226801 547.931152,20.022686 544.839111,21.537148C551.420776,22.046551 557.284119,22.418600 563.126831,22.998329C565.087219,23.192848 567.067810,23.726231 568.913818,24.432487C575.399902,26.914007 576.581909,30.437191 572.997192,36.280319C564.946838,49.402515 553.751831,56.952030 537.843811,57.147625C525.234680,57.302658 517.141296,63.837402 512.879761,75.750031C512.021790,78.148575 510.621002,80.615959 508.807617,82.364029C501.139191,89.756317 493.299561,96.977844 485.343170,104.060287C483.068787,106.084862 480.190643,107.431198 477.556274,109.109589C474.800201,105.488670 474.947540,103.290291 477.981537,100.212067C486.021484,92.054955 493.563202,83.397110 501.103088,74.763794C502.924347,72.678391 504.154541,69.997360 505.287720,67.427612C505.772644,66.327904 505.313690,64.811989 505.283630,63.485188C504.192627,63.935635 502.912933,64.160797 502.049988,64.883560C500.268921,66.375259 498.955841,68.598595 496.984619,69.637596C495.305359,70.522705 492.842041,70.665138 490.983337,70.169525C489.962494,69.897331 488.787140,67.593628 488.853210,66.264145C489.445770,54.343758 487.953186,42.746845 482.914307,29.729441C487.663269,30.558199 490.997894,31.089464 494.309082,31.740082C495.883820,32.049496 497.591644,33.263729 498.935516,32.911026C508.228180,30.472111 517.506470,27.930866 526.642639,24.969765C529.738892,23.966263 532.613098,21.798031 532.011902,17.172562C521.937256,16.270460 513.664368,20.331566 506.001221,26.213972C500.900177,30.129686 500.754486,30.176367 492.930908,28.820173C494.329773,26.829323 495.293243,25.164286 496.534241,23.741272C502.972382,16.358686 509.481354,9.037864 515.982788,1.347763C517.066711,1.000000 518.133362,1.000000 519.600037,0.999993M536.123047,47.618763C541.174377,46.766548 546.323730,46.277859 551.246582,44.949528C555.341309,43.844662 558.189087,40.782604 558.295532,36.280334C558.322693,35.132225 556.515381,32.921406 555.562012,32.927505C546.260010,32.986984 536.427368,32.367252 533.109558,44.379467C533.801514,45.302704 534.587402,46.351250 536.123047,47.618763M519.923279,39.650330C519.190857,39.078232 518.307861,37.892059 517.749207,38.028969C512.128723,39.406384 506.545349,40.946861 500.998413,42.598904C500.261902,42.818268 499.245239,43.947178 499.284088,44.599773C499.453308,47.442863 499.193878,50.809372 500.655609,52.881401C501.466614,54.031052 505.399078,53.259445 507.851501,52.880440C509.771576,52.583706 511.597382,51.603539 513.433044,50.849136C518.036560,48.957253 520.857910,45.911728 519.923279,39.650330M1.000000,50.437500C11.122173,47.583210 21.235813,45.129902 31.369390,42.761925C38.637005,41.063656 45.923920,39.445751 53.215782,37.854134C60.253284,36.318027 63.333267,39.093510 62.799377,46.904266C53.673141,48.543282 44.367748,49.943626 35.191978,51.939838C26.315792,53.870865 17.616442,56.614735 8.740271,58.545860C6.603047,59.010849 4.074049,57.675095 1.362609,57.083733C1.000000,54.958332 1.000000,52.916668 1.000000,50.437500M343.568604,137.573639C336.921875,139.018188 330.936096,139.440567 326.254700,132.947495C333.168091,125.599716 343.399475,126.125015 352.429260,122.586021C348.342499,115.299835 337.292206,119.814278 334.355865,110.187027C339.015686,108.770943 343.761810,107.607552 348.268005,105.834305C350.330933,105.022537 352.612885,103.362022 353.575989,101.466728C355.328949,98.016846 353.608063,95.836128 349.608673,95.882217C343.411743,95.953629 337.064575,96.631485 333.377655,89.302032C334.644501,88.501839 336.005035,87.728012 337.273376,86.824753C340.644104,84.424263 341.821838,81.179787 340.637848,77.205063C339.841827,74.532661 338.458618,73.314468 335.155212,73.651924C330.590698,74.118225 325.917542,73.501831 321.290161,73.377045C316.204102,73.239883 314.190521,70.497398 314.654663,65.557480C322.304871,63.888828 329.990295,62.212490 339.220978,60.199108C331.669159,54.314449 324.445160,50.041382 325.164764,40.229797C333.391205,39.097889 335.080688,47.800549 341.456482,50.427166C343.168518,44.717735 344.399536,39.144432 342.949463,33.150471C342.175537,29.951454 341.264832,26.653919 341.358154,23.428104C341.410645,21.613174 343.022461,19.198603 344.624939,18.323639C345.534729,17.826883 348.732147,19.491756 349.357086,20.878254C351.299500,25.187653 353.287506,29.740984 353.808655,34.363079C354.547943,40.919777 353.996277,47.622032 353.996277,54.804508C356.622131,55.965508 357.682312,54.023663 358.113159,51.228024C359.961853,39.231358 362.282501,27.259235 360.090179,15.037092C359.886780,13.903082 359.882477,12.733352 359.786987,11.595644C366.362854,9.960533 369.287720,11.591414 369.800873,18.534897C370.385162,26.441282 369.935974,34.424046 369.935974,43.082191C376.417725,39.849663 379.146637,34.605198 380.118622,28.250015C387.383331,27.969069 391.773010,32.599827 390.620361,39.324604C390.452179,40.306042 389.190582,41.203148 388.271912,41.934612C384.717285,44.765007 381.096710,47.512585 377.019684,50.662621C381.633789,53.637150 385.319855,55.805485 388.765045,58.305698C391.161713,60.044968 391.513611,63.859333 396.215302,63.273090C403.966217,62.306641 411.984711,62.763279 418.508820,57.563972C419.869354,56.479706 420.926178,54.172024 420.954254,52.409531C421.054810,46.094669 420.459930,39.770718 420.495789,33.452286C420.532715,26.947702 420.997711,20.445477 421.291565,13.942950C421.297363,13.814292 421.501312,13.694585 421.728455,13.442163C425.517517,12.390378 427.344666,14.834744 428.031799,17.902617C429.881378,26.160786 431.484222,34.479885 432.948303,42.816380C433.691406,47.047611 433.923920,51.368511 434.399200,55.758659C440.833893,56.489841 447.105988,56.966835 453.288025,57.988888C457.329315,58.657013 462.819214,59.638145 462.083954,64.831825C461.422028,69.507179 456.141663,69.016479 452.121857,68.955994C447.456390,68.885788 442.781555,69.102036 438.124908,68.887299C434.548859,68.722382 432.913300,69.859070 433.032776,73.674103C433.480316,87.965103 434.077698,102.263954 433.972198,116.555084C433.907379,125.340302 432.559875,134.110153 432.014709,142.900955C431.826050,145.942871 432.320160,149.027130 432.505341,152.140747C420.476471,152.355637 399.035461,137.470459 397.148682,128.071106C399.636749,125.847160 401.741394,126.222527 404.333435,128.446716C409.309448,132.716568 414.610291,136.607910 419.776367,140.656265C420.234192,140.396393 420.692047,140.136520 421.149872,139.876633C421.149872,133.387634 421.041290,126.896416 421.174286,120.410149C421.396240,109.586067 421.976044,98.765327 421.985504,87.942825C421.989349,83.529327 420.914856,79.112434 420.298462,74.701637C419.814331,71.237114 417.662323,70.489609 414.553986,71.152428C409.839661,72.157700 405.128296,73.219894 400.367584,73.939987C398.789307,74.178711 396.899811,73.780403 395.432678,73.083641C389.616241,70.321373 383.910706,67.325615 378.153534,64.411057C372.467712,76.135551 372.467712,76.135551 379.955719,83.620056C377.857086,88.413734 373.148102,89.975380 368.944763,92.065666C366.639893,93.211891 363.794891,94.191315 365.164612,97.284706C365.995117,99.160263 368.296509,100.425911 370.036133,101.844086C371.368408,102.930176 373.626282,103.544563 374.109253,104.866745C375.035126,107.401192 373.788269,109.351227 371.128754,110.813431C367.642090,112.730400 362.340118,113.709595 364.235718,120.130318C371.182159,121.068558 377.461334,114.586349 384.780243,117.805847C385.726196,123.263512 382.604675,126.499512 378.475159,128.030914C370.254547,131.079483 361.776733,133.458588 353.339539,135.886093C350.321838,136.754318 347.114563,136.963593 343.568604,137.573639M351.026215,77.228188C351.767853,78.555550 352.309906,80.779884 353.297943,80.999718C354.774170,81.328171 357.328308,80.765739 358.077850,79.665382C360.332520,76.355476 361.936096,72.602036 363.866699,68.880775C354.115173,65.943130 350.420380,68.322960 351.026215,77.228188M491.546753,133.954529C487.867584,132.659912 487.949677,130.597305 490.840332,127.841499C500.941376,118.211533 511.004730,108.537262 520.869324,98.666893C523.908081,95.626381 526.030212,91.682617 528.992004,88.549408C533.071289,84.234055 532.364258,80.422493 528.207947,75.934990C528.278870,82.707924 524.586731,87.132301 520.334412,90.944000C514.018921,96.605011 507.298767,101.812660 500.802582,107.274834C498.661224,109.075371 496.627594,109.442230 494.801758,107.084991C492.963196,104.711357 494.172485,103.127983 496.110535,101.207649C504.382538,93.011078 512.399231,84.557388 520.564331,76.251823C522.081787,74.708267 523.853577,73.414780 525.227417,72.244812C524.365234,69.588631 523.395203,66.600029 522.384033,63.484756C529.763733,62.219044 539.788330,72.237816 545.140686,85.607109C555.389893,76.460373 563.576233,65.012024 576.858459,59.152714C578.488464,64.525681 578.671814,68.217178 574.236389,71.745750C566.566956,77.847214 559.443665,84.635269 551.832947,91.363625C568.522461,104.450180 586.078430,114.879265 606.790039,119.111061C607.604919,119.277557 608.404175,119.525055 609.221802,119.673080C613.066772,120.369171 615.245361,123.033051 615.018005,126.551323C614.746765,130.745697 610.988098,130.891632 607.752014,130.729385C591.464905,129.912842 577.676636,122.875923 565.006653,113.226021C560.581970,109.856049 556.351868,106.230621 551.007751,101.889046C551.007751,108.710899 551.684082,114.354126 550.839417,119.759689C549.742126,126.782196 547.850647,133.758087 545.542114,140.493912C542.762512,148.604187 538.163696,150.528305 530.402954,146.718063C525.128540,144.128525 520.437622,140.350632 514.869751,136.700287C520.004822,133.018936 524.566406,134.049896 529.042664,134.589661C536.018311,135.430817 537.223450,135.121429 537.831726,128.219101C538.734985,117.968689 538.640869,107.627525 538.848389,97.322517C538.872498,96.125366 538.116333,94.912514 537.656738,93.507965C524.759766,109.995010 512.332397,126.444542 491.546753,133.954529M137.053040,45.420677C138.610092,46.210102 140.214447,46.536072 140.864532,47.503368C141.876251,49.008789 142.906143,51.062534 142.635590,52.665733C142.464462,53.679783 139.995514,54.858124 138.467758,55.000015C129.693802,55.814911 120.892395,56.332283 112.102455,56.979919C111.112976,57.052822 110.123962,57.255947 109.156883,57.490124C99.325592,59.870762 96.036369,65.453362 99.006111,75.152794C99.299385,76.110680 101.122437,77.136307 102.273361,77.182312C104.570946,77.274170 106.886986,76.576492 109.209328,76.437317C116.603813,75.994209 121.661789,81.035103 121.988998,88.355095C122.909676,108.952126 115.972908,127.204987 105.842735,144.605759C104.436409,147.021423 102.856453,147.742172 100.689377,146.041946C94.723618,141.361343 88.682770,136.746948 83.063316,131.672592C81.395477,130.166534 81.025635,127.223030 80.061028,124.938194C80.512238,124.586990 80.963448,124.235786 81.414658,123.884575C85.872787,126.816574 90.312744,129.776672 94.794067,132.672775C99.404877,135.652557 100.337746,135.343979 102.124413,130.060562C106.387405,117.454308 110.565857,104.848068 111.207565,91.355026C111.419952,86.889183 110.077583,85.365768 105.593636,85.951752C97.214050,87.046829 90.885277,90.893150 87.089996,98.575012C81.898041,109.083839 73.787369,117.205818 65.227631,124.888199C63.890484,126.088303 61.444386,126.052811 59.511070,126.588661C59.098297,126.156258 58.685524,125.723854 58.272751,125.291451C59.406300,123.147438 60.264057,120.792175 61.718220,118.893738C71.063026,106.693893 79.874466,94.169022 84.278702,79.224434C85.851685,73.886917 86.438530,68.258781 87.679832,61.680401C81.347687,62.732647 76.177216,63.498863 71.044846,64.467026C63.769638,65.839409 59.801601,63.846821 55.864750,55.972633C61.890068,55.015984 67.653954,54.037025 73.437698,53.194336C91.874718,50.508068 110.312965,47.828030 128.767731,45.268112C131.354019,44.909367 134.035309,45.235550 137.053040,45.420677M275.925232,77.970688C280.834686,85.701340 276.833710,91.255951 271.091125,95.919624C265.046692,100.828415 258.577881,105.214653 251.815170,110.181267C263.755493,123.960999 275.527771,138.152557 292.751923,146.239975C295.119141,147.351471 297.793671,148.142075 300.386780,148.361511C304.393707,148.700577 304.640442,151.867615 304.733307,154.296478C304.831177,156.856461 303.028534,158.176468 299.833893,158.310654C292.171722,158.632492 285.605377,155.890823 280.036774,151.329987C271.435791,144.285553 263.376495,136.575256 255.167953,129.059433C253.104446,127.170059 251.347046,124.946365 249.079102,122.472916C245.661148,126.708992 242.811401,131.005432 239.206635,134.529617C233.772980,139.841812 227.959442,144.801559 221.990997,149.510071C220.031174,151.056183 217.116318,151.894928 214.584793,152.025955C213.046188,152.105591 210.949432,150.515778 209.996735,149.082245C209.496017,148.328781 210.511337,145.855362 211.536392,144.917343C217.648224,139.324249 224.302017,134.287140 230.104141,128.403015C234.947525,123.491188 236.532562,116.812767 238.584473,110.190674C242.017456,99.111420 242.375580,88.023384 242.405624,76.713661C242.409653,75.199791 243.968079,73.690048 244.806686,72.178391C246.377792,73.176773 248.893051,73.854996 249.358704,75.228241C251.525970,81.619347 253.126190,88.202744 255.074081,95.240479C255.897034,94.625717 257.117218,93.945953 258.042572,92.982918C262.078461,88.782654 265.969360,84.441826 270.049988,80.286659C271.123657,79.193352 272.688019,78.581940 274.582581,77.849480C275.138123,77.949722 275.531342,77.972542 275.531342,77.972542C275.531342,77.972542 275.925232,77.970688 275.925232,77.970688M276.359253,77.896240C275.925232,77.970688 275.531342,77.972542 275.531342,77.972542C275.531342,77.972542 275.138123,77.949722 274.940430,77.929001C273.974457,76.968391 273.391968,75.703682 272.408020,75.140938C265.628387,71.263657 258.740356,67.576508 251.939941,63.734882C249.003250,62.075909 247.445786,62.827332 245.542908,65.673981C241.968048,71.021820 238.075729,76.260841 233.641113,80.900604C229.463257,85.271713 224.653580,84.116501 221.029648,77.826736C222.926697,76.253510 225.259094,74.671997 227.163528,72.681107C237.431335,61.947235 241.725037,48.612595 242.877060,34.226768C243.457687,26.976028 242.777344,19.629107 242.794891,12.325984C242.801437,9.603484 243.171692,6.881859 243.377197,4.145151C249.086014,3.506760 251.351456,6.922136 251.846741,10.714934C253.025238,19.739073 253.447235,28.862963 254.130508,37.949886C254.248123,39.513985 254.147171,41.094517 254.147171,44.376549C257.297729,41.941776 259.557068,40.653877 261.215149,38.821804C265.006287,34.632839 268.484711,30.162024 272.126434,25.836243C274.610016,22.886148 276.256805,23.241991 277.666138,26.703861C279.793884,31.930418 279.751404,35.974094 274.372650,39.769184C268.731903,43.749126 263.998322,49.014854 258.668640,53.901691C264.239410,58.045879 269.556091,61.899227 274.744019,65.918716C276.433289,67.227509 277.906403,68.871689 279.269318,70.533920C282.397400,74.349022 281.752045,76.125496 276.359253,77.896240M195.563354,99.718048C198.156631,98.853249 200.514801,98.394722 202.523193,97.296524C206.663544,95.032578 209.790741,96.694496 212.857895,99.324593C215.767685,101.819733 215.711884,104.825752 214.199158,107.923401C210.939957,114.597282 208.452988,121.921005 203.933334,127.616547C200.584412,131.836731 194.828537,135.567139 189.601471,136.513123C183.230530,137.666122 181.368423,140.981583 180.161606,146.064011C179.974762,146.850845 179.905609,147.665619 179.774963,148.513458C174.580582,150.103806 172.298294,146.782028 171.313721,143.024796C168.874985,133.718399 166.815094,124.300529 164.976364,114.854759C164.178818,110.757637 164.299911,106.481697 164.075089,103.297287C175.236343,102.054420 185.203110,100.944565 195.563354,99.718048M185.935272,111.223038C184.634674,111.473061 183.331284,111.709534 182.033951,111.975494C176.778763,113.052856 175.783768,114.719101 177.056305,120.510239C178.059280,125.074631 181.020950,125.714745 184.971390,124.382523C186.692291,123.802177 188.673111,123.715668 190.169800,122.803917C193.495651,120.777893 196.765747,118.571770 199.678864,116.007690C200.622360,115.177238 201.054962,112.650650 200.478424,111.552284C199.993271,110.628029 197.699158,110.300995 196.216141,110.325813C193.079269,110.378273 189.949112,110.833298 185.935272,111.223038M50.620033,116.454559C46.037457,125.344086 38.313210,128.097305 29.422928,128.787994C28.775970,128.838257 27.865591,128.959366 27.496689,128.607834C21.983593,123.354401 22.297928,129.244644 21.302382,131.959900C20.518545,134.097733 20.336212,136.456116 19.585909,140.229156C17.320553,138.002441 15.037203,136.797836 14.493990,135.051849C11.442805,125.244728 8.741890,115.325089 6.160323,105.381828C5.942334,104.542213 7.281170,102.540901 8.235305,102.269485C20.219151,98.860580 32.191692,95.220352 44.892258,95.954170C52.338150,96.384377 54.424824,98.742477 53.323608,106.013634C52.805897,109.432014 51.660046,112.755257 50.620033,116.454559M18.713034,110.638458C18.713034,114.396599 18.713034,118.154739 18.713034,123.023514C27.346418,118.513435 35.952442,116.287743 40.345959,108.254135C40.027267,107.465446 39.708572,106.676758 39.389881,105.888062C32.695980,107.276413 26.002079,108.664757 18.713034,110.638458M227.982117,50.792030C225.521866,50.221809 223.258377,49.356781 221.176453,49.676025C201.453964,52.700275 181.778748,56.034161 162.050613,59.019211C156.979797,59.786476 153.153107,55.667885 153.313461,50.326614C159.059265,49.590698 164.906128,49.201950 170.596832,48.045002C187.222153,44.664989 203.785324,40.979382 220.372467,37.411678C229.030594,35.549412 237.846161,43.236515 236.995026,52.099464C236.882172,53.274548 235.701050,54.750118 234.617249,55.292709C233.844208,55.679718 232.224030,54.986721 231.308472,54.324280C230.123322,53.466736 229.263168,52.159996 227.982117,50.792030M175.822540,85.963318C180.805038,83.688553 185.414688,81.531097 190.024323,79.373642C189.911148,78.844788 189.797958,78.315926 189.684784,77.787064C187.077454,78.072632 184.476059,78.467361 181.860931,78.609184C179.772095,78.722466 177.375732,79.135216 175.646255,78.307213C173.732941,77.391190 172.423187,75.214455 170.850586,73.586769C172.449310,72.318634 173.861237,70.542084 175.680328,69.873741C182.225647,67.468956 188.796722,64.863998 195.592911,63.542328C198.398499,62.996712 202.291656,64.905907 204.717468,66.888649C205.903534,67.858109 204.470795,71.628334 204.928909,73.994286C205.494690,76.916473 206.794159,79.696609 207.776611,82.538124C208.350815,82.742455 208.925018,82.946777 209.499222,83.151100C206.865555,85.141602 204.481979,88.261116 201.551208,88.910278C192.857803,90.835869 183.960800,91.886482 175.105377,92.967857C174.221283,93.075821 172.049698,90.711746 172.257370,90.092278C172.767853,88.569473 174.317795,87.395126 175.822540,85.963318M22.207577,92.565475C20.002302,91.857140 17.918093,91.447426 16.468700,90.261719C15.226767,89.245743 14.219729,87.378807 14.100227,85.812569C14.047202,85.117599 16.339443,83.886841 17.733927,83.498909C24.427284,81.636848 31.165695,79.931335 37.911373,78.264389C43.890316,76.786919 48.211182,78.167763 51.054993,82.459518C42.685993,89.000420 33.072765,91.943115 22.207577,92.565475M46.189465,70.269852C39.734306,71.894646 33.698044,73.872345 27.514122,74.606796C24.579021,74.955399 21.193466,73.275192 18.328129,71.869606C16.171768,70.811821 17.242552,66.948677 19.963634,66.310829C28.005600,64.425705 36.085419,62.683514 44.194965,61.115810C46.849895,60.602577 49.993355,59.983471 50.938305,63.976780C51.818974,67.698448 49.171349,68.897377 46.189465,70.269852M397.515900,93.445137C395.001953,90.781845 390.867859,89.382782 392.092346,85.025124C392.488647,83.614738 394.130676,81.694595 395.399048,81.531334C402.581238,80.606850 416.459991,95.404785 415.613739,102.783440C415.581848,103.061623 415.273956,103.308151 414.924713,103.817154C408.001526,102.578354 403.012695,97.922356 397.515900,93.445137M92.276703,24.618475C95.221291,27.806120 98.520531,30.394093 100.399178,33.772114C101.734726,36.173569 101.510925,39.677448 101.201012,42.606556C101.115005,43.419392 98.234406,44.434799 96.642990,44.422806C95.495995,44.414162 93.983612,43.087185 93.288094,41.948738C90.817993,37.905594 88.730896,33.629608 86.293228,29.565060C84.858620,27.172995 81.094353,25.145407 84.255135,22.046528C87.605652,18.761642 89.751938,22.420229 92.276703,24.618475M232.145248,101.929512C232.531250,105.456612 232.854263,108.561584 233.320480,113.043068C231.115250,111.598122 229.498566,111.066681 228.741440,109.951607C225.411575,105.047485 222.118332,100.089073 219.307007,94.882935C218.604065,93.581177 219.202026,90.155205 220.155029,89.699814C221.757263,88.934212 225.197495,88.994171 225.969818,90.068680C228.470917,93.548340 230.110703,97.647102 232.145248,101.929512M43.666512,33.074127C42.387272,33.626274 40.939075,34.463089 40.321434,34.052010C33.743008,29.673649 28.240599,24.218994 23.874193,17.728352C24.105967,17.272997 24.337738,16.817640 24.569511,16.362286C26.205362,16.583647 28.247936,16.258890 29.406204,17.121511C34.254799,20.732512 38.933746,24.593445 43.427006,28.638138C44.197414,29.331638 43.761715,31.365004 43.666512,33.074127M182.670013,23.758390C183.783936,22.990351 185.380341,21.898706 186.072327,22.314013C189.964996,24.650290 193.880402,27.081060 197.239258,30.091825C198.215927,30.967262 197.389313,33.854465 197.389313,35.765602C188.856461,36.097492 183.959961,31.956964 182.670013,23.758390z"/>
</svg>