<svg xmlns="http://www.w3.org/2000/svg" viewBox="0 0 368.25 86.43">
    <!-- 一 --><path d="M0,38a17.81,17.81,0,0,0,3.68.43H15.93a9.42,9.42,0,0,0,.85-1.48,6.13,6.13,0,0,1,1.07-1.67q.48,0,1.46,1.61a6.31,6.31,0,0,1,1,1.94q0,.49-.46.49H3.35a12.77,12.77,0,0,0-3,.3Z"/>
    <!-- 個 --><path d="M30.14,24.72c.76.33,1.5.66,2.21,1a4.54,4.54,0,0,1,.74.43q0-.43-.07-.89a16.32,16.32,0,0,1,2.84,1.61h7.48c.26-.37.49-.71.68-1,.34-.48.57-.72.7-.72s.74.35,1.4,1.05q1.16,1.38,1.16,1.84a1.44,1.44,0,0,1-.55,1A1.7,1.7,0,0,0,46.33,30V48l.18,6.43c0,.44-.4.76-1.18,1a4.28,4.28,0,0,1-.74.1c-.42,0-.63-.35-.63-1.05V53.08h-8.4v1.35c0,.44-.35.76-1,1a3.59,3.59,0,0,1-.68.1c-.47,0-.7-.35-.7-1.05q.09-1.71.09-3.41V30q0-1.41-.07-2.79a.61.61,0,0,1-.35.16c-.38.11-.59.23-.63.36a55.55,55.55,0,0,1-1.34,5.51,3.38,3.38,0,0,1,.53.23c.48.24.72.44.72.59a1.13,1.13,0,0,1-.42.89,1,1,0,0,0-.28.82V54.52c0,.46-.35.79-1.05,1a4.31,4.31,0,0,1-.7.1c-.54,0-.81-.36-.81-1.08q.17-3.58.17-7.19V38.24a41.67,41.67,0,0,1-2,3.94l-.33-.49a72.26,72.26,0,0,0,2.19-7.81,91.24,91.24,0,0,0,1.31-9.15m5.4,27.47h8.4V27.74h-8.4Zm.2-18.25a13.55,13.55,0,0,0,3.06.26V31.32q0-1.21-.09-2.49a20.84,20.84,0,0,1,2.41.46q.74.06.74.59c0,.13-.15.3-.46.49a1,1,0,0,0-.5.82v3h.24a4.87,4.87,0,0,0,.5-.82,3.45,3.45,0,0,1,.66-.89q.28,0,.87.92a3.77,3.77,0,0,1,.59,1.18q0,.49-.24.49H40.91v4.4a3,3,0,0,1,.19-.36c.19-.3.36-.46.5-.46s.5.24,1.05.72q1,1,1,1.34a1.35,1.35,0,0,1-.35.85,1.48,1.48,0,0,0-.28.89v2.89q0,1.35.09,3.64c0,.39-.33.68-1,.85a3.33,3.33,0,0,1-.65.1c-.35,0-.52-.32-.52-1v-.89h-2.1v1q0,.59-1,.85a3.38,3.38,0,0,1-.64.1c-.39,0-.59-.32-.59-1q.09-1.51.09-3v-3q0-2.13-.09-4.2A12.87,12.87,0,0,1,38.81,40v-5a15.42,15.42,0,0,0-2.71.16ZM38.81,47.2h2.1V41.29h-2.1Z"/>
    <!-- 人 --><path d="M62.17,25.81a18.51,18.51,0,0,1,2.38.62c1.09.31,1.64.62,1.64,1a1,1,0,0,1-.5.79,4.09,4.09,0,0,0-.46.36,44.19,44.19,0,0,0,.79,8.4,29.19,29.19,0,0,0,1.86,5.68A21.07,21.07,0,0,0,70.35,47a22.62,22.62,0,0,0,3.92,3.71l-.18.89a2.69,2.69,0,0,0-1.77,1.81c-.31.81-.54,1.22-.7,1.22q-.48,0-2-2.4a24.35,24.35,0,0,1-2.93-6.46,47.35,47.35,0,0,1-1.51-7.19q-.24-2.66-.37-5.61a49.49,49.49,0,0,1-1.55,10.3,21.66,21.66,0,0,1-3.48,7.06,20.75,20.75,0,0,1-5.21,4.85l-.17-.69a25.85,25.85,0,0,0,4.31-6,27.38,27.38,0,0,0,2.69-7.81,61.89,61.89,0,0,0,.85-10.24q0-2.82-.09-4.69"/>
    <!-- 的 --><path d="M85,25a7.7,7.7,0,0,1,2,.62c.73.22,1.1.45,1.1.69a.81.81,0,0,1-.44.72c-.29.15-.44.32-.44.49a17.57,17.57,0,0,1-2.45,4.2h1.4q.5-.88.92-1.54c.21-.39.4-.59.59-.59s.58.31,1.22.92q1.12,1.15,1.12,1.58a1.46,1.46,0,0,1-.37.92,1.53,1.53,0,0,0-.33,1V48.51q0,1.54.11,4.2c0,.42-.38.74-1.14,1a4,4,0,0,1-.7.1q-.61,0-.61-1.05V51.14h-2.8v2.2c0,.46-.36.79-1.07,1a4.11,4.11,0,0,1-.7.1q-.7,0-.7-1.08.09-1.7.09-3.38V34.7q0-2.43-.18-4.69a13.3,13.3,0,0,1,2.52,1.34A32.23,32.23,0,0,0,85,25m-.79,15.49h2.8V32.63h-2.8Zm0,9.72h2.8V41.43h-2.8Zm7.85-25.47c.8.33,1.57.66,2.3,1s1,.63,1,1a.66.66,0,0,1-.59.69c-.38.11-.59.23-.63.36q-.37,1.94-.79,3.58h3.5c.44-.63.74-1,.92-1.25.32-.42.53-.62.63-.62s.69.35,1.33,1Q101,31.78,101,32.34a1.33,1.33,0,0,1-.57.92.92.92,0,0,0-.39.69q0,8.43-.5,13.52-.5,4.63-1.2,5.84A3.79,3.79,0,0,1,97,54.85a2.77,2.77,0,0,1-1.36.49c-.22,0-.42-.44-.59-1.31q-.35-1.67-2.84-2.89l.11-.56a30,30,0,0,0,3.15.29q.72,0,1.07-1.9.28-1.67.52-6.14.33-5.94.33-10.63h-4.2q-.35,1.18-.72,2.2a34.55,34.55,0,0,1-2.52,5.45l-.35-.56a60.32,60.32,0,0,0,1.58-6.69q.57-3.31.94-7.88m-.33,12.5A12.43,12.43,0,0,1,94.65,40a4,4,0,0,1,.81,2.13,5,5,0,0,1-.57,2.53c-.33.7-.73,1.05-1.18,1.05a.6.6,0,0,1-.48-.33,9.16,9.16,0,0,1-.42-2.33,23.16,23.16,0,0,0-1.46-5.38Z"/>
    <!-- 價 --><path d="M113.06,5.43q1.8.86,3.48,1.78T118.15,9a1.48,1.48,0,0,1-.16.75,23.67,23.67,0,0,0,3.61.23H133q.1-.12,1-2.18,1.08-2.41,1.31-2.41.59,0,1.87,2.35a11.49,11.49,0,0,1,1.28,2.87q0,.92-.56.92h-6.4v5.34h1.18q.56-1.32,1-2.12t.85-.92q.52,0,1.94,1.78,1.61,1.84,1.61,2.58a2,2,0,0,1-.59,1.26,2.1,2.1,0,0,0-.59,1v7.18q0,.92-1.58,1.44a5.19,5.19,0,0,1-1,.17q-.85,0-.92-1.21h-12.6a2.88,2.88,0,0,1-1.28.8,4.26,4.26,0,0,1-1,.17q-1.05,0-1.05-1.61t.13-3.45V18.92q0-1.9-.13-4.54a18.5,18.5,0,0,1,3.91,2.53H123V11.57H121.6a20,20,0,0,0-4.07.29l-.36-1.55c-.57.15-.88.34-1,.57q-1,5.28-2.13,9.48c.24.11.46.23.66.34q1.08.57,1.08,1a2,2,0,0,1-.62,1.55,1.82,1.82,0,0,0-.43,1.44V57.34q0,1.15-1.58,1.67a5.6,5.6,0,0,1-1,.17q-1.21,0-1.21-1.84.26-6.32.26-12.64V28.63q-1.31,3.22-3,6.43l-.49-.92A124.73,124.73,0,0,0,111,20.88q1.22-6.49,2-15.45M125.37,56a27.42,27.42,0,0,1-9.68,3.22L115.4,58a15.66,15.66,0,0,0,4.86-3.39A19.43,19.43,0,0,0,123.67,50q1.48,2,2.36,3a5.33,5.33,0,0,1,1.35,2.41c0,.5-.18.75-.52.75Zm-6.53-26.42a18.45,18.45,0,0,1,4,2.53H131q.56-.92,1-1.61.72-1.15,1-1.15.53,0,1.9,1.61,1.61,2.18,1.61,3a2.74,2.74,0,0,1-.62,1.55,4.25,4.25,0,0,0-.52,1.89v.23l.26,11.26q0,1.09-1.77,1.61a5.56,5.56,0,0,1-1.12.17c-.5,0-.8-.36-.88-1.09h-9.22v.23q0,1.09-1.71,1.67a4.85,4.85,0,0,1-1,.17q-1.05,0-1-1.84c.09-1.11.13-2.33.13-3.68V34.6q0-2.13-.13-5.06M123,18.46h-2v8.1h2Zm-.39,18.44h9.19V33.63h-9.19Zm0,5.28h9.19V38.45h-9.19Zm0,5.69h9.19V43.79h-9.19Zm3.64-31h2V11.57h-2Zm0,9.65h2v-8.1h-2Zm2.4,24.29a21.11,21.11,0,0,1,5.71.92,6,6,0,0,1,2.92,1.9,4.3,4.3,0,0,1,.82,2.76,4.9,4.9,0,0,1-.46,2.3,1.51,1.51,0,0,1-1.28.69q-.69,0-2.49-2.58a19.42,19.42,0,0,0-5.48-4.77Zm4.69-32.39h-1.81v8.1h1.81Z"/>
    <!-- 值 --><path d="M153.88,5.17q1.67.75,3.22,1.49t1.51,1.67a1.1,1.1,0,0,1-.82,1.21q-.89.29-1,.69-1,5.17-2.13,9.36l.82.46q1.08.52,1.08.92a2,2,0,0,1-.66,1.61,1.82,1.82,0,0,0-.43,1.44V57.54q0,1.15-1.57,1.66a4.63,4.63,0,0,1-1.05.17c-.79,0-1.18-.61-1.18-1.84q.3-6.32.3-12.63V27.28a77.76,77.76,0,0,1-3.58,7.29l-.36-.69a111.87,111.87,0,0,0,3.67-13.27q1.31-6.55,2.2-15.45m2.26,50.25a19.2,19.2,0,0,0,3.64.52V32q0-7.29-.36-11.08a21.15,21.15,0,0,1,4.23,2.53h1.64V16.14h-3.94a25,25,0,0,0-4.07.23l-.53-2.3a15.8,15.8,0,0,0,4.59.52h3.94v-3.5a46.2,46.2,0,0,0-.36-5.69,31.08,31.08,0,0,1,4.73,1.15q1.41.11,1.41,1.38,0,.4-.79,1a2.16,2.16,0,0,0-.89,1.67v4h4.07q.1-.12,1-2.18A8.66,8.66,0,0,1,175.83,10q.59,0,1.87,2.36A10.86,10.86,0,0,1,179,15.28q0,.86-.53.86H169.4v7.35h2a15.48,15.48,0,0,0,1-1.84q.75-1.32,1.08-1.32.52,0,1.87,1.84a7.24,7.24,0,0,1,1.51,2.53,2.39,2.39,0,0,1-.66,1.61,2.49,2.49,0,0,0-.79,1.55V55.94h.3q.26-1.26.65-2.64.49-1.72.92-1.72t1,1.55a10.33,10.33,0,0,1,1,3.5c0,.61-.18.92-.52.92H159.79a29.94,29.94,0,0,0-3.12.17Zm7.22-23.6h8.53V25.15h-8.53Zm0,8h8.53V33.37h-8.53Zm0,8h8.53V41.46h-8.53Zm8.53,1.66h-8.53v6.43h8.53Z"/>
    <!-- 高 --><path d="M196.75,24.72q1.45.23,2.76.56c.55,0,.83.26.83.66,0,.13-.16.32-.48.56a1,1,0,0,0-.55.89v1.81H204a10,10,0,0,0,.88-1.51q1-1.74,1.14-1.74.48,0,1.51,1.64a6.75,6.75,0,0,1,1,2c0,.37-.15.56-.46.56H191.53a16.42,16.42,0,0,0-3,.23l-.35-1.54a21,21,0,0,0,3.67.36h5.08V27.51a23.1,23.1,0,0,0-.18-2.79m-7.7,13.95a15.3,15.3,0,0,1,3.32,1.81H204l.5-.75c.42-.61.72-.92.9-.92s.69.38,1.42,1.15,1,1.32,1,1.61a1.71,1.71,0,0,1-.5.92,1.74,1.74,0,0,0-.63,1.18v8.4a3,3,0,0,1-1.16,2.56,2.75,2.75,0,0,1-1.55.72c-.16,0-.31-.4-.44-1.22a3.77,3.77,0,0,0-2.12-2.49l.09-.62a15.18,15.18,0,0,0,2.47.26q.33,0,.33-1.08V41.43H191.79V54.52c0,.46-.39.79-1.16,1a4.66,4.66,0,0,1-.77.1q-.72,0-.72-1.08c.06-1.2.09-2.42.09-3.64V43.66q0-2.59-.17-5m3.15-7.61a13,13,0,0,1,2.49,1.28h6.45c.25-.5.47-.93.66-1.28s.37-.56.55-.56.73.36,1.36,1.08,1.12,1.25,1.12,1.57a1.23,1.23,0,0,1-.37.76,1.12,1.12,0,0,0-.42.69v3.67q0,.56-1.11.82a6.46,6.46,0,0,1-.72.06q-.64,0-.64-.89V38h-6.82v.29c0,.42-.37.72-1.12.92a4,4,0,0,1-.72.1q-.7,0-.7-1a18.55,18.55,0,0,0,.11-2.13v-2.2q0-1.21-.11-2.89m1.34,11.81a13.76,13.76,0,0,1,2.56,1.31h3.63l.64-1.15q.24-.43.53-.43c.23,0,.63.31,1.2.92s1,1.13,1,1.41a.89.89,0,0,1-.28.62,1.07,1.07,0,0,0-.35.56v4q0,.55-1,.82a3.51,3.51,0,0,1-.68.1c-.41,0-.61-.28-.61-.82V49.7h-4v1.18q0,.62-1.09.92a3.25,3.25,0,0,1-.66.1q-.7,0-.7-.89t.09-2.13V45.63a25.46,25.46,0,0,0-.17-2.76m1.2-5.77h6.82V33.26h-6.82Zm1.33,11.65h4V45.1h-4Z"/>
    <!-- 於 --><path d="M218.67,24.86a19.74,19.74,0,0,1,2.76.59q.83,0,.83.62c0,.13-.17.32-.53.56a1.05,1.05,0,0,0-.52.89v3.81h.68a6.43,6.43,0,0,0,.7-1.18,5.38,5.38,0,0,1,.88-1.31q.41,0,1.2,1.28a5.38,5.38,0,0,1,.81,1.61c0,.33-.11.49-.33.49h-5.27q-.07,3.31-.18,5.78h1.68l.85-1.12q.48-.59.61-.59.35,0,1.29,1,1.09,1.22,1.09,1.74a1.44,1.44,0,0,1-.52.89.71.71,0,0,0-.35.56,90.82,90.82,0,0,1-.44,9.16,11,11,0,0,1-1.14,4,2.65,2.65,0,0,1-1.23,1,3,3,0,0,1-1.22.36c-.15,0-.28-.4-.42-1.18a3.82,3.82,0,0,0-1.79-2.62l.09-.56a11.48,11.48,0,0,0,1.95.29q.61,0,.94-1.21a31,31,0,0,0,.44-3.94q.26-3.84.26-6.83h-2.15q-.09,1.74-.22,3-.3,3-.74,5.28a19.59,19.59,0,0,1-1.18,4,16.16,16.16,0,0,1-2.1,3.84l-.26-.66a23.23,23.23,0,0,0,.92-3.48,45.27,45.27,0,0,0,.74-5q.31-2.66.42-5.48.2-3.45.22-8.27a20,20,0,0,0-2.12.13L215,31.06a13.56,13.56,0,0,0,3.06.26h.79V27.61a26.39,26.39,0,0,0-.15-2.76m9.45-.13,2.32,1q1.27.49,1.27,1t-.72.72a1.34,1.34,0,0,0-.55.26,27.36,27.36,0,0,0,2.3,5.81,10.22,10.22,0,0,0,2.82,3.21l-.09.76a3.06,3.06,0,0,0-1.49,2.2c-.17.83-.38,1.25-.61,1.25s-.49-.67-1-2a32.93,32.93,0,0,1-1.57-5.12q-.5-2-.85-4.23a40.29,40.29,0,0,1-1.6,5.28,34.7,34.7,0,0,1-3.11,6.46l-.26-.56a63.78,63.78,0,0,0,1.77-7q.74-3.61,1.38-9.06m-2.36,21a22.67,22.67,0,0,1,4.86,1.87A7.67,7.67,0,0,1,233.2,50a3.64,3.64,0,0,1,.68,2.1,3.15,3.15,0,0,1-.44,1.67q-.44.79-1,.79t-2.34-3a18.81,18.81,0,0,0-4.59-5Zm2.19-8a9.76,9.76,0,0,1,2.52,1.38,4.65,4.65,0,0,1,1.31,1.74,3.29,3.29,0,0,1,.35,1.51,3.44,3.44,0,0,1-.53,1.9c-.33.66-.74,1-1.2,1q-.24,0-.92-2.49a16.25,16.25,0,0,0-1.79-4.07Z"/>
    <!-- 全 --><path d="M267.94,19.26a46.51,46.51,0,0,1-11,9.5,54.13,54.13,0,0,1-13.29,5.51l-.59-.84a44.78,44.78,0,0,0,11.42-7.14,33.37,33.37,0,0,0,8.47-9.6q-7,0-8.86.2l-.74-2a20.29,20.29,0,0,0,4.53.44h4.48q.94-1.18,1.33-1.77Q264.84,12,265.53,12q1,0,3.44,2.12,2.46,1.92,2.46,2.61t-1.62,1.38a.14.14,0,0,1-.1.05,36.78,36.78,0,0,0,8.17,5.76,49.71,49.71,0,0,0,11.67,3.89l-.2,1.13A4.73,4.73,0,0,0,286.3,32q-.54,1.67-1.28,1.67-1.08,0-5-2.46a37.92,37.92,0,0,1-7.78-6.45,46.47,46.47,0,0,1-4.28-5.46M253.32,31.07a44.29,44.29,0,0,0,6.84.4h10.29a12.87,12.87,0,0,0,1.48-1.72q1.58-2,1.87-2,.79,0,2.56,1.92t1.77,2.41c0,.53-.28.79-.84.79h-8.66v8.66h4.13a12.57,12.57,0,0,0,1.77-2.12Q276.41,37,276.75,37q1,0,3.15,2.31t2.17,2.76c0,.56-.33.84-1,.84H268.63V54h9.5A14.8,14.8,0,0,0,280,51.75q2.07-2.51,2.41-2.51,1,0,3.25,2.41t2.21,2.86c0,.56-.31.84-.94.84H251.35q-4.33,0-6.15.19l-.74-2a45.06,45.06,0,0,0,6.89.4h11.57v-11h-5.66q-4.28,0-6.1.2l-.84-2a46,46,0,0,0,6.94.39h5.66V32.89h-2.76q-4.28,0-6.1.2Z"/>
    <!-- 世 --><path d="M297.08,28a19.81,19.81,0,0,0,4.56,1V24.22q0-10-.36-17.55a21.16,21.16,0,0,1,4.17,1.56,2.22,2.22,0,0,1,1.71,2.11,3,3,0,0,1-1,2.39,3.23,3.23,0,0,0-.69,2.39V29H310V19.91q0-9.47-.36-16.54a25.23,25.23,0,0,1,3.91,1.38,2,2,0,0,1,1.61,1.93,3,3,0,0,1-1,2.39,3.46,3.46,0,0,0-.62,2.39V29H318V19.91q0-9.93-.26-17.28a20.22,20.22,0,0,1,4.07,1.56,2.22,2.22,0,0,1,1.71,2.11,2.64,2.64,0,0,1-1.08,2.21,2.7,2.7,0,0,0-.79,2.2V29H322a29.81,29.81,0,0,0,1.12-3.77q1.15-4.32,1.38-4.32.62,0,2,4.13a24.06,24.06,0,0,1,1.41,5.15c0,1-.23,1.47-.69,1.47H321.6V44.44q0,8.55.16,17A2.71,2.71,0,0,1,320,64a4,4,0,0,1-1.15.28q-1.15,0-1.15-2.85,0-1.74.06-3.31h-4.13V61.8A2.71,2.71,0,0,1,312,64.38a3.36,3.36,0,0,1-1,.28q-1.18,0-1.18-2.85.23-8.91.23-16.17v-14h-4.56V65.85q0,5.88,0,11.76H321s.36-1.07,1-3.22q1.35-4.5,1.74-4.5t2.36,5a15.69,15.69,0,0,1,1.15,3.86q0,1.38-.62,1.38H305.55q0,1.74.07,3.4a2.77,2.77,0,0,1-1.84,2.66,4.73,4.73,0,0,1-1.18.27q-1.18,0-1.18-2.94.23-9.65.23-17.64V31.67a11.19,11.19,0,0,0-4.07.64Zm16.54,27.56h4.2q.13-5.88.13-11.12V31.67h-4.33Z"/>
    <!-- 界 --><path d="M341.08,1a20.09,20.09,0,0,1,4.3,4h15q.66-1.56,1.15-2.94Q362.25,0,362.61,0q.59,0,2.1,2.94,1.84,3.77,1.84,5.14a6.8,6.8,0,0,1-.89,2.94,8.55,8.55,0,0,0-.69,3.31v2.48l.26,19.85a3.13,3.13,0,0,1-1.94,3,4.31,4.31,0,0,1-1.21.28q-1,0-1-2.94h-3.61a32.6,32.6,0,0,0,4.89,8.64,19.23,19.23,0,0,0,5.94,4.69l-.13,2.11q-1.64,1.56-2.33,6.61-.39,3.77-1,3.77t-2.33-3.77a47.26,47.26,0,0,1-2.26-5.24c0,.06,0,.09-.07.09a3.64,3.64,0,0,0-.72,2.57V79.67c0,.49,0,1.5.13,3a3.08,3.08,0,0,1-1.84,2.94,3.44,3.44,0,0,1-1.18.37q-1.18,0-1.18-2.3.13-2.57.13-4V56.14a85,85,0,0,0-.39-8.73,30.36,30.36,0,0,1,3.54,1.38A120.44,120.44,0,0,1,356,37h-3.87a81.09,81.09,0,0,1-3.9,11l.88.55q2.33,1.29,2.33,2.48a4,4,0,0,1-.75,2.3,3.31,3.31,0,0,0-.82,2.11q-.53,11.58-1.77,16.17a27.26,27.26,0,0,1-3.48,8.09,21.53,21.53,0,0,1-5.15,5.51l-.26-1.84a23.66,23.66,0,0,0,3.71-6.16,41.13,41.13,0,0,0,2.3-8.18,88.23,88.23,0,0,0,.72-9.56q0-3.95,0-7.26a28,28,0,0,1-2.4,3.31,23.11,23.11,0,0,1-5.48,5l-.26-1.75a43.14,43.14,0,0,0,5.48-9.09A74.05,74.05,0,0,0,347.38,37H345v.83a2.71,2.71,0,0,1-1.67,2.57,3.47,3.47,0,0,1-1.08.27q-1.15,0-1.15-2.85.26-10.66.26-18.75V18q0-7-.26-17M345,19.85h6.2V7.72H345Zm0,14.7h6.2V22.42H345Zm10.14-14.7H361V7.72h-5.91Zm0,14.7H361V22.42h-5.91Z"/>
    <!-- O --><path d="M7.38,67.15a3.66,3.66,0,0,1,1.87.48A3.27,3.27,0,0,1,10.53,69,4.45,4.45,0,0,1,11,71.07a6.34,6.34,0,0,1-.83,3.06,6.15,6.15,0,0,1-2,2.29,4.82,4.82,0,0,1-2.66.77,3.65,3.65,0,0,1-2.72-1.05,3.76,3.76,0,0,1-1-2.77,6.59,6.59,0,0,1,.83-3.17,6,6,0,0,1,2-2.29,5.11,5.11,0,0,1,2.79-.76m-.6.59A3,3,0,0,0,5,68.3a4,4,0,0,0-1.31,1.76,7,7,0,0,0-.51,2.77A4.32,4.32,0,0,0,4,75.62a2.46,2.46,0,0,0,2,1A2.78,2.78,0,0,0,7.67,76,4.16,4.16,0,0,0,9,74.18a7.54,7.54,0,0,0,.51-2.88,4,4,0,0,0-.78-2.62,2.41,2.41,0,0,0-1.92-.94"/>
    <!-- n --><path d="M11.89,72l-.28-.29a8.5,8.5,0,0,1,1.67-1.34A2.37,2.37,0,0,1,14.35,70a.44.44,0,0,1,.27.07.21.21,0,0,1,.1.17,1.56,1.56,0,0,1,0,.26l-.37,1.65a10.05,10.05,0,0,1,2.1-1.73,2.25,2.25,0,0,1,1.1-.42.63.63,0,0,1,.5.2.87.87,0,0,1,.18.59,2.61,2.61,0,0,1-.08.57q-.13.53-.69,2.32A9.62,9.62,0,0,0,16.91,76a.52.52,0,0,0,0,.25.16.16,0,0,0,.14.08q.24,0,.75-.46.36-.33.72-.61l.2.29a7.48,7.48,0,0,1-1.57,1.34,1.73,1.73,0,0,1-.85.33.58.58,0,0,1-.48-.23,1.23,1.23,0,0,1-.17-.74,17.85,17.85,0,0,1,.91-3.63,8.65,8.65,0,0,0,.28-1.21c0-.17-.1-.25-.3-.25a1.67,1.67,0,0,0-.84.35,5,5,0,0,0-1.29,1.2,3.89,3.89,0,0,0-.55,1.41L13.24,77H12q.35-1.23.6-2.36l.73-3.12a1.53,1.53,0,0,0,0-.27c0-.15-.06-.22-.16-.22a.78.78,0,0,0-.38.17,5.1,5.1,0,0,0-1,.83"/>
    <!-- e --><path d="M23.81,74.91l.27.36q-2,1.91-3.45,1.91a1.06,1.06,0,0,1-.89-.39,2.06,2.06,0,0,1-.31-1.26A6.63,6.63,0,0,1,20.5,72a3.41,3.41,0,0,1,2.86-2,1.25,1.25,0,0,1,.89.29,1.05,1.05,0,0,1,.31.8,1.8,1.8,0,0,1-.37,1.05,4.32,4.32,0,0,1-1.32,1.07q-.48.27-2,1a5.29,5.29,0,0,0-.07.84,1.34,1.34,0,0,0,.18.81.65.65,0,0,0,.54.23,1.73,1.73,0,0,0,.74-.19,10.45,10.45,0,0,0,1.58-1m-2.87-1.19a6.46,6.46,0,0,0,2-1.27,1.4,1.4,0,0,0,.45-.94.81.81,0,0,0-.18-.56.61.61,0,0,0-.48-.21.93.93,0,0,0-.59.23,2.25,2.25,0,0,0-.65.92,8.27,8.27,0,0,0-.53,1.84"/>
    <!-- p --><path d="M29.3,72.1,29,71.77a5.76,5.76,0,0,1,1.48-1.32A2.66,2.66,0,0,1,31.74,70a.48.48,0,0,1,.32.1.38.38,0,0,1,.12.3,2.28,2.28,0,0,1-.06.49q-.05.25-.33,1.19a13.81,13.81,0,0,1,1.72-1.55,2.64,2.64,0,0,1,1.41-.5.85.85,0,0,1,.71.4,2,2,0,0,1,.29,1.19,6.53,6.53,0,0,1-1.24,3.77,3.43,3.43,0,0,1-2.74,1.79,2.46,2.46,0,0,1-1.18-.32l-.7,2.71A1.6,1.6,0,0,0,30,80a.46.46,0,0,0,.23.43,4.48,4.48,0,0,0,1.48.34l-.11.41q-1.32-.11-2.08-.11c-.52,0-1.19,0-2,.11l.11-.41a1.48,1.48,0,0,0,.91-.35,2.08,2.08,0,0,0,.46-1l1.48-6.23q.42-1.74.42-1.94c0-.14-.07-.21-.21-.21s-.7.35-1.38,1.06M31,76a1.89,1.89,0,0,0,1.33.65c.65,0,1.23-.51,1.72-1.54a6.84,6.84,0,0,0,.74-3,1.05,1.05,0,0,0-.21-.71.7.7,0,0,0-.56-.24,1.5,1.5,0,0,0-.88.39,5.52,5.52,0,0,0-1.16,1.19,4.92,4.92,0,0,0-.54,1.48Z"/>
    <!-- e --><path d="M41,74.91l.27.36q-2,1.91-3.45,1.91a1.06,1.06,0,0,1-.89-.39,2.06,2.06,0,0,1-.31-1.26A6.63,6.63,0,0,1,37.69,72a3.41,3.41,0,0,1,2.86-2,1.25,1.25,0,0,1,.89.29,1.05,1.05,0,0,1,.31.8,1.8,1.8,0,0,1-.37,1.05,4.33,4.33,0,0,1-1.32,1.07q-.48.27-2,1a5.29,5.29,0,0,0-.07.84,1.34,1.34,0,0,0,.19.81.64.64,0,0,0,.54.23,1.74,1.74,0,0,0,.74-.19,10.46,10.46,0,0,0,1.58-1m-2.87-1.19a6.47,6.47,0,0,0,2-1.27,1.4,1.4,0,0,0,.45-.94.81.81,0,0,0-.19-.56.61.61,0,0,0-.48-.21.93.93,0,0,0-.59.23,2.28,2.28,0,0,0-.65.92,8.35,8.35,0,0,0-.53,1.84"/>
    <!-- r --><path d="M44.07,77H42.84l.58-2.21q.42-1.62.73-3.08a3.3,3.3,0,0,0,.07-.45c0-.13-.06-.2-.18-.2a.82.82,0,0,0-.38.17,7.67,7.67,0,0,0-.92.83l-.26-.29a6.21,6.21,0,0,1,1.57-1.27,2.85,2.85,0,0,1,1.2-.42.36.36,0,0,1,.23.07.22.22,0,0,1,.09.18,3.87,3.87,0,0,1-.11.57l-.36,1.47A10.51,10.51,0,0,1,47,70.1a1.42,1.42,0,0,1,.84-.44.56.56,0,0,1,.41.16.5.5,0,0,1,.16.37.51.51,0,0,1-.16.38,2.51,2.51,0,0,1-.8.37,3.46,3.46,0,0,0-1,.49,4.59,4.59,0,0,0-.84.88,4.67,4.67,0,0,0-.64,1,17.56,17.56,0,0,0-.55,2Z"/>
    <!-- s --><path d="M51.32,70.07a1.93,1.93,0,0,1,1.13.28.8.8,0,0,1,.4.65.52.52,0,0,1-.17.38.56.56,0,0,1-.41.16.51.51,0,0,1-.27-.07,1.46,1.46,0,0,1-.33-.35,1.08,1.08,0,0,0-.79-.53.82.82,0,0,0-.6.26.88.88,0,0,0-.26.64,1.41,1.41,0,0,0,.16.65,5.76,5.76,0,0,0,.83,1A2.77,2.77,0,0,1,51.93,75a2,2,0,0,1-.74,1.52,2.77,2.77,0,0,1-1.9.65,2.23,2.23,0,0,1-1.45-.4,1.23,1.23,0,0,1-.48-1,.67.67,0,0,1,.18-.48.59.59,0,0,1,.44-.19.56.56,0,0,1,.39.15.47.47,0,0,1,.16.36c0,.06,0,.13,0,.21s0,.13,0,.18a.57.57,0,0,0,.23.46.9.9,0,0,0,.6.19,1.87,1.87,0,0,0,.78-.15,1.22,1.22,0,0,0,.71-1.07,1.15,1.15,0,0,0-.17-.59,7.85,7.85,0,0,0-.79-1A2.8,2.8,0,0,1,49,72.08a1.86,1.86,0,0,1,.65-1.41,2.32,2.32,0,0,1,1.65-.6"/>
    <!-- o --><path d="M57.3,70.07a1.67,1.67,0,0,1,1.34.64,2.71,2.71,0,0,1,.53,1.78,4.81,4.81,0,0,1-1.28,3.27,3.64,3.64,0,0,1-2.71,1.45,1.84,1.84,0,0,1-1.41-.57,2.2,2.2,0,0,1-.54-1.57,5.58,5.58,0,0,1,1-3.18,3.64,3.64,0,0,1,3.08-1.81m-.7.61q-.7,0-1.35,1a5,5,0,0,0-.65,2.75,3.06,3.06,0,0,0,.4,1.68.91.91,0,0,0,.79.45A1.56,1.56,0,0,0,57,75.71,4.93,4.93,0,0,0,57.76,73a3.42,3.42,0,0,0-.33-1.75,1,1,0,0,0-.83-.53"/>
    <!-- n --><path d="M60.33,72,60,71.71a8.44,8.44,0,0,1,1.67-1.34A2.36,2.36,0,0,1,62.79,70a.44.44,0,0,1,.27.07.22.22,0,0,1,.1.17,1.55,1.55,0,0,1,0,.26l-.37,1.65a10.09,10.09,0,0,1,2.1-1.73,2.25,2.25,0,0,1,1.1-.42.63.63,0,0,1,.5.2.87.87,0,0,1,.18.59,2.61,2.61,0,0,1-.07.57q-.13.53-.69,2.32A9.65,9.65,0,0,0,65.35,76a.53.53,0,0,0,0,.25.15.15,0,0,0,.14.08q.24,0,.75-.46c.24-.22.48-.42.72-.61l.2.29a7.49,7.49,0,0,1-1.57,1.34,1.72,1.72,0,0,1-.85.33.57.57,0,0,1-.48-.23,1.22,1.22,0,0,1-.17-.74A17.84,17.84,0,0,1,65,72.6a8.7,8.7,0,0,0,.28-1.21c0-.17-.1-.25-.31-.25a1.66,1.66,0,0,0-.84.35,5,5,0,0,0-1.29,1.2,3.85,3.85,0,0,0-.55,1.41L61.67,77H60.45q.34-1.23.6-2.36l.73-3.12a1.45,1.45,0,0,0,0-.27c0-.15-.06-.22-.16-.22a.78.78,0,0,0-.38.17,5.07,5.07,0,0,0-1,.83"/>
    <!-- i --><path d="M72,72l-.36-.28a6.37,6.37,0,0,1,1.5-1.28A2.46,2.46,0,0,1,74.32,70a.6.6,0,0,1,.4.12.38.38,0,0,1,.14.31,15.39,15.39,0,0,1-.53,2A20.28,20.28,0,0,0,73.46,76a.32.32,0,0,0,.06.19.15.15,0,0,0,.12.08c.18,0,.62-.34,1.35-1l.32.31a10.77,10.77,0,0,1-1.64,1.35,1.85,1.85,0,0,1-.85.29.59.59,0,0,1-.46-.18.71.71,0,0,1-.17-.5,24.78,24.78,0,0,1,1.23-5,1.18,1.18,0,0,0,.06-.34c0-.11,0-.16-.15-.16a.72.72,0,0,0-.37.13A8.25,8.25,0,0,0,72,72m3.22-5.43a.56.56,0,0,1,.42.17.59.59,0,0,1,.16.43.92.92,0,0,1-.25.64A.75.75,0,0,1,75,68a.54.54,0,0,1-.41-.17.63.63,0,0,1-.16-.45.89.89,0,0,1,.24-.63.74.74,0,0,1,.56-.26"/>
    <!-- s --><path d="M79.53,70.07a1.93,1.93,0,0,1,1.13.28.8.8,0,0,1,.4.65.52.52,0,0,1-.17.38.56.56,0,0,1-.41.16.51.51,0,0,1-.27-.07,1.46,1.46,0,0,1-.33-.35,1.08,1.08,0,0,0-.79-.53.82.82,0,0,0-.6.26.88.88,0,0,0-.26.64,1.4,1.4,0,0,0,.16.65,5.72,5.72,0,0,0,.83,1A2.77,2.77,0,0,1,80.14,75a2,2,0,0,1-.74,1.52,2.77,2.77,0,0,1-1.9.65,2.23,2.23,0,0,1-1.45-.4,1.23,1.23,0,0,1-.48-1,.67.67,0,0,1,.18-.48.59.59,0,0,1,.44-.19.56.56,0,0,1,.39.15.47.47,0,0,1,.16.36c0,.06,0,.13,0,.21s0,.13,0,.18a.57.57,0,0,0,.23.46.9.9,0,0,0,.6.19,1.87,1.87,0,0,0,.78-.15,1.22,1.22,0,0,0,.71-1.07,1.15,1.15,0,0,0-.17-.59,7.85,7.85,0,0,0-.79-1,2.8,2.8,0,0,1-.85-1.83,1.86,1.86,0,0,1,.65-1.41,2.32,2.32,0,0,1,1.65-.6"/>
    <!-- o --><path d="M89.33,70.07a1.67,1.67,0,0,1,1.34.64,2.71,2.71,0,0,1,.53,1.78,4.81,4.81,0,0,1-1.28,3.27,3.64,3.64,0,0,1-2.71,1.45,1.85,1.85,0,0,1-1.42-.57,2.2,2.2,0,0,1-.54-1.57,5.58,5.58,0,0,1,1-3.18,3.64,3.64,0,0,1,3.08-1.81m-.7.61q-.7,0-1.35,1a5,5,0,0,0-.65,2.75,3.06,3.06,0,0,0,.4,1.68.91.91,0,0,0,.79.45,1.56,1.56,0,0,0,1.25-.85A4.93,4.93,0,0,0,89.8,73a3.42,3.42,0,0,0-.33-1.75,1,1,0,0,0-.83-.53"/>
    <!-- f --><path d="M92.4,70.6h2a10.62,10.62,0,0,1,1.11-3.05A4.61,4.61,0,0,1,97.09,66,3.79,3.79,0,0,1,99,65.39a1.22,1.22,0,0,1,.75.2.58.58,0,0,1,.25.47.55.55,0,0,1-.17.41.63.63,0,0,1-.45.16,6.33,6.33,0,0,1-1.08-.17,3.33,3.33,0,0,0-.62-.08,1.21,1.21,0,0,0-1,.67,5.66,5.66,0,0,0-.7,1.81l-.41,1.75h2.17l-.13.58h-2.2l-1.29,5.23A7.23,7.23,0,0,1,92.21,80a4.11,4.11,0,0,1-2.86,1.23,1.28,1.28,0,0,1-.78-.2.6.6,0,0,1-.27-.5.5.5,0,0,1,.18-.41A.81.81,0,0,1,89,80l.51,0a8.7,8.7,0,0,0,1.1.07,1.59,1.59,0,0,0,1.18-.38,4.7,4.7,0,0,0,.74-1.87l1.67-6.69h-2Z"/>
    <!-- m --><path d="M101.68,72l-.25-.33a6.58,6.58,0,0,1,1.54-1.2,2.71,2.71,0,0,1,1.15-.39.4.4,0,0,1,.26.07.26.26,0,0,1,.09.2,2.86,2.86,0,0,1-.13.63c-.13.46-.21.82-.26,1.09q2-2,3-2a.53.53,0,0,1,.41.15.66.66,0,0,1,.14.47,4.89,4.89,0,0,1-.25,1.17A8.25,8.25,0,0,1,109,70.45a2.38,2.38,0,0,1,1.08-.41.7.7,0,0,1,.53.2.85.85,0,0,1,.19.61,2.49,2.49,0,0,1-.08.58q-.08.34-.6,2a14.92,14.92,0,0,0-.65,2.54c0,.18.08.28.23.28a.53.53,0,0,0,.3-.1,7.87,7.87,0,0,0,1-.85l.27.29c-.12.09-.33.28-.65.57a7.91,7.91,0,0,1-.9.74,1.67,1.67,0,0,1-.8.28.55.55,0,0,1-.43-.24,1.06,1.06,0,0,1-.19-.67,4.49,4.49,0,0,1,.11-.92q.12-.53.67-2.37a9.38,9.38,0,0,0,.42-1.68c0-.19-.08-.28-.25-.28a1.19,1.19,0,0,0-.55.21,4.27,4.27,0,0,0-1.18,1,3.94,3.94,0,0,0-.58,1.35q-.55,2-.82,3.31H105l1.22-5a5.22,5.22,0,0,0,.13-.62.28.28,0,0,0-.07-.2.24.24,0,0,0-.19-.07,1.45,1.45,0,0,0-.69.34,4.57,4.57,0,0,0-1.17,1.13,5.29,5.29,0,0,0-.61,1.66L103,77h-1.18l.93-3.91q.41-1.7.41-1.85c0-.13,0-.19-.15-.19s-.65.31-1.31.94"/>
    <!-- o --><path d="M116.08,70.07a1.67,1.67,0,0,1,1.34.64,2.71,2.71,0,0,1,.53,1.78,4.81,4.81,0,0,1-1.28,3.27A3.64,3.64,0,0,1,114,77.21a1.85,1.85,0,0,1-1.41-.57,2.2,2.2,0,0,1-.54-1.57,5.59,5.59,0,0,1,1-3.18,3.65,3.65,0,0,1,3.09-1.81m-.7.61q-.7,0-1.35,1a5,5,0,0,0-.65,2.75,3,3,0,0,0,.4,1.68.9.9,0,0,0,.79.45,1.56,1.56,0,0,0,1.25-.85,4.93,4.93,0,0,0,.72-2.75,3.43,3.43,0,0,0-.33-1.75,1,1,0,0,0-.83-.53"/>
    <!-- r --><path d="M120.38,77h-1.22l.58-2.21q.42-1.62.73-3.08a3.07,3.07,0,0,0,.07-.45c0-.13-.06-.2-.18-.2a.81.81,0,0,0-.38.17,7.7,7.7,0,0,0-.92.83l-.25-.29a6.24,6.24,0,0,1,1.57-1.27,2.84,2.84,0,0,1,1.2-.42.36.36,0,0,1,.24.07.22.22,0,0,1,.09.18,3.94,3.94,0,0,1-.11.57l-.36,1.47a10.48,10.48,0,0,1,1.87-2.24,1.43,1.43,0,0,1,.84-.44.56.56,0,0,1,.41.16.5.5,0,0,1,.17.37.52.52,0,0,1-.16.38,2.53,2.53,0,0,1-.8.37,3.44,3.44,0,0,0-1,.49,4.59,4.59,0,0,0-.84.88,4.67,4.67,0,0,0-.64,1,17,17,0,0,0-.55,2Z"/>
    <!-- e --><path d="M128.33,74.91l.27.36q-2,1.91-3.45,1.91a1.06,1.06,0,0,1-.89-.39,2.06,2.06,0,0,1-.31-1.26A6.63,6.63,0,0,1,125,72a3.41,3.41,0,0,1,2.86-2,1.25,1.25,0,0,1,.89.29,1.05,1.05,0,0,1,.31.8,1.8,1.8,0,0,1-.37,1.05,4.32,4.32,0,0,1-1.32,1.07q-.48.27-2,1a5.28,5.28,0,0,0-.07.84,1.34,1.34,0,0,0,.18.81.65.65,0,0,0,.54.23,1.74,1.74,0,0,0,.74-.19,10.46,10.46,0,0,0,1.58-1m-2.87-1.19a6.45,6.45,0,0,0,2-1.27,1.4,1.4,0,0,0,.45-.94.81.81,0,0,0-.19-.56.61.61,0,0,0-.48-.21.93.93,0,0,0-.59.23,2.25,2.25,0,0,0-.65.92,8.27,8.27,0,0,0-.53,1.84"/>
    <!-- v --><path d="M137.49,70.85a7.91,7.91,0,0,0-.87,1.78,5.08,5.08,0,0,0-.24,1.54,12.14,12.14,0,0,0,.31,2.21,10.54,10.54,0,0,0,2.57-2.58,4.09,4.09,0,0,0,.75-2.07,1.55,1.55,0,0,0-.19-.64,1.57,1.57,0,0,1-.21-.61.54.54,0,0,1,.15-.37.47.47,0,0,1,.35-.16.51.51,0,0,1,.44.23,1.44,1.44,0,0,1,.16.79,5.64,5.64,0,0,1-1.24,3.41,10.1,10.1,0,0,1-3.85,3.13q-.06-.38-.23-1.23a14.47,14.47,0,0,1-.34-2.36,3.79,3.79,0,0,1,.41-1.7,4,4,0,0,1,1.21-1.43,5.41,5.41,0,0,0-2.07.32c-.29.14-.44.31-.44.5a1.18,1.18,0,0,0,.11.39.91.91,0,0,1,.07.32.32.32,0,0,1-.11.24.39.39,0,0,1-.28.1.45.45,0,0,1-.36-.18.74.74,0,0,1-.15-.48,1.34,1.34,0,0,1,.32-.87,2.15,2.15,0,0,1,1.11-.61,7.46,7.46,0,0,1,2.08-.21,2.49,2.49,0,0,1,.66-.23.34.34,0,0,1,.24.11.32.32,0,0,1,.11.23c0,.17-.17.32-.5.46"/>
    <!-- a --><path d="M146.82,69.93l.54-.11-.62,2.08q-.37,1.24-.7,2.86a7.55,7.55,0,0,0-.18,1.13c0,.17.07.25.21.25a1,1,0,0,0,.42-.17,5.44,5.44,0,0,0,1-.75l.26.32c-.62.57-1,.91-1.2,1a4.53,4.53,0,0,1-1,.53,1.77,1.77,0,0,1-.61.12.46.46,0,0,1-.32-.1.37.37,0,0,1-.11-.29,1.23,1.23,0,0,1,.07-.34l.33-1.11a7,7,0,0,1-1.68,1.45,2.11,2.11,0,0,1-1.1.38.86.86,0,0,1-.73-.34,1.9,1.9,0,0,1-.35-1.18,4.93,4.93,0,0,1,.46-1.94,7.21,7.21,0,0,1,1.24-1.94,5.27,5.27,0,0,1,1.64-1.28,4,4,0,0,1,1.71-.31,4.63,4.63,0,0,1,.53,0Zm-1,1.26a3.83,3.83,0,0,0-.75-.09,2.11,2.11,0,0,0-1.29.41,3.64,3.64,0,0,0-1,1.46,5.13,5.13,0,0,0-.47,2.11,1.34,1.34,0,0,0,.19.8.59.59,0,0,0,.49.25,1.85,1.85,0,0,0,1.22-.61,3.61,3.61,0,0,0,1-1.76Z"/>
    <!-- l --><path d="M151.83,75l.28.3a8,8,0,0,1-1.51,1.32,2.78,2.78,0,0,1-1.44.6.52.52,0,0,1-.42-.19.79.79,0,0,1-.16-.53,14.89,14.89,0,0,1,.51-2.72l.89-3.6a15.29,15.29,0,0,1,.81-2.62,3.83,3.83,0,0,1,3.4-2.12.82.82,0,0,1,.55.17.51.51,0,0,1,.2.41.54.54,0,0,1-.2.43.85.85,0,0,1-.57.17,4.15,4.15,0,0,1-.69-.08,4.52,4.52,0,0,0-.73-.07.8.8,0,0,0-.51.14,1.78,1.78,0,0,0-.43.83q-.19.63-.62,2.48l-.82,3.44q-.61,2.59-.61,2.7,0,.26.19.26a1.19,1.19,0,0,0,.53-.21A8.27,8.27,0,0,0,151.83,75"/>
    <!-- u --><path d="M158.12,70.28h1.17l-.77,2.87a22.63,22.63,0,0,0-.68,2.84.34.34,0,0,0,.07.24.22.22,0,0,0,.16.08.64.64,0,0,0,.33-.12,10,10,0,0,0,1-1l.27.3q-1.65,1.72-2.43,1.72a.58.58,0,0,1-.45-.2.81.81,0,0,1-.18-.57,5,5,0,0,1,.18-1.14,7.21,7.21,0,0,1-1.8,1.47,2.54,2.54,0,0,1-1.24.42.57.57,0,0,1-.45-.19.91.91,0,0,1-.16-.6,3.47,3.47,0,0,1,.07-.69c.07-.35.25-1,.54-2.08a14.87,14.87,0,0,0,.55-2.37c0-.16-.06-.23-.16-.23a.88.88,0,0,0-.4.15,6.37,6.37,0,0,0-.87.73l-.36-.29a9.92,9.92,0,0,1,1.68-1.29,2.15,2.15,0,0,1,.93-.31.4.4,0,0,1,.32.14.68.68,0,0,1,.12.45,15.57,15.57,0,0,1-.59,2.78,18.62,18.62,0,0,0-.52,2.28.42.42,0,0,0,.11.29.32.32,0,0,0,.24.12,2.38,2.38,0,0,0,1.3-.76,3.55,3.55,0,0,0,1.11-1.73Z"/>
    <!-- e --><path d="M164.74,74.91l.27.36q-2,1.91-3.45,1.91a1.06,1.06,0,0,1-.89-.39,2.06,2.06,0,0,1-.31-1.26A6.63,6.63,0,0,1,161.44,72a3.41,3.41,0,0,1,2.86-2,1.25,1.25,0,0,1,.89.29,1.05,1.05,0,0,1,.31.8,1.8,1.8,0,0,1-.37,1.05,4.32,4.32,0,0,1-1.32,1.07q-.48.27-2,1a5.29,5.29,0,0,0-.07.84,1.34,1.34,0,0,0,.19.81.65.65,0,0,0,.54.23,1.73,1.73,0,0,0,.74-.19,10.45,10.45,0,0,0,1.58-1m-2.87-1.19a6.46,6.46,0,0,0,2-1.27,1.4,1.4,0,0,0,.45-.94.81.81,0,0,0-.18-.56.61.61,0,0,0-.48-.21.93.93,0,0,0-.59.23,2.26,2.26,0,0,0-.65.92,8.3,8.3,0,0,0-.53,1.84"/>
    <!-- t --><path d="M172.41,68.8l1.3-.5-.59,2.3h1.7l-.13.58H173l-.72,2.75a7.81,7.81,0,0,0-.34,1.72A.46.46,0,0,0,172,76a.34.34,0,0,0,.26.1,1.82,1.82,0,0,0,.78-.3,10.26,10.26,0,0,0,1.31-.91l.31.38a20.59,20.59,0,0,1-2.4,1.66,2.36,2.36,0,0,1-1,.31.58.58,0,0,1-.48-.22,1.16,1.16,0,0,1-.18-.72,8.13,8.13,0,0,1,.31-1.8l.84-3.27h-1.33l.15-.58H172Z"/>
    <!-- h --><path d="M182.21,75.23l.21.3a7.29,7.29,0,0,1-1.55,1.33,1.85,1.85,0,0,1-.89.34.55.55,0,0,1-.46-.23,1.15,1.15,0,0,1-.18-.71,4.91,4.91,0,0,1,.14-1q.13-.63.77-2.69a8.31,8.31,0,0,0,.28-1.19c0-.18-.09-.26-.28-.26a1.69,1.69,0,0,0-.86.34,5.15,5.15,0,0,0-1.28,1.21,3.76,3.76,0,0,0-.57,1.4L176.88,77h-1.22q.39-1.43.61-2.34l1.21-5.26a6.61,6.61,0,0,1,.87-2.24,3.94,3.94,0,0,1,1.4-1.26,3.57,3.57,0,0,1,1.71-.47.83.83,0,0,1,.56.18.55.55,0,0,1,.21.44.5.5,0,0,1-.2.39.82.82,0,0,1-.55.17,3.85,3.85,0,0,1-.51,0,7.71,7.71,0,0,0-1-.1.75.75,0,0,0-.62.31,4.29,4.29,0,0,0-.49,1.43l-.91,4a10.62,10.62,0,0,1,2.13-1.73,2.26,2.26,0,0,1,1.08-.42.66.66,0,0,1,.5.19.73.73,0,0,1,.18.53,2.42,2.42,0,0,1-.07.56q-.11.48-.5,1.76-.53,1.75-.63,2.18a3.57,3.57,0,0,0-.09.76.34.34,0,0,0,0,.2.15.15,0,0,0,.13.07q.2,0,.74-.47l.74-.61"/>
    <!-- a --><path d="M188.74,69.93l.54-.11-.62,2.08q-.37,1.24-.7,2.86a7.63,7.63,0,0,0-.18,1.13c0,.17.07.25.21.25a1,1,0,0,0,.42-.17,5.41,5.41,0,0,0,1-.75l.26.32c-.62.57-1,.91-1.2,1a4.5,4.5,0,0,1-1,.53,1.76,1.76,0,0,1-.61.12.47.47,0,0,1-.32-.1.37.37,0,0,1-.11-.29,1.26,1.26,0,0,1,.07-.34l.33-1.11a7,7,0,0,1-1.68,1.45,2.11,2.11,0,0,1-1.1.38.87.87,0,0,1-.73-.34,1.9,1.9,0,0,1-.35-1.18,4.94,4.94,0,0,1,.46-1.94,7.21,7.21,0,0,1,1.24-1.94,5.27,5.27,0,0,1,1.64-1.28,4,4,0,0,1,1.71-.31,4.6,4.6,0,0,1,.53,0Zm-1,1.26a3.82,3.82,0,0,0-.75-.09,2.1,2.1,0,0,0-1.29.41,3.64,3.64,0,0,0-1,1.46,5.14,5.14,0,0,0-.47,2.11,1.34,1.34,0,0,0,.19.8.59.59,0,0,0,.49.25,1.84,1.84,0,0,0,1.21-.61,3.62,3.62,0,0,0,1-1.76Z"/>
    <!-- n --><path d="M190.58,72l-.28-.29A8.44,8.44,0,0,1,192,70.37,2.36,2.36,0,0,1,193,70a.44.44,0,0,1,.27.07.22.22,0,0,1,.1.17,1.55,1.55,0,0,1,0,.26L193,72.2a10.09,10.09,0,0,1,2.1-1.73,2.25,2.25,0,0,1,1.1-.42.63.63,0,0,1,.5.2.87.87,0,0,1,.18.59,2.61,2.61,0,0,1-.07.57q-.13.53-.69,2.32A9.65,9.65,0,0,0,195.6,76a.53.53,0,0,0,0,.25.15.15,0,0,0,.14.08q.24,0,.75-.46c.24-.22.48-.42.72-.61l.2.29a7.49,7.49,0,0,1-1.57,1.34,1.72,1.72,0,0,1-.85.33.57.57,0,0,1-.48-.23,1.22,1.22,0,0,1-.17-.74,17.84,17.84,0,0,1,.91-3.63,8.68,8.68,0,0,0,.28-1.21c0-.17-.1-.25-.31-.25a1.66,1.66,0,0,0-.84.35,5,5,0,0,0-1.29,1.2,3.86,3.86,0,0,0-.55,1.41L191.93,77h-1.22q.34-1.23.6-2.36l.73-3.12a1.43,1.43,0,0,0,0-.27c0-.15-.05-.22-.16-.22a.77.77,0,0,0-.38.17,5.06,5.06,0,0,0-1,.83"/>
    <!-- a --><path d="M207.62,69.93l.54-.11-.62,2.08q-.37,1.24-.7,2.86a7.57,7.57,0,0,0-.18,1.13c0,.17.07.25.21.25a1,1,0,0,0,.42-.17,5.45,5.45,0,0,0,1-.75l.26.32a15.7,15.7,0,0,1-1.2,1,4.49,4.49,0,0,1-1,.53,1.76,1.76,0,0,1-.61.12.46.46,0,0,1-.32-.1.37.37,0,0,1-.11-.29,1.23,1.23,0,0,1,.07-.34l.33-1.11A7,7,0,0,1,204,76.82a2.11,2.11,0,0,1-1.1.38.87.87,0,0,1-.73-.34,1.9,1.9,0,0,1-.34-1.18,4.94,4.94,0,0,1,.46-1.94,7.18,7.18,0,0,1,1.24-1.94,5.27,5.27,0,0,1,1.64-1.28,4,4,0,0,1,1.71-.31,4.58,4.58,0,0,1,.53,0Zm-1,1.26a3.81,3.81,0,0,0-.75-.09,2.11,2.11,0,0,0-1.29.41,3.65,3.65,0,0,0-1,1.46,5.13,5.13,0,0,0-.47,2.11,1.33,1.33,0,0,0,.19.8.59.59,0,0,0,.49.25A1.84,1.84,0,0,0,205,75.5a3.61,3.61,0,0,0,1-1.76Z"/>
    <!-- n --><path d="M209.46,72l-.28-.29a8.44,8.44,0,0,1,1.67-1.34,2.36,2.36,0,0,1,1.07-.33.44.44,0,0,1,.27.07.21.21,0,0,1,.1.17,1.55,1.55,0,0,1,0,.26l-.37,1.65a10.07,10.07,0,0,1,2.1-1.73,2.25,2.25,0,0,1,1.1-.42.63.63,0,0,1,.5.2.88.88,0,0,1,.18.59,2.61,2.61,0,0,1-.07.57q-.13.53-.69,2.32a9.6,9.6,0,0,0-.52,2.23.53.53,0,0,0,0,.25.16.16,0,0,0,.14.08c.16,0,.41-.15.75-.46s.48-.42.72-.61l.2.29a7.46,7.46,0,0,1-1.57,1.34,1.72,1.72,0,0,1-.85.33.58.58,0,0,1-.48-.23,1.23,1.23,0,0,1-.17-.74,17.87,17.87,0,0,1,.91-3.63,8.6,8.6,0,0,0,.28-1.21c0-.17-.1-.25-.3-.25a1.67,1.67,0,0,0-.84.35,5,5,0,0,0-1.29,1.2,3.88,3.88,0,0,0-.55,1.41L210.81,77h-1.22q.35-1.23.6-2.36l.73-3.12a1.54,1.54,0,0,0,0-.27c0-.15-.06-.22-.16-.22a.77.77,0,0,0-.38.17,5.07,5.07,0,0,0-1,.83"/>
    <!-- e --><path d="M225.2,74.91l.27.36q-2,1.91-3.45,1.91a1.06,1.06,0,0,1-.89-.39,2.06,2.06,0,0,1-.31-1.26A6.63,6.63,0,0,1,221.9,72a3.41,3.41,0,0,1,2.86-2,1.25,1.25,0,0,1,.89.29,1.05,1.05,0,0,1,.31.8,1.8,1.8,0,0,1-.37,1.05,4.32,4.32,0,0,1-1.32,1.07q-.48.27-2,1a5.3,5.3,0,0,0-.07.84,1.34,1.34,0,0,0,.18.81.65.65,0,0,0,.54.23,1.74,1.74,0,0,0,.74-.19,10.46,10.46,0,0,0,1.58-1m-2.87-1.19a6.45,6.45,0,0,0,2-1.27,1.4,1.4,0,0,0,.45-.94.81.81,0,0,0-.19-.56.61.61,0,0,0-.48-.21.93.93,0,0,0-.59.23,2.26,2.26,0,0,0-.65.92,8.29,8.29,0,0,0-.53,1.84"/>
    <!-- n --><path d="M227,72l-.28-.29a8.44,8.44,0,0,1,1.67-1.34,2.36,2.36,0,0,1,1.07-.33.44.44,0,0,1,.27.07.21.21,0,0,1,.1.17,1.55,1.55,0,0,1,0,.26l-.37,1.65a10.07,10.07,0,0,1,2.1-1.73,2.25,2.25,0,0,1,1.1-.42.63.63,0,0,1,.5.2.88.88,0,0,1,.18.59,2.61,2.61,0,0,1-.07.57q-.13.53-.69,2.32A9.6,9.6,0,0,0,232,76a.53.53,0,0,0,0,.25.16.16,0,0,0,.14.08c.16,0,.41-.15.75-.46s.48-.42.72-.61l.2.29a7.46,7.46,0,0,1-1.57,1.34,1.72,1.72,0,0,1-.85.33A.58.58,0,0,1,231,77a1.23,1.23,0,0,1-.17-.74,17.87,17.87,0,0,1,.91-3.63A8.6,8.6,0,0,0,232,71.4c0-.17-.1-.25-.3-.25a1.67,1.67,0,0,0-.84.35,5,5,0,0,0-1.29,1.2A3.88,3.88,0,0,0,229,74.1L228.34,77h-1.22q.34-1.23.6-2.36l.73-3.12a1.54,1.54,0,0,0,0-.27c0-.15-.06-.22-.16-.22a.77.77,0,0,0-.38.17,5.07,5.07,0,0,0-1,.83"/>
    <!-- t --><path d="M236.91,68.8l1.3-.5-.59,2.3h1.7l-.13.58h-1.7l-.72,2.75a7.82,7.82,0,0,0-.34,1.72.45.45,0,0,0,.1.32.34.34,0,0,0,.26.1,1.81,1.81,0,0,0,.78-.3,10.42,10.42,0,0,0,1.31-.91l.31.38a20.76,20.76,0,0,1-2.4,1.66,2.36,2.36,0,0,1-1,.31.58.58,0,0,1-.48-.22,1.16,1.16,0,0,1-.18-.72,8,8,0,0,1,.31-1.8l.83-3.27H235l.15-.58h1.33Z"/>
    <!-- i --><path d="M240.38,72l-.36-.28a6.35,6.35,0,0,1,1.5-1.28,2.46,2.46,0,0,1,1.15-.38.6.6,0,0,1,.4.12.38.38,0,0,1,.14.31,15.31,15.31,0,0,1-.53,2,20.26,20.26,0,0,0-.87,3.51.32.32,0,0,0,.06.19.15.15,0,0,0,.12.08q.26,0,1.35-1l.32.31A10.67,10.67,0,0,1,242,76.9a1.84,1.84,0,0,1-.85.29.59.59,0,0,1-.45-.18.7.7,0,0,1-.17-.5,24.78,24.78,0,0,1,1.23-5,1.19,1.19,0,0,0,.06-.34c0-.11,0-.16-.15-.16a.72.72,0,0,0-.37.13,8.44,8.44,0,0,0-.93.84m3.22-5.43a.56.56,0,0,1,.42.17.59.59,0,0,1,.16.43.92.92,0,0,1-.25.64.74.74,0,0,1-.56.27.54.54,0,0,1-.41-.17.63.63,0,0,1-.16-.45.89.89,0,0,1,.24-.63.74.74,0,0,1,.56-.26"/>
    <!-- r --><path d="M245.8,77h-1.22l.58-2.21q.42-1.62.73-3.08a3.07,3.07,0,0,0,.07-.45c0-.13-.06-.2-.18-.2a.81.81,0,0,0-.38.17,7.71,7.71,0,0,0-.92.83l-.25-.29a6.24,6.24,0,0,1,1.57-1.27,2.84,2.84,0,0,1,1.2-.42.36.36,0,0,1,.24.07.22.22,0,0,1,.09.18,3.94,3.94,0,0,1-.11.57l-.36,1.47a10.48,10.48,0,0,1,1.87-2.24,1.43,1.43,0,0,1,.84-.44.56.56,0,0,1,.41.16.5.5,0,0,1,.17.37.52.52,0,0,1-.16.38,2.53,2.53,0,0,1-.8.37,3.44,3.44,0,0,0-1,.49,4.59,4.59,0,0,0-.84.88,4.67,4.67,0,0,0-.64,1,17,17,0,0,0-.55,2Z"/>
    <!-- e --><path d="M253.75,74.91l.27.36q-2,1.91-3.45,1.91a1.06,1.06,0,0,1-.89-.39,2.06,2.06,0,0,1-.31-1.26A6.64,6.64,0,0,1,250.45,72a3.41,3.41,0,0,1,2.86-2,1.25,1.25,0,0,1,.89.29,1.05,1.05,0,0,1,.31.8,1.8,1.8,0,0,1-.37,1.05,4.32,4.32,0,0,1-1.32,1.07q-.48.27-2,1a5.29,5.29,0,0,0-.07.84,1.34,1.34,0,0,0,.18.81.65.65,0,0,0,.54.23,1.74,1.74,0,0,0,.74-.19,10.47,10.47,0,0,0,1.58-1m-2.87-1.19a6.45,6.45,0,0,0,2-1.27,1.4,1.4,0,0,0,.45-.94.81.81,0,0,0-.19-.56.61.61,0,0,0-.48-.21.93.93,0,0,0-.59.23,2.26,2.26,0,0,0-.65.92,8.29,8.29,0,0,0-.53,1.84"/>
    <!-- w --><path d="M262.52,70.3a1.18,1.18,0,0,1,.57-.26.33.33,0,0,1,.25.1.35.35,0,0,1,.1.25c0,.21-.16.36-.48.44l-.63,1.24a5.21,5.21,0,0,0-.36,1,4.76,4.76,0,0,0-.12,1.06,11.56,11.56,0,0,0,.33,2.18,10.07,10.07,0,0,0,2.35-2.24c0-.24,0-.41,0-.52a6.34,6.34,0,0,1,.53-2.85q.35-.69.78-.69a.51.51,0,0,1,.42.22,1,1,0,0,1,.17.64,2.91,2.91,0,0,1-.13.8,8.86,8.86,0,0,1-.52,1.35,13.58,13.58,0,0,0,.31,3.28A11.06,11.06,0,0,0,268,74.65a5.75,5.75,0,0,0,1-1.55,3.53,3.53,0,0,0,.35-1.33,1.68,1.68,0,0,0-.18-.66,1.91,1.91,0,0,1-.21-.68.49.49,0,0,1,.16-.37.53.53,0,0,1,.38-.15.49.49,0,0,1,.43.26,1.88,1.88,0,0,1,.16.92,5.81,5.81,0,0,1-1.47,3.54,10,10,0,0,1-3.58,2.86,17.89,17.89,0,0,1-.48-2.66q-1.11,1.11-1.38,1.34a9.93,9.93,0,0,1-1,.77,7.1,7.1,0,0,1-1.08.55c0-.31-.12-.82-.26-1.51a12.66,12.66,0,0,1-.29-2.1,3.71,3.71,0,0,1,.41-1.68,4.13,4.13,0,0,1,1.24-1.45,5.67,5.67,0,0,0-2.12.34c-.28.14-.43.3-.43.49a1,1,0,0,0,.1.35,1,1,0,0,1,.09.33.35.35,0,0,1-.11.25.37.37,0,0,1-.27.11.46.46,0,0,1-.37-.19.85.85,0,0,1-.15-.53,1.24,1.24,0,0,1,.59-1.07,5.29,5.29,0,0,1,3-.56"/>
    <!-- o --><path d="M274.76,70.07a1.67,1.67,0,0,1,1.34.64,2.71,2.71,0,0,1,.53,1.78,4.81,4.81,0,0,1-1.28,3.27,3.64,3.64,0,0,1-2.71,1.45,1.85,1.85,0,0,1-1.41-.57,2.2,2.2,0,0,1-.54-1.57,5.58,5.58,0,0,1,1-3.18,3.64,3.64,0,0,1,3.08-1.81m-.7.61q-.7,0-1.35,1a5,5,0,0,0-.65,2.75,3.06,3.06,0,0,0,.4,1.68.91.91,0,0,0,.79.45,1.56,1.56,0,0,0,1.25-.85,4.94,4.94,0,0,0,.72-2.75,3.41,3.41,0,0,0-.33-1.75,1,1,0,0,0-.83-.53"/>
    <!-- r --><path d="M279.06,77h-1.22l.58-2.21q.42-1.62.73-3.08a3.22,3.22,0,0,0,.07-.45c0-.13-.06-.2-.18-.2a.82.82,0,0,0-.38.17,7.65,7.65,0,0,0-.92.83l-.26-.29a6.24,6.24,0,0,1,1.57-1.27,2.85,2.85,0,0,1,1.2-.42.36.36,0,0,1,.23.07.22.22,0,0,1,.09.18,3.75,3.75,0,0,1-.11.57l-.36,1.47A10.52,10.52,0,0,1,282,70.1a1.42,1.42,0,0,1,.84-.44.56.56,0,0,1,.41.16.5.5,0,0,1,.16.37.51.51,0,0,1-.16.38,2.53,2.53,0,0,1-.8.37,3.44,3.44,0,0,0-1,.49,4.59,4.59,0,0,0-.84.88,4.68,4.68,0,0,0-.64,1,17.37,17.37,0,0,0-.55,2Z"/>
    <!-- l --><path d="M286.13,75l.28.3a8,8,0,0,1-1.51,1.32,2.79,2.79,0,0,1-1.44.6A.53.53,0,0,1,283,77a.8.8,0,0,1-.16-.53,14.9,14.9,0,0,1,.51-2.72l.88-3.6a15.28,15.28,0,0,1,.81-2.62,3.83,3.83,0,0,1,3.4-2.12.82.82,0,0,1,.55.17.51.51,0,0,1,.2.41.55.55,0,0,1-.2.43.85.85,0,0,1-.57.17,4.15,4.15,0,0,1-.69-.08,4.52,4.52,0,0,0-.73-.07.8.8,0,0,0-.51.14,1.77,1.77,0,0,0-.43.83q-.19.63-.62,2.48l-.82,3.44Q284,75.92,284,76c0,.18.06.26.19.26a1.18,1.18,0,0,0,.53-.21A8.28,8.28,0,0,0,286.13,75"/>
    <!-- d --><path d="M293.19,75.27l.23.31a12.59,12.59,0,0,1-1.63,1.23,2.61,2.61,0,0,1-1.17.42.46.46,0,0,1-.32-.11.33.33,0,0,1-.12-.25,1.92,1.92,0,0,1,.09-.46l.29-1a7.81,7.81,0,0,1-1.64,1.44,2.42,2.42,0,0,1-1.18.38.9.9,0,0,1-.73-.38,1.81,1.81,0,0,1-.29-1.12,5.9,5.9,0,0,1,.8-2.68,6.49,6.49,0,0,1,1.78-2.24,3.1,3.1,0,0,1,1.79-.73,4,4,0,0,1,.54.06,12.53,12.53,0,0,1,.74-2.33,4.31,4.31,0,0,1,.91-1.27,4,4,0,0,1,1.28-.82,3.57,3.57,0,0,1,1.34-.29.76.76,0,0,1,.53.17.55.55,0,0,1,.2.43.53.53,0,0,1-.18.41.71.71,0,0,1-.49.16,6.26,6.26,0,0,1-.76-.08,6.61,6.61,0,0,0-.76-.08.78.78,0,0,0-.51.18,1.7,1.7,0,0,0-.41.76q-.13.37-.6,2.36l-1.16,5a6.55,6.55,0,0,0-.2,1.17c0,.21.08.31.24.31a.75.75,0,0,0,.35-.11,11.12,11.12,0,0,0,1.08-.78M291.45,71a5,5,0,0,0-.93-.15,1.68,1.68,0,0,0-1.07.43,4.17,4.17,0,0,0-1,1.67,6,6,0,0,0-.49,2.16,1,1,0,0,0,.23.69.66.66,0,0,0,.51.27,1.44,1.44,0,0,0,.79-.3,3.41,3.41,0,0,0,1-1.1,10.49,10.49,0,0,0,.6-2Z"/>
</svg>